{
.appVersion = "3436";
DisplayStrings = (
"µ/space/.notdef/space/m.sc/space/space/space/checkmark \012/mu/space/Mu/space/m.sc/space/space/space/checkmark \012/florin/space/.notdef/space/florin.sc/space/space/space/checkmark \012/omega/space/Omega/space/omega.sc/space/space/space/checkmark \012/jcaron/space/.notdef/space/jcaron.sc/space/space/space/checkmark \012/napostrophe/space/.notdef/space/napostrophe.sc/space/space/space/checkmark \012/delta/space/Delta/space/delta.sc/space/space/space/checkmark \012/pi/space/Pi/space/pi.sc/space/space/space/checkmark \012/kgreenlandic/space/.notdef/space/kgreenlandic.sc/space/space/space/checkmark \012/fl/space FL/space/fl.sc/space/space/space/checkmark \012/fi/space FI/space/fi.sc/space/space/space/checkmark \012/c_t/space CT/space/c.sc/c_t.sc/t.sc/space/space/space/checkmark \012/s_t/space ST/space/s.sc/s_t.sc/t.sc/space/h.sc/t.sc/s.sc/space/checkmark \012/Omega/space/omega.sc/space/space/space/checkmark \012/Sigma/space/a.sc/sigma.sc/a.sc/space/space/space/checkmark \012/Mu/space/mu.sc/space/space/space/checkmark \012/ohm/space/ohm.sc/space/space/space/checkmark \012/Pi/space/pi.sc/space/space/space/checkmark \012\012TESTING!!!",
"A/rupeeIndian A/rupeeIndian.osf A\012",
"o/ijacute/space/ijacute.sc/space/IJacute \012íj/acutecomb/space/iacute.sc/j.sc ´/space/space ÍJ/acutecomb",
"/Lcaron/lcaron/l.sc/lcaron.sc \012/Dcaron/dcaron/d.sc/caroncomb/dcaron.sc \012/Tcaron/tcaron/tcaron.sc",

glyphs = (
{
glyphname = A;
lastChange = "2026-02-01 12:49:34 +0000";
layers = (
{
layerId = "4692E1D1-BCA0-47EF-98E6-2E6F4483D11B";
paths = (
{
closed = 1;
nodes = (
"289 775 OFFCURVE",
"257 775 OFFCURVE",
"249 734 CURVE SMOOTH",
"228 620 OFFCURVE",
"195 478 OFFCURVE",
"152 355 CURVE",
"139 356 OFFCURVE",
"118 358 OFFCURVE",
"100 360 CURVE SMOOTH",
"68 364 OFFCURVE",
"64 322 OFFCURVE",
"94 318 CURVE SMOOTH",
"105 316 OFFCURVE",
"126 314 OFFCURVE",
"138 313 CURVE",
"102 215 OFFCURVE",
"61 118 OFFCURVE",
"16 22 CURVE SMOOTH",
"4 -5 OFFCURVE",
"44 -23 OFFCURVE",
"57 5 CURVE SMOOTH",
"102 103 OFFCURVE",
"143 205 OFFCURVE",
"183 310 CURVE",
"275 305 OFFCURVE",
"350 305 OFFCURVE",
"404 306 CURVE",
"449 171 OFFCURVE",
"493 29 OFFCURVE",
"501 7 CURVE SMOOTH",
"509 -19 OFFCURVE",
"551 -9 OFFCURVE",
"542 21 CURVE SMOOTH",
"536 42 OFFCURVE",
"491 179 OFFCURVE",
"449 306 CURVE",
"456 307 OFFCURVE",
"471 307 OFFCURVE",
"489 309 CURVE SMOOTH",
"517 312 OFFCURVE",
"515 353 OFFCURVE",
"485 352 CURVE SMOOTH",
"461 350 OFFCURVE",
"444 350 OFFCURVE",
"437 350 CURVE SMOOTH",
"386 513 OFFCURVE",
"322 714 OFFCURVE",
"303 750 CURVE SMOOTH"
);
},
{
closed = 1;
nodes = (
"317 591 OFFCURVE",
"363 453 OFFCURVE",
"393 348 CURVE",
"327 346 OFFCURVE",
"258 347 OFFCURVE",
"196 351 CURVE",
"247 519 OFFCURVE",
"268 614 OFFCURVE",
"282 693 CURVE"
);
}
);
width = 557;
},
{
layerId = "7911D52E-6854-4A1B-8A16-F908BFF91E8F";
paths = (
{
closed = 1;
nodes = (
"319.642 784.282 OFFCURVE",
"256.299 778.821 OFFCURVE",
"244.974 717.341 CURVE SMOOTH",
"224.874 608.221 OFFCURVE",
"192.983 495.912 OFFCURVE",
"152.834 377.588 CURVE",
"143.096 378.27 OFFCURVE",
"121.109 379.431 OFFCURVE",
"108.111 380.746 CURVE SMOOTH",
"53.633 385.557 OFFCURVE",
"40.457 306.454 OFFCURVE",
"94.9 299.193 CURVE SMOOTH",
"103.176 298.089 OFFCURVE",
"117.056 296.498 OFFCURVE",
"125.218 295.605 CURVE SMOOTH",
"80.766 183.016 OFFCURVE",
"68.01 158.178 OFFCURVE",
"18.635 47.523 CURVE SMOOTH",
"-5.476 -3.645 OFFCURVE",
"71.245 -38.053 OFFCURVE",
"94.284 13.481 CURVE SMOOTH",
"137.191 108.053 OFFCURVE",
"171.988 188.538 OFFCURVE",
"209.464 289.244 CURVE SMOOTH",
"287.513 284.976 OFFCURVE",
"354.954 284.772 OFFCURVE",
"405.235 285.532 CURVE",
"446.245 155.336 OFFCURVE",
"481.976 42.578 OFFCURVE",
"488.944 21.255 CURVE SMOOTH",
"505.262 -28.682 OFFCURVE",
"585.035 -9.483 OFFCURVE",
"567.667 46.912 CURVE SMOOTH",
"561.482 66.806 OFFCURVE",
"526.889 168.015 OFFCURVE",
"489.912 287.772 CURVE",
"493.67 288.156 OFFCURVE",
"500.542 288.774 OFFCURVE",
"504.677 289.133 CURVE SMOOTH",
"558.014 293.978 OFFCURVE",
"554.469 375.013 OFFCURVE",
"497.663 371.541 CURVE SMOOTH",
"478.245 370.354 OFFCURVE",
"463.85 369.704 OFFCURVE",
"463.84 369.704 CURVE",
"402.409 558.539 OFFCURVE",
"365.327 667.999 OFFCURVE",
"341.028 730.28 CURVE"
);
},
{
closed = 1;
nodes = (
"329.096 535.126 OFFCURVE",
"357.39 444.566 OFFCURVE",
"379.774 367.268 CURVE",
"331.432 366.172 OFFCURVE",
"283.038 366.901 OFFCURVE",
"236.671 369.601 CURVE",
"269.039 476.843 OFFCURVE",
"288.917 553.184 OFFCURVE",
"302.477 615.238 CURVE"
);
}
);
width = 584;
}
);
leftKerningGroup = A;
rightKerningGroup = A;
unicode = 0041;
},
{
glyphname = Aacute;
lastChange = "2019-12-12 11:07:01 +0000";
layers = (
{
layerId = "4692E1D1-BCA0-47EF-98E6-2E6F4483D11B";
paths = (
{
closed = 1;
nodes = (
"496 -28 OFFCURVE",
"538 -15 OFFCURVE",
"527 15 CURVE SMOOTH",
"494 106 OFFCURVE",
"344 625 OFFCURVE",
"300 729 CURVE SMOOTH",
"286 762 OFFCURVE",
"246 759 OFFCURVE",
"238 723 CURVE SMOOTH",
"179 457 OFFCURVE",
"62 122 OFFCURVE",
"16 18 CURVE SMOOTH",
"4 -9 OFFCURVE",
"44 -25 OFFCURVE",
"57 4 CURVE SMOOTH",
"107 116 OFFCURVE",
"159 285 OFFCURVE",
"159 286 CURVE",
"264 283 OFFCURVE",
"326 288 OFFCURVE",
"394 300 CURVE",
"394 300 OFFCURVE",
"446 132 OFFCURVE",
"487 1 CURVE SMOOTH"
);
},
{
closed = 1;
nodes = (
"207 438 OFFCURVE",
"258 614 OFFCURVE",
"272 685 CURVE",
"306 597 OFFCURVE",
"358 417 OFFCURVE",
"381 343 CURVE",
"316 329 OFFCURVE",
"260 326 OFFCURVE",
"174 329 CURVE"
);
},
{
closed = 1;
nodes = (
"304 880 OFFCURVE",
"347 942 OFFCURVE",
"366 972 CURVE SMOOTH",
"382 997 OFFCURVE",
"349 1022 OFFCURVE",
"329 994 CURVE SMOOTH",
"310 968 OFFCURVE",
"266 902 OFFCURVE",
"253 882 CURVE SMOOTH",
"236 856 OFFCURVE",
"271 834 OFFCURVE",
"289 859 CURVE SMOOTH"
);
}
);
width = 543;
},
{
layerId = "7911D52E-6854-4A1B-8A16-F908BFF91E8F";
paths = (
{
closed = 1;
nodes = (
"484 -39 OFFCURVE",
"562 -15 OFFCURVE",
"546 41 CURVE SMOOTH",
"519 134 OFFCURVE",
"368 612 OFFCURVE",
"328 716 CURVE SMOOTH",
"308 768 OFFCURVE",
"242 762 OFFCURVE",
"229 707 CURVE SMOOTH",
"166 442 OFFCURVE",
"62 150 OFFCURVE",
"18 46 CURVE SMOOTH",
"-4 -6 OFFCURVE",
"73 -37 OFFCURVE",
"95 16 CURVE SMOOTH",
"134 111 OFFCURVE",
"172 223 OFFCURVE",
"186 267 CURVE",
"274 265 OFFCURVE",
"330 270 OFFCURVE",
"389 280 CURVE",
"403 233 OFFCURVE",
"434 121 OFFCURVE",
"468 15 CURVE"
);
},
{
closed = 1;
nodes = (
"236 429 OFFCURVE",
"265 530 OFFCURVE",
"285 608 CURVE",
"314 524 OFFCURVE",
"346 424 OFFCURVE",
"365 357 CURVE",
"317 349 OFFCURVE",
"272 346 OFFCURVE",
"211 348 CURVE"
);
},
{
closed = 1;
nodes = (
"337 880 OFFCURVE",
"366 921 OFFCURVE",
"386 952 CURVE SMOOTH",
"415 998 OFFCURVE",
"350 1047 OFFCURVE",
"316 996 CURVE SMOOTH",
"297 968 OFFCURVE",
"267 924 OFFCURVE",
"252 903 CURVE SMOOTH",
"219 857 OFFCURVE",
"287 809 OFFCURVE",
"321 857 CURVE SMOOTH"
);
}
);
width = 562;
}
);
leftKerningGroup = A;
rightKerningGroup = A;
unicode = 00C1;
},
{
glyphname = Abreve;
lastChange = "2020-02-19 17:26:28 +0000";
layers = (
{
layerId = "4692E1D1-BCA0-47EF-98E6-2E6F4483D11B";
paths = (
{
closed = 1;
nodes = (
"464 333 LINE SMOOTH",
"491 336 OFFCURVE",
"489 377 OFFCURVE",
"459 374 CURVE SMOOTH",
"419 370 LINE",
"374 486 OFFCURVE",
"333 603 OFFCURVE",
"292 707 CURVE SMOOTH",
"283 731 OFFCURVE",
"254 728 OFFCURVE",
"247 706 CURVE SMOOTH",
"211 595 OFFCURVE",
"170 471 OFFCURVE",
"126 350 CURVE",
"126 350 OFFCURVE",
"104 349 OFFCURVE",
"87 348 CURVE SMOOTH",
"57 346 OFFCURVE",
"61 306 OFFCURVE",
"88 307 CURVE SMOOTH",
"114 308 LINE",
"81 212 OFFCURVE",
"48 116 OFFCURVE",
"15 21 CURVE SMOOTH",
"6 -6 OFFCURVE",
"46 -17 OFFCURVE",
"55 11 CURVE SMOOTH",
"89 110 OFFCURVE",
"124 209 OFFCURVE",
"159 311 CURVE",
"212 315 OFFCURVE",
"295 319 OFFCURVE",
"389 326 CURVE",
"435 212 OFFCURVE",
"480 94 OFFCURVE",
"520 3 CURVE SMOOTH",
"532 -24 OFFCURVE",
"569 -6 OFFCURVE",
"559 18 CURVE SMOOTH",
"519 108 OFFCURVE",
"477 221 OFFCURVE",
"433 330 CURVE"
);
},
{
closed = 1;
nodes = (
"208 460 OFFCURVE",
"249 586 OFFCURVE",
"271 651 CURVE",
"294 591 OFFCURVE",
"334 475 OFFCURVE",
"374 366 CURVE",
"299 359 OFFCURVE",
"222 354 OFFCURVE",
"171 352 CURVE"
);
},
{
closed = 1;
nodes = (
"161 882 OFFCURVE",
"182 825 OFFCURVE",
"259 825 CURVE SMOOTH",
"346 825 OFFCURVE",
"366 887 OFFCURVE",
"372 917 CURVE SMOOTH",
"377 941 OFFCURVE",
"337 952 OFFCURVE",
"331 923 CURVE SMOOTH",
"327 904 OFFCURVE",
"316 863 OFFCURVE",
"262 862 CURVE SMOOTH",
"214 861 OFFCURVE",
"200 899 OFFCURVE",
"194 919 CURVE SMOOTH",
"186 947 OFFCURVE",
"147 936 OFFCURVE",
"154 909 CURVE SMOOTH"
);
}
);
width = 575;
},
{
layerId = "7911D52E-6854-4A1B-8A16-F908BFF91E8F";
paths = (
{
closed = 1;
nodes = (
"479.174 313.591 LINE SMOOTH",
"531.608 320.615 OFFCURVE",
"528.19 399.164 OFFCURVE",
"471.246 393.585 CURVE SMOOTH",
"446.808 391.19 LINE",
"403.711 502.05 OFFCURVE",
"365.21 594.118 OFFCURVE",
"325.133 693.936 CURVE SMOOTH",
"308.148 736.239 OFFCURVE",
"255.291 730.632 OFFCURVE",
"242.262 692.55 CURVE SMOOTH",
"205.584 585.351 OFFCURVE",
"168.56 487.176 OFFCURVE",
"126.542 369.914 CURVE",
"117.952 368.903 OFFCURVE",
"107.846 368.307 OFFCURVE",
"100.078 367.872 CURVE SMOOTH",
"42.351 364.634 OFFCURVE",
"41.557 288.092 OFFCURVE",
"93.556 287.148 CURVE SMOOTH",
"100.727 287.018 LINE",
"71.044 200.349 OFFCURVE",
"46.359 133.68 OFFCURVE",
"16.676 47.012 CURVE SMOOTH",
"-1.439 -5.462 OFFCURVE",
"77.709 -27.262 OFFCURVE",
"95.316 24.474 CURVE SMOOTH",
"128.162 119.494 OFFCURVE",
"155.237 194.245 OFFCURVE",
"188.511 292.213 CURVE",
"238.62 295.167 OFFCURVE",
"309.506 299.126 OFFCURVE",
"389.762 305.278 CURVE",
"434.731 194.091 OFFCURVE",
"470.313 102.586 OFFCURVE",
"508.65 14.736 CURVE SMOOTH",
"531.415 -36.595 OFFCURVE",
"605.012 -1.584 OFFCURVE",
"584.521 46.124 CURVE SMOOTH",
"548.949 128.943 OFFCURVE",
"514.773 211.406 OFFCURVE",
"474.946 313.158 CURVE"
);
},
{
closed = 1;
nodes = (
"238.296 448.989 OFFCURVE",
"267.858 532.583 OFFCURVE",
"286.894 594.299 CURVE",
"308.656 534.601 OFFCURVE",
"334.486 458.048 OFFCURVE",
"361.802 383.596 CURVE",
"308.85 379.185 OFFCURVE",
"254.452 375.665 OFFCURVE",
"212.894 373.364 CURVE"
);
},
{
closed = 1;
nodes = (
"169.965 855.625 OFFCURVE",
"197.9 807.182 OFFCURVE",
"273.717 807.281 CURVE SMOOTH",
"360.357 807.39 OFFCURVE",
"388.007 861.75 OFFCURVE",
"397.68 892.742 CURVE SMOOTH",
"413.066 942.039 OFFCURVE",
"341.672 969.613 OFFCURVE",
"322.278 911.258 CURVE SMOOTH",
"314.434 887.659 OFFCURVE",
"303.97 877.692 OFFCURVE",
"275.617 876.978 CURVE SMOOTH",
"249.083 876.31 OFFCURVE",
"236.932 892.172 OFFCURVE",
"232.381 907.616 CURVE SMOOTH",
"215.731 964.128 OFFCURVE",
"137.269 938.035 OFFCURVE",
"158.976 883.323 CURVE SMOOTH"
);
}
);
width = 602;
}
);
leftKerningGroup = A;
rightKerningGroup = A;
unicode = 0102;
},
{
glyphname = Acircumflex;
lastChange = "2020-01-19 15:46:52 +0000";
layers = (
{
layerId = "4692E1D1-BCA0-47EF-98E6-2E6F4483D11B";
paths = (
{
closed = 1;
nodes = (
"502 -25 OFFCURVE",
"542 -9 OFFCURVE",
"532 16 CURVE SMOOTH",
"493 116 OFFCURVE",
"456 216 OFFCURVE",
"424 321 CURVE",
"447 323 OFFCURVE",
"466 325 OFFCURVE",
"489 329 CURVE SMOOTH",
"515 334 OFFCURVE",
"510 372 OFFCURVE",
"482 369 CURVE SMOOTH",
"457 366 OFFCURVE",
"428 363 OFFCURVE",
"414 362 CURVE",
"390 435 OFFCURVE",
"329 652 OFFCURVE",
"304.614 740.182 CURVE SMOOTH",
"296 772 OFFCURVE",
"257 773 OFFCURVE",
"248 744 CURVE SMOOTH",
"197 574 OFFCURVE",
"159 458 OFFCURVE",
"128 358 CURVE",
"114 359 OFFCURVE",
"95 360 OFFCURVE",
"78.617 360.948 CURVE SMOOTH",
"49 363 OFFCURVE",
"47 324 OFFCURVE",
"72 320 CURVE SMOOTH",
"86 318 OFFCURVE",
"104 317 OFFCURVE",
"116 316 CURVE",
"85 219 OFFCURVE",
"51 121 OFFCURVE",
"15.992 24.696 CURVE SMOOTH",
"4 -7 OFFCURVE",
"49 -17 OFFCURVE",
"58 10 CURVE SMOOTH",
"93 112 OFFCURVE",
"127 212 OFFCURVE",
"159 314 CURVE",
"214 312 OFFCURVE",
"287.195 311.944 OFFCURVE",
"380.029 317.187 CURVE",
"414 212 OFFCURVE",
"447 112 OFFCURVE",
"490 5 CURVE SMOOTH"
);
},
{
closed = 1;
nodes = (
"200 449 OFFCURVE",
"244 586 OFFCURVE",
"275 696 CURVE",
"304 585 OFFCURVE",
"348 433 OFFCURVE",
"369.029 358.79 CURVE",
"315 355 OFFCURVE",
"243 353 OFFCURVE",
"172 355 CURVE"
);
},
{
closed = 1;
nodes = (
"224 892 OFFCURVE",
"240 917 OFFCURVE",
"269 957 CURVE",
"297 919 OFFCURVE",
"313 896 OFFCURVE",
"342 858 CURVE SMOOTH",
"359 836 OFFCURVE",
"392.14 858.279 OFFCURVE",
"373.755 883.22 CURVE SMOOTH",
"344.586 922.792 OFFCURVE",
"301.631 979.354 OFFCURVE",
"288.168 998.799 CURVE SMOOTH",
"278.851 1012.26 OFFCURVE",
"259.495 1013.62 OFFCURVE",
"248.606 999.121 CURVE SMOOTH",
"231.55 976.404 OFFCURVE",
"195 922 OFFCURVE",
"160 874 CURVE SMOOTH",
"140 847 OFFCURVE",
"178 827 OFFCURVE",
"195 851 CURVE SMOOTH"
);
}
);
width = 548;
},
{
layerId = "7911D52E-6854-4A1B-8A16-F908BFF91E8F";
paths = (
{
closed = 1;
nodes = (
"501 -40 OFFCURVE",
"577 -8 OFFCURVE",
"560 40 CURVE SMOOTH",
"525 137 OFFCURVE",
"496 211 OFFCURVE",
"465 303 CURVE",
"478 304 OFFCURVE",
"490 306 OFFCURVE",
"504.146 308.705 CURVE SMOOTH",
"559 318 OFFCURVE",
"546 394 OFFCURVE",
"494.43 387.989 CURVE SMOOTH",
"469 385 OFFCURVE",
"453 383 OFFCURVE",
"440.499 382.014 CURVE",
"394.498 533.625 OFFCURVE",
"372.813 608.784 OFFCURVE",
"338.326 725.059 CURVE SMOOTH",
"323.559 774.848 OFFCURVE",
"259 777.434 OFFCURVE",
"242.663 729.408 CURVE SMOOTH",
"223.592 673.346 OFFCURVE",
"163 485 OFFCURVE",
"129 378 CURVE",
"119 378 OFFCURVE",
"105 379 OFFCURVE",
"93 380 CURVE SMOOTH",
"37 384 OFFCURVE",
"30.065 307.85 OFFCURVE",
"83 300.777 CURVE SMOOTH",
"90 300 OFFCURVE",
"99 299 OFFCURVE",
"106 299 CURVE",
"68 186 OFFCURVE",
"55.017 155.89 OFFCURVE",
"17.508 51.519 CURVE SMOOTH",
"-3.597 -7.204 OFFCURVE",
"76 -26 OFFCURVE",
"94 24 CURVE SMOOTH",
"126 111 OFFCURVE",
"154 196 OFFCURVE",
"187 294 CURVE",
"243 292 OFFCURVE",
"305 293 OFFCURVE",
"382 297 CURVE",
"416 194 OFFCURVE",
"443 121 OFFCURVE",
"480 18 CURVE SMOOTH"
);
},
{
closed = 1;
nodes = (
"234 445 OFFCURVE",
"264 535 OFFCURVE",
"288.254 621.86 CURVE",
"311.906 535.915 OFFCURVE",
"342 436 OFFCURVE",
"358.733 377.347 CURVE",
"316.357 374.129 OFFCURVE",
"266 372 OFFCURVE",
"213 373 CURVE"
);
},
{
closed = 1;
nodes = (
"247 871 OFFCURVE",
"267 902 OFFCURVE",
"282 925 CURVE",
"297 903 OFFCURVE",
"314 879 OFFCURVE",
"332 855 CURVE SMOOTH",
"364 813 OFFCURVE",
"426 856 OFFCURVE",
"391 903 CURVE SMOOTH",
"362 943 OFFCURVE",
"333 982 OFFCURVE",
"317 1002 CURVE SMOOTH",
"297 1026 OFFCURVE",
"267.582 1028.09 OFFCURVE",
"246.93 1001.13 CURVE SMOOTH",
"228.841 977.519 OFFCURVE",
"203.588 941.28 OFFCURVE",
"169.783 893.764 CURVE SMOOTH",
"133.853 843.262 OFFCURVE",
"199 806 OFFCURVE",
"229 847 CURVE SMOOTH"
);
}
);
width = 576;
}
);
leftKerningGroup = A;
rightKerningGroup = A;
unicode = 00C2;
},
{
glyphname = Adieresis;
lastChange = "2019-12-12 10:58:15 +0000";
layers = (
{
layerId = "4692E1D1-BCA0-47EF-98E6-2E6F4483D11B";
paths = (
{
closed = 1;
nodes = (
"87.265 95.116 OFFCURVE",
"138.362 258.949 OFFCURVE",
"155.147 300.071 CURVE",
"246.451 307.954 OFFCURVE",
"337.554 303.15 OFFCURVE",
"391.72 291.065 CURVE",
"422.601 215.797 OFFCURVE",
"479.891 25.955 OFFCURVE",
"487.196 10.459 CURVE",
"496.757 -15 OFFCURVE",
"539 -5 OFFCURVE",
"525.592 27.538 CURVE",
"501.097 94.707 OFFCURVE",
"322.717 658.027 OFFCURVE",
"297.416 717.291 CURVE SMOOTH",
"286.452 744.382 OFFCURVE",
"253.418 749.234 OFFCURVE",
"240.284 706.753 CURVE SMOOTH",
"194.778 559.578 OFFCURVE",
"35.974 79.293 OFFCURVE",
"14.865 13.659 CURVE",
"7.712 -13 OFFCURVE",
"46.939 -24 OFFCURVE",
"57.791 6.056 CURVE SMOOTH"
);
},
{
closed = 1;
nodes = (
"287.232 347.555 OFFCURVE",
"241.882 347.37 OFFCURVE",
"169.01 343.911 CURVE",
"207.53 467.1 OFFCURVE",
"246.74 593.691 OFFCURVE",
"272.013 672.267 CURVE",
"308.216 566.765 OFFCURVE",
"344.85 445.768 OFFCURVE",
"379.651 336.913 CURVE"
);
},
{
closed = 1;
nodes = (
"254.255 924.856 OFFCURVE",
"209.712 958.194 OFFCURVE",
"187.559 925.935 CURVE SMOOTH",
"164.091 891.76 OFFCURVE",
"215.523 865.602 OFFCURVE",
"234.914 895.267 CURVE SMOOTH"
);
},
{
closed = 1;
nodes = (
"348.712 859.062 OFFCURVE",
"385.347 899.803 OFFCURVE",
"359.247 922.229 CURVE SMOOTH",
"327.97 949.104 OFFCURVE",
"293.209 905.713 OFFCURVE",
"320.562 882.722 CURVE SMOOTH"
);
}
);
width = 542;
},
{
layerId = "7911D52E-6854-4A1B-8A16-F908BFF91E8F";
paths = (
{
closed = 1;
nodes = (
"123.883 102.131 OFFCURVE",
"164.344 227.506 OFFCURVE",
"184.012 281.117 CURVE",
"263.946 287.059 OFFCURVE",
"341.274 283.307 OFFCURVE",
"391.992 273.651 CURVE",
"422.833 194.704 OFFCURVE",
"468.916 42.795 OFFCURVE",
"477.617 22.671 CURVE SMOOTH",
"496.154 -24.181 OFFCURVE",
"577.507 -4.48 OFFCURVE",
"552.932 55.158 CURVE SMOOTH",
"527.532 124.861 OFFCURVE",
"357.817 641.528 OFFCURVE",
"330.658 705.144 CURVE SMOOTH",
"314.004 746.304 OFFCURVE",
"255.421 755.395 OFFCURVE",
"236.025 692.661 CURVE SMOOTH",
"190.576 545.672 OFFCURVE",
"36.808 105.494 OFFCURVE",
"15.674 39.782 CURVE SMOOTH",
"2.016 -11.029 OFFCURVE",
"75.808 -37.908 OFFCURVE",
"96.451 19.264 CURVE SMOOTH"
);
},
{
closed = 1;
nodes = (
"304.351 363.341 OFFCURVE",
"262.008 362.936 OFFCURVE",
"210.434 362.103 CURVE",
"237.67 449.311 OFFCURVE",
"265.7 533.286 OFFCURVE",
"287.371 601.915 CURVE",
"313.867 521.466 OFFCURVE",
"341.412 438.267 OFFCURVE",
"367.137 357.086 CURVE"
);
},
{
closed = 1;
nodes = (
"299.518 934.833 OFFCURVE",
"223.378 991.801 OFFCURVE",
"185.921 937.257 CURVE",
"146.035 879.174 OFFCURVE",
"233.889 834.429 OFFCURVE",
"266.503 884.324 CURVE"
);
},
{
closed = 1;
nodes = (
"370.258 827.307 OFFCURVE",
"433.464 897.587 OFFCURVE",
"387.13 937.398 CURVE",
"335.453 981.802 OFFCURVE",
"275.474 906.974 OFFCURVE",
"322.542 867.412 CURVE"
);
}
);
width = 572;
}
);
leftKerningGroup = A;
rightKerningGroup = A;
unicode = 00C4;
},
{
glyphname = Adotbelow;
lastChange = "2019-04-24 17:32:32 +0000";
layers = (
{
layerId = "4692E1D1-BCA0-47EF-98E6-2E6F4483D11B";
paths = (
{
closed = 1;
nodes = (
"93 105 OFFCURVE",
"139 233 OFFCURVE",
"183 347 CURVE",
"276 348 OFFCURVE",
"366 349 OFFCURVE",
"419 349 CURVE",
"455 247 OFFCURVE",
"499 119 OFFCURVE",
"534 20 CURVE SMOOTH",
"544 -8 OFFCURVE",
"585 4 OFFCURVE",
"575 31 CURVE SMOOTH",
"540 126 OFFCURVE",
"495 253 OFFCURVE",
"462 349 CURVE",
"470 349 OFFCURVE",
"483 349 OFFCURVE",
"486 349 CURVE SMOOTH",
"509 349 OFFCURVE",
"511 390 OFFCURVE",
"483 390 CURVE SMOOTH",
"464 390 OFFCURVE",
"452 390 OFFCURVE",
"452 390 CURVE",
"407 511 OFFCURVE",
"369 633 OFFCURVE",
"333 745 CURVE SMOOTH",
"326 767 OFFCURVE",
"298 768 OFFCURVE",
"288 744 CURVE SMOOTH",
"245 641 OFFCURVE",
"198 504 OFFCURVE",
"152 388 CURVE",
"139 388 OFFCURVE",
"126 388 OFFCURVE",
"114 388 CURVE SMOOTH",
"85 388 OFFCURVE",
"85 346 OFFCURVE",
"111 346 CURVE SMOOTH",
"119 346 OFFCURVE",
"129 346 OFFCURVE",
"138 346 CURVE",
"97 237 OFFCURVE",
"51 120 OFFCURVE",
"16 29 CURVE SMOOTH",
"6 4 OFFCURVE",
"46 -13 OFFCURVE",
"57 15 CURVE SMOOTH"
);
},
{
closed = 1;
nodes = (
"297 -138 OFFCURVE",
"345 -108 OFFCURVE",
"324 -76 CURVE SMOOTH",
"305 -47 OFFCURVE",
"257 -74 OFFCURVE",
"277 -106 CURVE SMOOTH"
);
},
{
closed = 1;
nodes = (
"238 496 OFFCURVE",
"285 627 OFFCURVE",
"309 687 CURVE",
"330 621 OFFCURVE",
"371 496 OFFCURVE",
"407 389 CURVE",
"356 388 OFFCURVE",
"273 387 OFFCURVE",
"198 387 CURVE"
);
}
);
width = 591;
},
{
layerId = "7911D52E-6854-4A1B-8A16-F908BFF91E8F";
paths = (
{
closed = 1;
nodes = (
"124 100 OFFCURVE",
"181 255 OFFCURVE",
"208 328 CURVE",
"289 329 OFFCURVE",
"370 330 OFFCURVE",
"420 330 CURVE",
"427 314 OFFCURVE",
"457 226 OFFCURVE",
"524 33 CURVE SMOOTH",
"542 -19 OFFCURVE",
"619 6 OFFCURVE",
"600 57 CURVE SMOOTH",
"565 152 OFFCURVE",
"533 235 OFFCURVE",
"502 329 CURVE",
"503 329 OFFCURVE",
"506 329 OFFCURVE",
"510 329 CURVE SMOOTH",
"550 329 OFFCURVE",
"559 411 OFFCURVE",
"502 411 CURVE SMOOTH",
"495 411 OFFCURVE",
"484 411 OFFCURVE",
"477 411 CURVE",
"437 517 OFFCURVE",
"399 624 OFFCURVE",
"362 731 CURVE SMOOTH",
"348 771 OFFCURVE",
"298 772 OFFCURVE",
"282 731 CURVE SMOOTH",
"243 631 OFFCURVE",
"197 512 OFFCURVE",
"155 410 CURVE",
"147 410 OFFCURVE",
"131 410 OFFCURVE",
"123 410 CURVE SMOOTH",
"68 410 OFFCURVE",
"65 326 OFFCURVE",
"117 326 CURVE SMOOTH",
"120 326 OFFCURVE",
"121 327 OFFCURVE",
"124 327 CURVE",
"93 242 OFFCURVE",
"56 147 OFFCURVE",
"18 57 CURVE SMOOTH",
"-3 7 OFFCURVE",
"71 -25 OFFCURVE",
"93 27 CURVE SMOOTH"
);
},
{
closed = 1;
nodes = (
"305 -172 OFFCURVE",
"389 -120 OFFCURVE",
"353 -65 CURVE SMOOTH",
"319 -14 OFFCURVE",
"240 -62 OFFCURVE",
"272 -116 CURVE SMOOTH"
);
},
{
closed = 1;
nodes = (
"258 458 OFFCURVE",
"288 536 OFFCURVE",
"321 619 CURVE",
"338 567 OFFCURVE",
"373 473 OFFCURVE",
"392 411 CURVE",
"345 410 OFFCURVE",
"287 410 OFFCURVE",
"240 410 CURVE"
);
}
);
width = 617;
}
);
leftKerningGroup = A;
rightKerningGroup = A;
unicode = 1EA0;
},
{
glyphname = Agrave;
lastChange = "2019-12-12 11:00:01 +0000";
layers = (
{
layerId = "4692E1D1-BCA0-47EF-98E6-2E6F4483D11B";
paths = (
{
closed = 1;
nodes = (
"492.523 -35 OFFCURVE",
"532.045 -19 OFFCURVE",
"521.14 7.725 CURVE SMOOTH",
"488.47 86.342 OFFCURVE",
"447.733 193.052 OFFCURVE",
"409.774 306.689 CURVE",
"415.426 307.336 OFFCURVE",
"427.934 308.952 OFFCURVE",
"441.492 311.002 CURVE SMOOTH",
"467.498 314.932 OFFCURVE",
"460.606 355.797 OFFCURVE",
"433.058 351.979 CURVE SMOOTH",
"418.6 349.976 OFFCURVE",
"404.355 348.449 OFFCURVE",
"397.643 347.856 CURVE",
"357.364 475.378 OFFCURVE",
"324.36 598.031 OFFCURVE",
"303.595 718.058 CURVE SMOOTH",
"296.517 758.973 OFFCURVE",
"252.137 759.257 OFFCURVE",
"242.823 729.443 CURVE SMOOTH",
"148.791 428.447 OFFCURVE",
"80.117 209.139 OFFCURVE",
"15.968 26.165 CURVE SMOOTH",
"4.654 -6 OFFCURVE",
"45.401 -14 OFFCURVE",
"54.921 8.758 CURVE SMOOTH",
"61.573 24.839 OFFCURVE",
"125.867 220.883 OFFCURVE",
"151.953 297.446 CURVE",
"211.752 296.364 OFFCURVE",
"289.209 296.544 OFFCURVE",
"365.719 303.471 CURVE",
"407.116 184.315 OFFCURVE",
"448.845 70.099 OFFCURVE",
"480.065 -5 CURVE SMOOTH"
);
},
{
closed = 1;
nodes = (
"200.216 451.091 OFFCURVE",
"234.137 567.155 OFFCURVE",
"269.689 676.929 CURVE",
"286.164 588.188 OFFCURVE",
"318.346 468.553 OFFCURVE",
"354.176 343.946 CURVE",
"293.435 337.801 OFFCURVE",
"218.244 336.83 OFFCURVE",
"163.66 338.302 CURVE"
);
},
{
closed = 1;
nodes = (
"282.589 819.885 OFFCURVE",
"313.725 847.082 OFFCURVE",
"296.051 868.387 CURVE SMOOTH",
"272.997 896.178 OFFCURVE",
"226.982 953.558 OFFCURVE",
"202.2 983.627 CURVE SMOOTH",
"178.217 1012.72 OFFCURVE",
"148.93 982.541 OFFCURVE",
"165.517 962.452 CURVE SMOOTH",
"193.235 928.878 OFFCURVE",
"239.588 869.89 OFFCURVE",
"263.749 841.794 CURVE SMOOTH"
);
}
);
width = 537;
},
{
layerId = "7911D52E-6854-4A1B-8A16-F908BFF91E8F";
paths = (
{
closed = 1;
nodes = (
"491.764 -46.612 OFFCURVE",
"566.508 -15.559 OFFCURVE",
"545.089 35.281 CURVE SMOOTH",
"514.691 107.433 OFFCURVE",
"484.456 182.53 OFFCURVE",
"448.558 288.016 CURVE",
"453.839 288.401 OFFCURVE",
"461.94 288.997 OFFCURVE",
"464.913 289.227 CURVE SMOOTH",
"507.87 292.546 OFFCURVE",
"504.335 375.34 OFFCURVE",
"444.744 370.79 CURVE SMOOTH",
"437.747 370.252 OFFCURVE",
"428.528 369.614 OFFCURVE",
"423.526 369.282 CURVE",
"383.056 501.235 OFFCURVE",
"358.394 598.386 OFFCURVE",
"334.733 701.467 CURVE SMOOTH",
"320.313 764.293 OFFCURVE",
"252.76 765.331 OFFCURVE",
"237.164 715.407 CURVE SMOOTH",
"143.132 414.411 OFFCURVE",
"82.563 235.438 OFFCURVE",
"17.526 52.782 CURVE SMOOTH",
"-3.743 -6.951 OFFCURVE",
"77.494 -23.339 OFFCURVE",
"93.803 21.04 CURVE SMOOTH",
"100.389 38.96 OFFCURVE",
"151.29 192.282 OFFCURVE",
"178.643 277.218 CURVE",
"233.265 276.492 OFFCURVE",
"300.255 277.012 OFFCURVE",
"366.367 282.233 CURVE",
"405.134 167.239 OFFCURVE",
"438.93 78.724 OFFCURVE",
"469.028 7.323 CURVE SMOOTH"
);
},
{
closed = 1;
nodes = (
"229.013 437.031 OFFCURVE",
"255.452 521.404 OFFCURVE",
"279.199 600.533 CURVE",
"296.485 529.964 OFFCURVE",
"318.62 444.215 OFFCURVE",
"342.707 360.743 CURVE",
"298.762 356.329 OFFCURVE",
"247.885 355.34 OFFCURVE",
"203.374 356.797 CURVE"
);
},
{
closed = 1;
nodes = (
"289.071 796.825 OFFCURVE",
"349.993 850.029 OFFCURVE",
"315.875 891.156 CURVE SMOOTH",
"292.927 918.82 OFFCURVE",
"266.932 954.175 OFFCURVE",
"242.065 985.347 CURVE SMOOTH",
"200.744 1037.15 OFFCURVE",
"140.984 982.606 OFFCURVE",
"173.526 940.718 CURVE SMOOTH",
"199.323 907.511 OFFCURVE",
"229.567 867.185 OFFCURVE",
"253.016 838.754 CURVE"
);
}
);
width = 563;
}
);
leftKerningGroup = A;
rightKerningGroup = A;
unicode = 00C0;
},
{
glyphname = Amacron;
lastChange = "2019-02-20 14:22:16 +0000";
layers = (
{
layerId = "4692E1D1-BCA0-47EF-98E6-2E6F4483D11B";
paths = (
{
closed = 1;
nodes = (
"239.779 718.003 OFFCURVE",
"173.238 522.54 OFFCURVE",
"124.459 377.916 CURVE SMOOTH",
"117.03 378.195 OFFCURVE",
"99.983 378.937 OFFCURVE",
"80.519 379.946 CURVE SMOOTH",
"46.53 381.707 OFFCURVE",
"47.564 338.533 OFFCURVE",
"76.212 336.069 CURVE SMOOTH",
"87.847 335.067 OFFCURVE",
"104.003 334.923 OFFCURVE",
"112.945 335.094 CURVE",
"15.31 15.098 LINE SMOOTH",
"6.138 -14.963 OFFCURVE",
"47.834 -25 OFFCURVE",
"56.663 3.781 CURVE SMOOTH",
"84.064 93.682 OFFCURVE",
"123.05 223.506 OFFCURVE",
"156.25 333.125 CURVE",
"224.975 331.631 OFFCURVE",
"312.604 331.054 OFFCURVE",
"383.12 333.018 CURVE",
"383.12 332.307 OFFCURVE",
"484.215 20.941 OFFCURVE",
"491.669 3.519 CURVE SMOOTH",
"503.1 -23 OFFCURVE",
"541.344 -9 OFFCURVE",
"532.53 17.074 CURVE SMOOTH",
"425.979 334.587 LINE",
"432.627 334.819 OFFCURVE",
"447.719 335.499 OFFCURVE",
"464.695 336.506 CURVE SMOOTH",
"489.905 338.003 OFFCURVE",
"489.881 379.482 OFFCURVE",
"460.378 378.707 CURVE SMOOTH",
"444.509 378.29 OFFCURVE",
"425.828 377.414 OFFCURVE",
"416.163 376.87 CURVE",
"369.144 499.618 OFFCURVE",
"298.531 700.06 OFFCURVE",
"289.932 722.738 CURVE SMOOTH",
"281.511 744.942 OFFCURVE",
"251.766 742.841 OFFCURVE",
"244.864 728.144 CURVE SMOOTH"
);
},
{
closed = 1;
nodes = (
"293.31 597.026 OFFCURVE",
"331.313 492.632 OFFCURVE",
"371.248 375.902 CURVE",
"289.657 373.154 OFFCURVE",
"236.633 373.2 OFFCURVE",
"167.768 374.606 CURVE",
"205.095 489.136 OFFCURVE",
"246.937 612.621 OFFCURVE",
"267.314 665.762 CURVE"
);
},
{
closed = 1;
nodes = (
"171.829 915.799 LINE SMOOTH",
"138.717 914.74 OFFCURVE",
"144.026 875.338 OFFCURVE",
"173.322 876.358 CURVE SMOOTH",
"352.818 882.606 LINE SMOOTH",
"383.369 883.669 OFFCURVE",
"380.194 922.463 OFFCURVE",
"351.11 921.533 CURVE SMOOTH"
);
}
);
width = 548;
},
{
layerId = "7911D52E-6854-4A1B-8A16-F908BFF91E8F";
paths = (
{
closed = 1;
nodes = (
"216.813 654.288 OFFCURVE",
"142.498 448.753 OFFCURVE",
"125.544 397.902 CURVE",
"120.768 397.992 OFFCURVE",
"109.158 398.329 OFFCURVE",
"94.883 398.919 CURVE SMOOTH",
"33.219 401.467 OFFCURVE",
"29.934 318.685 OFFCURVE",
"83.826 316.143 CURVE SMOOTH",
"89.359 315.882 OFFCURVE",
"97.751 315.339 OFFCURVE",
"102.717 315.339 CURVE",
"16.492 40.88 LINE SMOOTH",
"-1.143 -15.253 OFFCURVE",
"80.031 -34.846 OFFCURVE",
"96.112 17.916 CURVE SMOOTH",
"122.349 103.999 OFFCURVE",
"154.235 206.574 OFFCURVE",
"186.336 313.836 CURVE",
"248.872 312.784 OFFCURVE",
"319.201 313.132 OFFCURVE",
"381.966 314.635 CURVE",
"401.888 252.884 OFFCURVE",
"456.804 81.558 OFFCURVE",
"480.61 15.652 CURVE SMOOTH",
"498.987 -35.226 OFFCURVE",
"574.877 -7.002 OFFCURVE",
"557.805 43.479 CURVE SMOOTH",
"465.696 315.835 LINE",
"469.548 316.041 OFFCURVE",
"475.737 316.276 OFFCURVE",
"480.208 316.541 CURVE SMOOTH",
"531.509 319.528 OFFCURVE",
"534.326 400.548 OFFCURVE",
"476.181 398.7 CURVE SMOOTH",
"466.221 398.378 OFFCURVE",
"451.076 397.971 OFFCURVE",
"438.649 397.971 CURVE",
"394.233 517.179 OFFCURVE",
"381.169 555.308 OFFCURVE",
"322.961 709.829 CURVE SMOOTH",
"307.9 749.811 OFFCURVE",
"254.741 745.715 OFFCURVE",
"241.089 716.646 CURVE SMOOTH"
);
},
{
closed = 1;
nodes = (
"303.523 547.424 OFFCURVE",
"327.013 475.748 OFFCURVE",
"353.85 395.052 CURVE",
"297.469 393.468 OFFCURVE",
"262.337 393.355 OFFCURVE",
"213.516 394.112 CURVE",
"238.193 472.406 OFFCURVE",
"262.006 547.948 OFFCURVE",
"281.86 606.038 CURVE"
);
},
{
closed = 1;
nodes = (
"185.518 933.789 LINE SMOOTH",
"124.05 931.823 OFFCURVE",
"134.69 857.792 OFFCURVE",
"188.346 859.37 CURVE SMOOTH",
"366.842 864.618 LINE SMOOTH",
"424.583 866.316 OFFCURVE",
"419.153 941.261 OFFCURVE",
"364.799 939.523 CURVE SMOOTH"
);
}
);
width = 574;
}
);
leftKerningGroup = A;
rightKerningGroup = A;
unicode = 0100;
},
{
glyphname = Aogonek;
lastChange = "2026-01-28 12:42:43 +0000";
layers = (
{
anchors = (
{
name = top;
position = "{284, 742}";
}
);
layerId = "4692E1D1-BCA0-47EF-98E6-2E6F4483D11B";
paths = (
{
closed = 1;
nodes = (
"611.681 -197 OFFCURVE",
"602.785 -162.953 OFFCURVE",
"577.57 -170 CURVE SMOOTH",
"531.052 -183 OFFCURVE",
"483.266 -176 OFFCURVE",
"480.855 -117 CURVE SMOOTH",
"479.343 -80 OFFCURVE",
"515.454 -58 OFFCURVE",
"549.861 -46 CURVE SMOOTH",
"573.768 -38 OFFCURVE",
"565.159 0.757 OFFCURVE",
"535.162 -9 CURVE",
"507.77 51.846 OFFCURVE",
"461.491 192.064 OFFCURVE",
"426.103 306.838 CURVE",
"431.13 306.966 OFFCURVE",
"443.32 307.675 OFFCURVE",
"458.259 309.135 CURVE SMOOTH",
"484.409 311.691 OFFCURVE",
"483.251 353.512 OFFCURVE",
"454.461 351.97 CURVE SMOOTH",
"432.108 350.774 OFFCURVE",
"419.146 350.122 OFFCURVE",
"415.604 349.965 CURVE",
"384.09 457.381 OFFCURVE",
"340.9 618.878 OFFCURVE",
"316.638 716.429 CURVE SMOOTH",
"308.482 749.222 OFFCURVE",
"267.535 750.837 OFFCURVE",
"257.059 720.826 CURVE SMOOTH",
"215.037 600.441 OFFCURVE",
"162.553 450.717 OFFCURVE",
"123.754 344.234 CURVE",
"118.242 344.234 OFFCURVE",
"97.347 343.63 OFFCURVE",
"84.528 343.975 CURVE SMOOTH",
"56 344.744 OFFCURVE",
"55.209 301.534 OFFCURVE",
"83.943 301.439 CURVE SMOOTH",
"92.874 301.41 OFFCURVE",
"103.804 301.16 OFFCURVE",
"112.735 301.02 CURVE",
"81.464 207.846 OFFCURVE",
"50.768 118.126 OFFCURVE",
"15.922 22.498 CURVE SMOOTH",
"4.64 -8 OFFCURVE",
"46.297 -16 OFFCURVE",
"55.975 10.191 CURVE SMOOTH",
"91.418 107.215 OFFCURVE",
"123.051 203.641 OFFCURVE",
"156.773 300.424 CURVE",
"252.215 301.095 OFFCURVE",
"293.259 301.836 OFFCURVE",
"381.752 306.163 CURVE",
"417.444 191.104 OFFCURVE",
"468.47 42.746 OFFCURVE",
"496.395 -24 CURVE",
"471.203 -37.33 OFFCURVE",
"438.597 -72.28 OFFCURVE",
"440.726 -119 CURVE SMOOTH",
"445.194 -217 OFFCURVE",
"540.924 -223 OFFCURVE",
"587.175 -206 CURVE SMOOTH"
);
},
{
closed = 1;
nodes = (
"196.324 416.924 OFFCURVE",
"254.072 592.874 OFFCURVE",
"284.26 685.419 CURVE",
"302.35 612.325 OFFCURVE",
"342.44 458.231 OFFCURVE",
"371.53 348.137 CURVE",
"295.434 343.323 OFFCURVE",
"249.902 342.646 OFFCURVE",
"170.274 341.646 CURVE"
);
}
);
width = 538;
},
{
anchors = (
{
name = top;
position = "{295, 742}";
}
);
layerId = "7911D52E-6854-4A1B-8A16-F908BFF91E8F";
paths = (
{
closed = 1;
nodes = (
"645.894 -187.344 OFFCURVE",
"625.925 -116.908 OFFCURVE",
"576.823 -132.957 CURVE SMOOTH",
"539.268 -145.232 OFFCURVE",
"508.413 -138.114 OFFCURVE",
"505.202 -97.183 CURVE SMOOTH",
"503.234 -72.099 OFFCURVE",
"531.198 -53.887 OFFCURVE",
"561.811 -42.884 CURVE SMOOTH",
"604.016 -27.716 OFFCURVE",
"594.191 32.413 OFFCURVE",
"551.527 34.263 CURVE",
"527.354 95.797 OFFCURVE",
"494.236 188.695 OFFCURVE",
"463.868 288.345 CURVE",
"466.486 288.348 OFFCURVE",
"471.99 288.523 OFFCURVE",
"474.824 288.8 CURVE SMOOTH",
"525.779 293.781 OFFCURVE",
"522.277 374.915 OFFCURVE",
"466.755 371.941 CURVE SMOOTH",
"456.918 371.415 OFFCURVE",
"447.409 371.021 OFFCURVE",
"441.747 370.726 CURVE",
"410.788 477.472 OFFCURVE",
"375.516 608.357 OFFCURVE",
"349.411 701.256 CURVE SMOOTH",
"335.105 752.168 OFFCURVE",
"268.842 755.049 OFFCURVE",
"251.541 707.417 CURVE SMOOTH",
"209.2 590.85 OFFCURVE",
"165.254 468.345 OFFCURVE",
"128.032 363.021 CURVE",
"121.106 363.021 OFFCURVE",
"107.356 363.034 OFFCURVE",
"98.43 362.968 CURVE SMOOTH",
"43.475 362.563 OFFCURVE",
"38.957 281.622 OFFCURVE",
"94.241 281.439 CURVE SMOOTH",
"95.617 281.428 OFFCURVE",
"100.019 281.436 OFFCURVE",
"101.413 281.434 CURVE",
"73.144 197.534 OFFCURVE",
"49.032 135.892 OFFCURVE",
"17.495 49.345 CURVE SMOOTH",
"-3.812 -9.126 OFFCURVE",
"78.548 -24.788 OFFCURVE",
"96.099 23.259 CURVE SMOOTH",
"130.048 116.193 OFFCURVE",
"156.443 189.358 OFFCURVE",
"188.396 281.528 CURVE",
"268.744 282.14 OFFCURVE",
"304.363 282.954 OFFCURVE",
"377.63 286.445 CURVE",
"410.524 179.608 OFFCURVE",
"448.404 72.869 OFFCURVE",
"476.556 2.999 CURVE",
"455.677 -13.498 OFFCURVE",
"423.714 -47.323 OFFCURVE",
"426.111 -99.911 CURVE SMOOTH",
"431.396 -215.838 OFFCURVE",
"549.238 -223.224 OFFCURVE",
"599.439 -204.772 CURVE"
);
},
{
closed = 1;
nodes = (
"236.917 429.289 OFFCURVE",
"269.22 526.318 OFFCURVE",
"295.148 608.493 CURVE",
"313.584 531.319 OFFCURVE",
"334.495 443.709 OFFCURVE",
"355.328 366.641 CURVE",
"304.217 363.65 OFFCURVE",
"268.669 362.765 OFFCURVE",
"214.751 362.013 CURVE"
);
}
);
width = 562;
}
);
leftKerningGroup = A;
rightKerningGroup = A;
unicode = 0104;
},
{
glyphname = Aring;
lastChange = "2020-02-26 17:49:05 +0000";
layers = (
{
layerId = "4692E1D1-BCA0-47EF-98E6-2E6F4483D11B";
paths = (
{
closed = 1;
nodes = (
"84.308 66.562 OFFCURVE",
"138.015 200.559 OFFCURVE",
"168.265 275.149 CURVE",
"221.421 274.868 OFFCURVE",
"311 277.349 OFFCURVE",
"387.635 289.285 CURVE",
"412.429 210.975 OFFCURVE",
"451.881 84.493 OFFCURVE",
"493.231 -4 CURVE SMOOTH",
"509.17 -38 OFFCURVE",
"544.579 -14 OFFCURVE",
"534.141 9.539 CURVE SMOOTH",
"432.323 244.011 OFFCURVE",
"375.644 485.073 OFFCURVE",
"341.179 744.385 CURVE SMOOTH",
"338.438 765.004 OFFCURVE",
"309.731 772.195 OFFCURVE",
"298.878 744.145 CURVE SMOOTH",
"280.637 697.003 OFFCURVE",
"136.444 309.735 OFFCURVE",
"16.049 9.314 CURVE SMOOTH",
"4.393 -19.773 OFFCURVE",
"45.819 -31 OFFCURVE",
"55.925 -6 CURVE SMOOTH"
);
},
{
closed = 1;
nodes = (
"229.039 440.98 OFFCURVE",
"271.653 549.591 OFFCURVE",
"310.514 657.21 CURVE",
"329.933 536.294 OFFCURVE",
"346.556 457.385 OFFCURVE",
"376.284 331.483 CURVE",
"308.042 320.63 OFFCURVE",
"254.35 318.088 OFFCURVE",
"184.28 318.351 CURVE"
);
},
{
closed = 1;
nodes = (
"359.661 858.66 OFFCURVE",
"400.68 880.379 OFFCURVE",
"404.399 934.82 CURVE SMOOTH",
"407.196 975.759 OFFCURVE",
"383.975 1019.75 OFFCURVE",
"330.217 1019.88 CURVE SMOOTH",
"277.735 1020.01 OFFCURVE",
"247.347 980.212 OFFCURVE",
"245.295 936.798 CURVE SMOOTH",
"243.373 896.138 OFFCURVE",
"272.19 859.173 OFFCURVE",
"321.809 858.882 CURVE SMOOTH"
);
},
{
closed = 1;
nodes = (
"293.37 894.328 OFFCURVE",
"280.478 918.322 OFFCURVE",
"282.729 939.544 CURVE SMOOTH",
"285.203 962.864 OFFCURVE",
"303.187 984.041 OFFCURVE",
"328.495 983.422 CURVE SMOOTH",
"361.681 982.611 OFFCURVE",
"369.42 958.007 OFFCURVE",
"368.449 937.747 CURVE SMOOTH",
"367.292 913.599 OFFCURVE",
"351.946 894.625 OFFCURVE",
"323.744 894.482 CURVE SMOOTH"
);
}
);
width = 550;
},
{
layerId = "7911D52E-6854-4A1B-8A16-F908BFF91E8F";
paths = (
{
closed = 1;
nodes = (
"121.957 75.31 OFFCURVE",
"164.453 178.891 OFFCURVE",
"194.312 256.139 CURVE",
"249.503 256.318 OFFCURVE",
"320.841 258.908 OFFCURVE",
"386.268 268.049 CURVE",
"410.217 189.204 OFFCURVE",
"441.545 93.299 OFFCURVE",
"477.686 10.533 CURVE SMOOTH",
"504.577 -51.048 OFFCURVE",
"576.105 -14.25 OFFCURVE",
"556.999 35.646 CURVE SMOOTH",
"467.097 270.426 OFFCURVE",
"411.381 468.354 OFFCURVE",
"374.579 727.02 CURVE SMOOTH",
"368.737 768.081 OFFCURVE",
"305.682 778.983 OFFCURVE",
"287.8 726.362 CURVE SMOOTH",
"267.012 665.189 OFFCURVE",
"136.377 328.942 OFFCURVE",
"17.892 36.324 CURVE SMOOTH",
"-4.464 -18.888 OFFCURVE",
"75.946 -40.734 OFFCURVE",
"95.042 6.504 CURVE SMOOTH"
);
},
{
closed = 1;
nodes = (
"253.919 419.557 OFFCURVE",
"290.233 506.869 OFFCURVE",
"316.891 588.674 CURVE",
"329.699 508.13 OFFCURVE",
"346.88 431.701 OFFCURVE",
"367.415 345.051 CURVE",
"319.198 338.324 OFFCURVE",
"273.482 335.886 OFFCURVE",
"223.522 335.42 CURVE"
);
},
{
closed = 1;
nodes = (
"385.149 838.631 OFFCURVE",
"440.449 867.912 OFFCURVE",
"444.927 933.457 CURVE SMOOTH",
"448.111 980.068 OFFCURVE",
"416.623 1039.72 OFFCURVE",
"350.84 1039.88 CURVE SMOOTH",
"288.436 1040.03 OFFCURVE",
"248.238 987.39 OFFCURVE",
"245.892 937.742 CURVE SMOOTH",
"243.526 887.686 OFFCURVE",
"280.952 839.242 OFFCURVE",
"342.266 838.882 CURVE SMOOTH"
);
},
{
closed = 1;
nodes = (
"323.532 907.44 OFFCURVE",
"315.053 921.177 OFFCURVE",
"316.714 936.831 CURVE SMOOTH",
"318.66 955.179 OFFCURVE",
"332.325 970.236 OFFCURVE",
"349.013 969.828 CURVE SMOOTH",
"369.854 969.319 OFFCURVE",
"375.966 955.907 OFFCURVE",
"375.125 938.348 CURVE SMOOTH",
"374.222 919.503 OFFCURVE",
"363.917 907.645 OFFCURVE",
"343.537 907.541 CURVE SMOOTH"
);
}
);
width = 574;
}
);
leftKerningGroup = A;
rightKerningGroup = A;
unicode = 00C5;
},
{
glyphname = Aringacute;
lastChange = "2019-02-20 14:22:37 +0000";
layers = (
{
layerId = "4692E1D1-BCA0-47EF-98E6-2E6F4483D11B";
paths = (
{
closed = 1;
nodes = (
"502.178 -23.031 OFFCURVE",
"542.215 -8.745 OFFCURVE",
"532.68 17.074 CURVE SMOOTH",
"426.129 305.587 LINE",
"432.777 305.819 OFFCURVE",
"447.059 306.499 OFFCURVE",
"461.845 307.506 CURVE SMOOTH",
"487.041 309.223 OFFCURVE",
"488.029 349.56 OFFCURVE",
"458.528 348.707 CURVE SMOOTH",
"444.119 348.29 OFFCURVE",
"425.978 347.414 OFFCURVE",
"416.313 346.87 CURVE",
"371.294 469.618 OFFCURVE",
"298.681 700.06 OFFCURVE",
"290.082 722.738 CURVE SMOOTH",
"281.661 744.942 OFFCURVE",
"250.58 743.726 OFFCURVE",
"246.014 728.144 CURVE SMOOTH",
"229.048 670.252 OFFCURVE",
"160.31 458.136 OFFCURVE",
"124.609 346.916 CURVE",
"116.746 347.137 OFFCURVE",
"99.397 347.84 OFFCURVE",
"80.669 348.946 CURVE SMOOTH",
"49.684 350.776 OFFCURVE",
"49.714 310.533 OFFCURVE",
"76.362 308.069 CURVE SMOOTH",
"87.99 306.994 OFFCURVE",
"104.149 306.31 OFFCURVE",
"113.095 306.094 CURVE",
"80.55 209.095 OFFCURVE",
"48.005 112.097 OFFCURVE",
"15.46 15.098 CURVE SMOOTH",
"5.463 -14.699 OFFCURVE",
"49.744 -24.925 OFFCURVE",
"58.813 3.781 CURVE SMOOTH",
"87.214 93.682 OFFCURVE",
"121.2 194.506 OFFCURVE",
"157.4 304.125 CURVE",
"226.125 302.631 OFFCURVE",
"311.754 302.054 OFFCURVE",
"382.27 304.018 CURVE",
"382.27 303.307 OFFCURVE",
"483.365 20.941 OFFCURVE",
"490.819 3.519 CURVE SMOOTH"
);
},
{
closed = 1;
nodes = (
"201.023 449.786 OFFCURVE",
"236.256 560.214 OFFCURVE",
"268.488 664.641 CURVE",
"303.428 557.214 OFFCURVE",
"336.369 451.786 OFFCURVE",
"372.309 344.359 CURVE",
"308.136 342.359 OFFCURVE",
"234.964 342.359 OFFCURVE",
"167.791 344.359 CURVE"
);
},
{
closed = 1;
nodes = (
"244.569 847.784 OFFCURVE",
"232.341 869.355 OFFCURVE",
"233.519 889.444 CURVE SMOOTH",
"234.64 908.557 OFFCURVE",
"248.549 928.076 OFFCURVE",
"271.421 928.742 CURVE SMOOTH",
"302.71 929.653 OFFCURVE",
"315.522 908.18 OFFCURVE",
"314.961 891.043 CURVE SMOOTH",
"314.084 864.287 OFFCURVE",
"297.775 846.794 OFFCURVE",
"274.195 847.233 CURVE SMOOTH"
);
},
{
closed = 1;
nodes = (
"310.752 813.488 OFFCURVE",
"348.356 837.928 OFFCURVE",
"350.112 891.359 CURVE SMOOTH",
"351.043 919.697 OFFCURVE",
"335.464 945.58 OFFCURVE",
"307.127 957.193 CURVE",
"314.938 974.744 OFFCURVE",
"320.906 989.51 OFFCURVE",
"325.548 1000.483 CURVE SMOOTH",
"334.334 1021.253 OFFCURVE",
"303.758 1037.674 OFFCURVE",
"292.343 1013.388 CURVE SMOOTH",
"285.931 999.746 OFFCURVE",
"279.874 985.344 OFFCURVE",
"269.777 963.606 CURVE",
"221.349 962.405 OFFCURVE",
"199.02 924.964 OFFCURVE",
"198.212 885.37 CURVE SMOOTH",
"197.429 846.988 OFFCURVE",
"225.34 814.22 OFFCURVE",
"274.107 813.802 CURVE SMOOTH"
);
}
);
width = 548;
},
{
layerId = "7911D52E-6854-4A1B-8A16-F908BFF91E8F";
paths = (
{
closed = 1;
nodes = (
"500.562 -36.392 OFFCURVE",
"574.481 -8.043 OFFCURVE",
"555.161 44.003 CURVE SMOOTH",
"465.701 285 LINE",
"469.185 284.879 OFFCURVE",
"473.677 285.174 OFFCURVE",
"479.151 285.536 CURVE SMOOTH",
"532.856 289.091 OFFCURVE",
"527.744 370.262 OFFCURVE",
"473.67 368.699 CURVE SMOOTH",
"464.808 368.442 OFFCURVE",
"451.411 368.048 OFFCURVE",
"443.69 367.689 CURVE",
"433.425 397 OFFCURVE",
"331.006 682.451 OFFCURVE",
"321.503 708.829 CURVE SMOOTH",
"307.127 748.734 OFFCURVE",
"248.473 750.769 OFFCURVE",
"236.541 712.768 CURVE SMOOTH",
"219.208 657.568 OFFCURVE",
"163.169 481.238 OFFCURVE",
"123.468 367.8 CURVE",
"116.666 367.891 OFFCURVE",
"105.637 368.455 OFFCURVE",
"91.568 368.911 CURVE SMOOTH",
"33.938 370.777 OFFCURVE",
"31.014 292.524 OFFCURVE",
"86.241 287.154 CURVE SMOOTH",
"91.579 286.634 OFFCURVE",
"95.234 286.1 OFFCURVE",
"98.756 286 CURVE",
"84.959 244.303 OFFCURVE",
"62.547 171.292 OFFCURVE",
"17.219 42.46 CURVE SMOOTH",
"-2.794 -14.421 OFFCURVE",
"76.225 -35.166 OFFCURVE",
"94.604 18.756 CURVE SMOOTH",
"146.527 171.092 OFFCURVE",
"159.711 216.129 OFFCURVE",
"182.396 284.811 CURVE",
"257.18 283.59 OFFCURVE",
"298.096 283.055 OFFCURVE",
"380.946 284.397 CURVE",
"404.022 215.929 OFFCURVE",
"472.229 32.478 OFFCURVE",
"479.151 15.652 CURVE SMOOTH"
);
},
{
closed = 1;
nodes = (
"231.324 443.044 OFFCURVE",
"258.579 520.719 OFFCURVE",
"281.833 598.394 CURVE",
"306.604 520.719 OFFCURVE",
"332.375 442.044 OFFCURVE",
"356.146 364.369 CURVE",
"296.121 362.369 OFFCURVE",
"263.095 363.369 OFFCURVE",
"206.07 365.369 CURVE"
);
},
{
closed = 1;
nodes = (
"265.702 858.072 OFFCURVE",
"254.572 869.459 OFFCURVE",
"255.683 888.4 CURVE SMOOTH",
"256.674 905.313 OFFCURVE",
"268.488 917.873 OFFCURVE",
"282.71 918.286 CURVE SMOOTH",
"304.685 918.927 OFFCURVE",
"316.72 908.255 OFFCURVE",
"316.234 893.397 CURVE SMOOTH",
"315.466 869.973 OFFCURVE",
"304.091 857.358 OFFCURVE",
"286.452 857.687 CURVE SMOOTH"
);
},
{
closed = 1;
nodes = (
"339.747 794.339 OFFCURVE",
"379.935 833.317 OFFCURVE",
"381.821 890.702 CURVE SMOOTH",
"382.894 923.369 OFFCURVE",
"367.655 951.181 OFFCURVE",
"342.485 967.654 CURVE",
"346.694 976.703 OFFCURVE",
"348.963 985.59 OFFCURVE",
"352.328 992.89 CURVE SMOOTH",
"371.535 1034.564 OFFCURVE",
"311.494 1062.323 OFFCURVE",
"289.92 1020.69 CURVE SMOOTH",
"284.439 1010.113 OFFCURVE",
"280.221 1000.073 OFFCURVE",
"272.206 982.729 CURVE",
"223.295 976.446 OFFCURVE",
"191.028 939.283 OFFCURVE",
"189.936 885.778 CURVE SMOOTH",
"188.867 833.371 OFFCURVE",
"229.056 795.288 OFFCURVE",
"285.656 794.803 CURVE SMOOTH"
);
}
);
width = 572;
}
);
leftKerningGroup = A;
rightKerningGroup = A;
unicode = 01FA;
},
{
glyphname = Atilde;
lastChange = "2019-03-20 19:09:43 +0000";
layers = (
{
layerId = "4692E1D1-BCA0-47EF-98E6-2E6F4483D11B";
paths = (
{
closed = 1;
nodes = (
"149.512 289.36 LINE",
"404.659 283.797 LINE",
"499.057 5.316 LINE SMOOTH",
"507.71 -20 OFFCURVE",
"550.878 -11 OFFCURVE",
"539.633 19.604 CURVE SMOOTH",
"520.971 70.469 OFFCURVE",
"358.191 564.335 OFFCURVE",
"305.448 720.753 CURVE SMOOTH",
"295.831 749.275 OFFCURVE",
"259.771 752.417 OFFCURVE",
"246.133 713.665 CURVE SMOOTH",
"192.719 561.891 OFFCURVE",
"37.983 85.095 OFFCURVE",
"15.39 16.995 CURVE SMOOTH",
"6.137 -11 OFFCURVE",
"45.742 -25 OFFCURVE",
"55.344 3.753 CURVE SMOOTH"
);
},
{
closed = 1;
nodes = (
"163.787 331.67 LINE",
"277.157 676.726 LINE",
"392.569 326.401 LINE"
);
},
{
closed = 1;
nodes = (
"416.781 873.533 OFFCURVE",
"437.041 915.361 OFFCURVE",
"451.111 949.469 CURVE SMOOTH",
"462.554 977.208 OFFCURVE",
"422.354 991.01 OFFCURVE",
"413.947 964.222 CURVE SMOOTH",
"405.442 937.119 OFFCURVE",
"388.702 908.17 OFFCURVE",
"352.727 909.578 CURVE SMOOTH",
"303.981 911.486 OFFCURVE",
"293.239 978.526 OFFCURVE",
"222.336 979.33 CURVE SMOOTH",
"173.236 979.887 OFFCURVE",
"145.196 950.07 OFFCURVE",
"136.148 923.956 CURVE SMOOTH",
"127.339 898.531 OFFCURVE",
"163.358 884.793 OFFCURVE",
"174.603 908.862 CURVE SMOOTH",
"181.28 923.152 OFFCURVE",
"197.116 942.453 OFFCURVE",
"221.106 941.81 CURVE SMOOTH",
"276.167 940.335 OFFCURVE",
"284.302 876.805 OFFCURVE",
"350.707 875.165 CURVE SMOOTH"
);
}
);
width = 556;
},
{
layerId = "7911D52E-6854-4A1B-8A16-F908BFF91E8F";
paths = (
{
closed = 1;
nodes = (
"175.973 269.042 LINE",
"400.316 264.107 LINE",
"481.216 18.895 LINE SMOOTH",
"497.115 -29.294 OFFCURVE",
"580.887 -11.686 OFFCURVE",
"559.506 46.502 CURVE SMOOTH",
"540.962 97.046 OFFCURVE",
"388.265 550.661 OFFCURVE",
"335.5 707.143 CURVE SMOOTH",
"320.395 751.942 OFFCURVE",
"258.506 757.528 OFFCURVE",
"238.368 700.304 CURVE SMOOTH",
"184.872 548.298 OFFCURVE",
"39.101 111.331 OFFCURVE",
"16.528 43.293 CURVE SMOOTH",
"-0.901 -9.239 OFFCURVE",
"76.86 -36.743 OFFCURVE",
"94.415 17.418 CURVE SMOOTH"
);
},
{
closed = 1;
nodes = (
"200.305 346.044 LINE",
"287.283 612.73 LINE",
"377.81 342.048 LINE"
);
},
{
closed = 1;
nodes = (
"442.557 854.892 OFFCURVE",
"467.038 907.14 OFFCURVE",
"480.7 941.842 CURVE SMOOTH",
"501.625 994.99 OFFCURVE",
"424.394 1022.56 OFFCURVE",
"405.965 970.211 CURVE SMOOTH",
"398.142 947.989 OFFCURVE",
"391.038 929.776 OFFCURVE",
"364.61 930.563 CURVE SMOOTH",
"326.11 931.709 OFFCURVE",
"317.296 998.312 OFFCURVE",
"233.663 999.329 CURVE SMOOTH",
"175.783 1000.03 OFFCURVE",
"140.067 960.187 OFFCURVE",
"128.351 930.504 CURVE SMOOTH",
"109.143 881.837 OFFCURVE",
"179.393 854.918 OFFCURVE",
"202.824 900.396 CURVE SMOOTH",
"208.506 911.426 OFFCURVE",
"220.719 924.44 OFFCURVE",
"235.671 923.817 CURVE SMOOTH",
"284.098 921.801 OFFCURVE",
"281.623 859.407 OFFCURVE",
"361.368 857.17 CURVE SMOOTH"
);
}
);
width = 577;
}
);
leftKerningGroup = A;
rightKerningGroup = A;
unicode = 00C3;
},
{
glyphname = AE;
lastChange = "2020-03-01 12:49:11 +0000";
layers = (
{
layerId = "4692E1D1-BCA0-47EF-98E6-2E6F4483D11B";
paths = (
{
closed = 1;
nodes = (
"532 5 OFFCURVE",
"627 2 OFFCURVE",
"740 2 CURVE SMOOTH",
"767 2 OFFCURVE",
"771 41 OFFCURVE",
"739 42 CURVE SMOOTH",
"633 45 OFFCURVE",
"524 43 OFFCURVE",
"417 41 CURVE",
"414 144 OFFCURVE",
"415 248 OFFCURVE",
"413 352 CURVE",
"473 355 OFFCURVE",
"577 358 OFFCURVE",
"643 363 CURVE SMOOTH",
"670 365 OFFCURVE",
"671 406 OFFCURVE",
"639 404 CURVE SMOOTH",
"552 399 OFFCURVE",
"414 394 OFFCURVE",
"414 394 CURVE",
"409 702 LINE",
"516 703 OFFCURVE",
"628 703 OFFCURVE",
"738 703 CURVE SMOOTH",
"768 703 OFFCURVE",
"767 744 OFFCURVE",
"738 744 CURVE SMOOTH",
"627 744 OFFCURVE",
"518 744 OFFCURVE",
"407 744 CURVE SMOOTH",
"396 744 OFFCURVE",
"400 769 OFFCURVE",
"384 770 CURVE SMOOTH",
"363 771 OFFCURVE",
"356 755 OFFCURVE",
"350 742 CURVE SMOOTH",
"329 697 OFFCURVE",
"57 107 OFFCURVE",
"17 33 CURVE SMOOTH",
"2 5 OFFCURVE",
"42 -14 OFFCURVE",
"56 17 CURVE SMOOTH",
"81 72 OFFCURVE",
"161 235 OFFCURVE",
"213 344 CURVE",
"370 350 LINE",
"371 244 OFFCURVE",
"373 140 OFFCURVE",
"373 34 CURVE SMOOTH",
"373 13 OFFCURVE",
"389 -2 OFFCURVE",
"410 -1 CURVE SMOOTH"
);
},
{
closed = 1;
nodes = (
"268 465 OFFCURVE",
"342 627 OFFCURVE",
"370 690 CURVE",
"369 393 LINE",
"231 387 LINE"
);
}
);
width = 796;
},
{
layerId = "7911D52E-6854-4A1B-8A16-F908BFF91E8F";
paths = (
{
closed = 1;
nodes = (
"542 3 OFFCURVE",
"646 4 OFFCURVE",
"749 2 CURVE SMOOTH",
"801 1 OFFCURVE",
"807 80 OFFCURVE",
"748 81 CURVE SMOOTH",
"644 83 OFFCURVE",
"547 83 OFFCURVE",
"446 80 CURVE",
"442 177 OFFCURVE",
"443 235 OFFCURVE",
"442 333 CURVE",
"472 334 OFFCURVE",
"532 336 OFFCURVE",
"654 343 CURVE SMOOTH",
"705 346 OFFCURVE",
"707 427 OFFCURVE",
"647 424 CURVE SMOOTH",
"581 421 OFFCURVE",
"485 417 OFFCURVE",
"443 415 CURVE",
"438 662 LINE",
"540 663 OFFCURVE",
"644 664 OFFCURVE",
"747 664 CURVE SMOOTH",
"804 664 OFFCURVE",
"802 744 OFFCURVE",
"747 744 CURVE SMOOTH",
"643 744 OFFCURVE",
"541 744 OFFCURVE",
"437 744 CURVE",
"434 754 OFFCURVE",
"419 771 OFFCURVE",
"391 770 CURVE SMOOTH",
"354 769 OFFCURVE",
"340 740 OFFCURVE",
"334 727 CURVE SMOOTH",
"314 683 OFFCURVE",
"58 136 OFFCURVE",
"20 62 CURVE SMOOTH",
"-6 11 OFFCURVE",
"67 -27 OFFCURVE",
"94 28 CURVE SMOOTH",
"126 93 OFFCURVE",
"212 275 OFFCURVE",
"235 324 CURVE",
"360 330 LINE",
"361 232 OFFCURVE",
"362 153 OFFCURVE",
"362 54 CURVE SMOOTH",
"362 22 OFFCURVE",
"388 -2 OFFCURVE",
"421 -1 CURVE SMOOTH"
);
},
{
closed = 1;
nodes = (
"297 462 OFFCURVE",
"333 546 OFFCURVE",
"361 607 CURVE",
"359 412 LINE",
"272 408 LINE"
);
}
);
width = 824;
}
);
leftKerningGroup = A;
rightKerningGroup = E;
unicode = 00C6;
},
{
glyphname = AEacute;
lastChange = "2020-03-01 12:50:43 +0000";
layers = (
{
layerId = "4692E1D1-BCA0-47EF-98E6-2E6F4483D11B";
paths = (
{
closed = 1;
nodes = (
"551 -3 OFFCURVE",
"655 -1 OFFCURVE",
"759 -1 CURVE SMOOTH",
"786 -1 OFFCURVE",
"788 39 OFFCURVE",
"758 39 CURVE SMOOTH",
"656 39 OFFCURVE",
"554 37 OFFCURVE",
"453 38 CURVE",
"452 122 OFFCURVE",
"451 261 OFFCURVE",
"450 337 CURVE",
"488 338 OFFCURVE",
"574 339 OFFCURVE",
"668 342 CURVE SMOOTH",
"696 343 OFFCURVE",
"698 386 OFFCURVE",
"668 385 CURVE SMOOTH",
"540 381 OFFCURVE",
"451 381 OFFCURVE",
"450 381 CURVE",
"448 696 LINE",
"555 696 OFFCURVE",
"624 696 OFFCURVE",
"735 696 CURVE SMOOTH",
"765 696 OFFCURVE",
"768 737 OFFCURVE",
"738 737 CURVE SMOOTH",
"627 737 OFFCURVE",
"559 738 OFFCURVE",
"426 738 CURVE SMOOTH",
"405 738 OFFCURVE",
"389 734 OFFCURVE",
"375 709 CURVE SMOOTH",
"316 604 OFFCURVE",
"56 102 OFFCURVE",
"17 27 CURVE SMOOTH",
"3 0 OFFCURVE",
"42 -20 OFFCURVE",
"56 10 CURVE SMOOTH",
"82 65 OFFCURVE",
"170 227 OFFCURVE",
"228 335 CURVE",
"409 338 LINE",
"410 232 OFFCURVE",
"411 139 OFFCURVE",
"411 33 CURVE SMOOTH",
"411 12 OFFCURVE",
"427 -2 OFFCURVE",
"447 -2 CURVE"
);
},
{
closed = 1;
nodes = (
"292 465 OFFCURVE",
"358 584 OFFCURVE",
"405 675 CURVE",
"409 380 LINE",
"248 378 LINE"
);
},
{
closed = 1;
nodes = (
"569 913 OFFCURVE",
"594 948 OFFCURVE",
"621 995 CURVE SMOOTH",
"636 1021 OFFCURVE",
"599 1041 OFFCURVE",
"584 1016 CURVE SMOOTH",
"552 963 OFFCURVE",
"535 938 OFFCURVE",
"497 888 CURVE SMOOTH",
"478 863 OFFCURVE",
"515 839 OFFCURVE",
"534 865 CURVE SMOOTH"
);
}
);
width = 814;
},
{
layerId = "7911D52E-6854-4A1B-8A16-F908BFF91E8F";
paths = (
{
closed = 1;
nodes = (
"561 -3 OFFCURVE",
"665 -1 OFFCURVE",
"769 -1 CURVE SMOOTH",
"821 -1 OFFCURVE",
"825 78 OFFCURVE",
"767 78 CURVE SMOOTH",
"672 78 OFFCURVE",
"577 77 OFFCURVE",
"482 77 CURVE",
"481 142 OFFCURVE",
"480 201 OFFCURVE",
"480 319 CURVE",
"525 319 OFFCURVE",
"590 320 OFFCURVE",
"678 323 CURVE SMOOTH",
"731 325 OFFCURVE",
"734 404 OFFCURVE",
"677 403 CURVE SMOOTH",
"585 401 OFFCURVE",
"523 400 OFFCURVE",
"480 399 CURVE",
"477 656 LINE",
"574 656 OFFCURVE",
"641 656 OFFCURVE",
"744 656 CURVE SMOOTH",
"800 656 OFFCURVE",
"804 737 OFFCURVE",
"748 737 CURVE SMOOTH",
"638 737 OFFCURVE",
"563 738 OFFCURVE",
"430 738 CURVE SMOOTH",
"398 738 OFFCURVE",
"376 727 OFFCURVE",
"360 698 CURVE SMOOTH",
"302 592 OFFCURVE",
"57 131 OFFCURVE",
"19 56 CURVE SMOOTH",
"-7 5 OFFCURVE",
"69 -32 OFFCURVE",
"95 21 CURVE SMOOTH",
"127 86 OFFCURVE",
"222 267 OFFCURVE",
"248 315 CURVE",
"399 317 LINE",
"401 230 OFFCURVE",
"400 152 OFFCURVE",
"400 53 CURVE SMOOTH",
"400 21 OFFCURVE",
"425 -2 OFFCURVE",
"457 -2 CURVE"
);
},
{
closed = 1;
nodes = (
"321 457 OFFCURVE",
"361 535 OFFCURVE",
"396 603 CURVE",
"398 398 LINE",
"288 397 LINE"
);
},
{
closed = 1;
nodes = (
"593 898 OFFCURVE",
"617 935 OFFCURVE",
"639 974 CURVE SMOOTH",
"667 1024 OFFCURVE",
"596 1062 OFFCURVE",
"568 1014 CURVE SMOOTH",
"544 973 OFFCURVE",
"528 949 OFFCURVE",
"499 911 CURVE SMOOTH",
"464 865 OFFCURVE",
"529 818 OFFCURVE",
"565 863 CURVE SMOOTH"
);
}
);
width = 843;
}
);
leftKerningGroup = A;
rightKerningGroup = E;
unicode = 01FC;
},
{
glyphname = B;
lastChange = "2020-03-04 17:12:17 +0000";
layers = (
{
layerId = "4692E1D1-BCA0-47EF-98E6-2E6F4483D11B";
paths = (
{
closed = 1;
nodes = (
"26 768 OFFCURVE",
"26 732 OFFCURVE",
"57 731 CURVE SMOOTH",
"102 730 LINE",
"102 575 OFFCURVE",
"105.121 209.458 OFFCURVE",
"106.145 28.199 CURVE",
"81.114 29.34 LINE SMOOTH",
"51.875 30.673 OFFCURVE",
"46.068 -8.756 OFFCURVE",
"82.461 -10.391 CURVE SMOOTH",
"448.993 -26.862 OFFCURVE",
"552.379 84.05 OFFCURVE",
"558.287 208.071 CURVE SMOOTH",
"565.513 359.734 OFFCURVE",
"413.11 415.116 OFFCURVE",
"296.123 414.579 CURVE SMOOTH",
"376.862 423.378 OFFCURVE",
"485 474 OFFCURVE",
"485.773 578.194 CURVE SMOOTH",
"488 777 OFFCURVE",
"190 768 OFFCURVE",
"57 768 CURVE SMOOTH"
);
},
{
closed = 1;
nodes = (
"188.008 382.452 OFFCURVE",
"525.766 413.876 OFFCURVE",
"517.406 210.623 CURVE SMOOTH",
"512.683 95.83 OFFCURVE",
"404.625 24.309 OFFCURVE",
"148.084 27.061 CURVE",
"146.606 170.221 OFFCURVE",
"146.628 318.448 OFFCURVE",
"146.639 384.516 CURVE"
);
},
{
closed = 1;
nodes = (
"258 728 OFFCURVE",
"446 713 OFFCURVE",
"445.728 579.118 CURVE SMOOTH",
"445 436 OFFCURVE",
"172.903 435.721 OFFCURVE",
"145.294 436.663 CURVE",
"145.754 468.676 OFFCURVE",
"144 706 OFFCURVE",
"145 729 CURVE"
);
}
);
width = 592;
},
{
layerId = "7911D52E-6854-4A1B-8A16-F908BFF91E8F";
paths = (
{
closed = 1;
nodes = (
"20 767 OFFCURVE",
"19 695 OFFCURVE",
"77 694 CURVE",
"102 694 LINE",
"102 532 OFFCURVE",
"105 243 OFFCURVE",
"106 65 CURVE",
"102 65 LINE",
"49 68 OFFCURVE",
"37 -7 OFFCURVE",
"102 -10 CURVE",
"483 -27 OFFCURVE",
"592 102 OFFCURVE",
"599 217 CURVE SMOOTH",
"607 341 OFFCURVE",
"492 398 OFFCURVE",
"407 417 CURVE",
"467 438 OFFCURVE",
"527 490 OFFCURVE",
"527 566 CURVE SMOOTH",
"527 757 OFFCURVE",
"209 770 OFFCURVE",
"77 768 CURVE SMOOTH"
);
},
{
closed = 1;
nodes = (
"264 362 OFFCURVE",
"526 365 OFFCURVE",
"520 222 CURVE SMOOTH",
"517 148 OFFCURVE",
"416 65 OFFCURVE",
"185 65 CURVE",
"184 187 OFFCURVE",
"185 293 OFFCURVE",
"185 359 CURVE"
);
},
{
closed = 1;
nodes = (
"288 689 OFFCURVE",
"448 659 OFFCURVE",
"447 569 CURVE SMOOTH",
"446 472 OFFCURVE",
"258 446 OFFCURVE",
"182 448 CURVE",
"182 498 OFFCURVE",
"179 642 OFFCURVE",
"180 691 CURVE"
);
}
);
width = 633;
}
);
leftKerningGroup = B;
rightKerningGroup = B;
unicode = 0042;
},
{
glyphname = C;
lastChange = "2020-03-01 12:32:28 +0000";
layers = (
{
layerId = "4692E1D1-BCA0-47EF-98E6-2E6F4483D11B";
paths = (
{
closed = 1;
nodes = (
"503 -20 OFFCURVE",
"573 62 OFFCURVE",
"590 79 CURVE SMOOTH",
"615 104 OFFCURVE",
"583 134 OFFCURVE",
"561 112 CURVE SMOOTH",
"540 91 OFFCURVE",
"485 22 OFFCURVE",
"350 24 CURVE SMOOTH",
"221 26 OFFCURVE",
"72 112 OFFCURVE",
"78 378 CURVE SMOOTH",
"84 646 OFFCURVE",
"232 728 OFFCURVE",
"367 731 CURVE SMOOTH",
"483 734 OFFCURVE",
"533 675 OFFCURVE",
"555 656 CURVE SMOOTH",
"581 633 OFFCURVE",
"611 667 OFFCURVE",
"584 690 CURVE SMOOTH",
"564 707 OFFCURVE",
"495 777 OFFCURVE",
"368 774 CURVE SMOOTH",
"220 771 OFFCURVE",
"39 687 OFFCURVE",
"34 381 CURVE SMOOTH",
"29 79 OFFCURVE",
"199 -14 OFFCURVE",
"347 -17 CURVE SMOOTH"
);
}
);
width = 633;
},
{
layerId = "7911D52E-6854-4A1B-8A16-F908BFF91E8F";
paths = (
{
closed = 1;
nodes = (
"530 -20 OFFCURVE",
"606 69 OFFCURVE",
"622 85 CURVE SMOOTH",
"667 130 OFFCURVE",
"605 186 OFFCURVE",
"565 146 CURVE SMOOTH",
"543 124 OFFCURVE",
"493 62 OFFCURVE",
"369 64 CURVE SMOOTH",
"227 66 OFFCURVE",
"111 145 OFFCURVE",
"117 378 CURVE SMOOTH",
"123 611 OFFCURVE",
"228 689 OFFCURVE",
"385 690 CURVE SMOOTH",
"492 691 OFFCURVE",
"537 640 OFFCURVE",
"561 620 CURVE SMOOTH",
"607 581 OFFCURVE",
"662 644 OFFCURVE",
"615 684 CURVE SMOOTH",
"595 701 OFFCURVE",
"521 776 OFFCURVE",
"385 773 CURVE SMOOTH",
"204 769 OFFCURVE",
"39 679 OFFCURVE",
"34 381 CURVE SMOOTH",
"29 88 OFFCURVE",
"191 -14 OFFCURVE",
"365 -17 CURVE SMOOTH"
);
}
);
width = 672;
}
);
leftKerningGroup = C;
rightKerningGroup = C;
unicode = 0043;
},
{
glyphname = Cacute;
lastChange = "2020-01-02 12:27:00 +0000";
layers = (
{
layerId = "4692E1D1-BCA0-47EF-98E6-2E6F4483D11B";
paths = (
{
closed = 1;
nodes = (
"493 -17 OFFCURVE",
"555 34 OFFCURVE",
"582 53 CURVE SMOOTH",
"611 73 OFFCURVE",
"585 107 OFFCURVE",
"559 90 CURVE SMOOTH",
"536 75 OFFCURVE",
"490 24 OFFCURVE",
"347 27 CURVE SMOOTH",
"215 30 OFFCURVE",
"75 94 OFFCURVE",
"78 377 CURVE SMOOTH",
"80 598 OFFCURVE",
"212 698 OFFCURVE",
"325 711 CURVE SMOOTH",
"427 723 OFFCURVE",
"513 690 OFFCURVE",
"547 668 CURVE SMOOTH",
"572 652 OFFCURVE",
"598 686 OFFCURVE",
"567 707 CURVE SMOOTH",
"533 730 OFFCURVE",
"434 768 OFFCURVE",
"316 755 CURVE SMOOTH",
"182 740 OFFCURVE",
"36 624 OFFCURVE",
"34 380 CURVE SMOOTH",
"31 61 OFFCURVE",
"197 -11 OFFCURVE",
"342 -14 CURVE SMOOTH"
);
},
{
closed = 1;
nodes = (
"411 915 OFFCURVE",
"440 963 OFFCURVE",
"467 1001 CURVE SMOOTH",
"487 1029 OFFCURVE",
"449 1055 OFFCURVE",
"428 1022 CURVE SMOOTH",
"402 981 OFFCURVE",
"372 936 OFFCURVE",
"345 889 CURVE SMOOTH",
"329 861 OFFCURVE",
"367 840 OFFCURVE",
"384 869 CURVE SMOOTH"
);
}
);
width = 629;
},
{
layerId = "7911D52E-6854-4A1B-8A16-F908BFF91E8F";
paths = (
{
closed = 1;
nodes = (
"496 -17 OFFCURVE",
"584 32 OFFCURVE",
"615 56 CURVE SMOOTH",
"662 92 OFFCURVE",
"619 163 OFFCURVE",
"568 124 CURVE SMOOTH",
"539 102 OFFCURVE",
"483 65 OFFCURVE",
"367 67 CURVE SMOOTH",
"241 69 OFFCURVE",
"115 129 OFFCURVE",
"118 376 CURVE SMOOTH",
"120 566 OFFCURVE",
"242 660 OFFCURVE",
"348 673 CURVE SMOOTH",
"448 685 OFFCURVE",
"521 659 OFFCURVE",
"563 631 CURVE SMOOTH",
"603 605 OFFCURVE",
"652 670 OFFCURVE",
"599 705 CURVE SMOOTH",
"553 735 OFFCURVE",
"455 768 OFFCURVE",
"334 755 CURVE SMOOTH",
"194 740 OFFCURVE",
"36 614 OFFCURVE",
"34 380 CURVE SMOOTH",
"31 68 OFFCURVE",
"212 -10 OFFCURVE",
"361 -14 CURVE"
);
},
{
closed = 1;
nodes = (
"453 917 OFFCURVE",
"471 944 OFFCURVE",
"497 981 CURVE SMOOTH",
"531 1030 OFFCURVE",
"462 1079 OFFCURVE",
"425 1023 CURVE SMOOTH",
"398 982 OFFCURVE",
"381 956 OFFCURVE",
"352 909 CURVE SMOOTH",
"321 859 OFFCURVE",
"396 817 OFFCURVE",
"426 870 CURVE SMOOTH"
);
}
);
width = 669;
}
);
leftKerningGroup = C;
rightKerningGroup = C;
unicode = 0106;
},
{
glyphname = Ccaron;
lastChange = "2020-01-02 12:32:02 +0000";
layers = (
{
layerId = "4692E1D1-BCA0-47EF-98E6-2E6F4483D11B";
paths = (
{
closed = 1;
nodes = (
"371 -32 OFFCURVE",
"516 3 OFFCURVE",
"576 41 CURVE SMOOTH",
"610 63 OFFCURVE",
"583 95 OFFCURVE",
"559 80 CURVE SMOOTH",
"495 40 OFFCURVE",
"373 11 OFFCURVE",
"274 45 CURVE SMOOTH",
"172 80 OFFCURVE",
"79 178 OFFCURVE",
"78 376 CURVE SMOOTH",
"77 621 OFFCURVE",
"232 714 OFFCURVE",
"358 716 CURVE SMOOTH",
"490 718 OFFCURVE",
"544 672 OFFCURVE",
"564 658 CURVE SMOOTH",
"589 640 OFFCURVE",
"615 675 OFFCURVE",
"589 694 CURVE SMOOTH",
"565 712 OFFCURVE",
"496 762 OFFCURVE",
"353 759 CURVE SMOOTH",
"210 756 OFFCURVE",
"31 655 OFFCURVE",
"34 375 CURVE SMOOTH",
"36 155 OFFCURVE",
"141 47 OFFCURVE",
"255 8 CURVE SMOOTH"
);
},
{
closed = 1;
nodes = (
"385 849 OFFCURVE",
"441 901 OFFCURVE",
"469 965 CURVE SMOOTH",
"479 988 OFFCURVE",
"445 1003 OFFCURVE",
"434 981 CURVE SMOOTH",
"407 926 OFFCURVE",
"376 897 OFFCURVE",
"372 900 CURVE SMOOTH",
"364 906 OFFCURVE",
"334 940 OFFCURVE",
"314 973 CURVE SMOOTH",
"301 995 OFFCURVE",
"266 977 OFFCURVE",
"281 953 CURVE SMOOTH",
"302 919 OFFCURVE",
"348 861 OFFCURVE",
"370 854 CURVE SMOOTH"
);
}
);
width = 634;
},
{
layerId = "7911D52E-6854-4A1B-8A16-F908BFF91E8F";
paths = (
{
closed = 1;
nodes = (
"396 -36 OFFCURVE",
"537 2 OFFCURVE",
"606 44 CURVE SMOOTH",
"665 80 OFFCURVE",
"614 142 OFFCURVE",
"571 117 CURVE SMOOTH",
"505 79 OFFCURVE",
"400 47 OFFCURVE",
"301 84 CURVE SMOOTH",
"205 120 OFFCURVE",
"118 210 OFFCURVE",
"117 377 CURVE SMOOTH",
"116 587 OFFCURVE",
"259 674 OFFCURVE",
"379 677 CURVE SMOOTH",
"505 680 OFFCURVE",
"558 636 OFFCURVE",
"579 622 CURVE SMOOTH",
"624 592 OFFCURVE",
"665 659 OFFCURVE",
"620 691 CURVE SMOOTH",
"594 710 OFFCURVE",
"520 762 OFFCURVE",
"372 759 CURVE SMOOTH",
"224 756 OFFCURVE",
"31 647 OFFCURVE",
"34 375 CURVE SMOOTH",
"36 166 OFFCURVE",
"150 51 OFFCURVE",
"269 9 CURVE SMOOTH"
);
},
{
closed = 1;
nodes = (
"422 835 OFFCURVE",
"468 875 OFFCURVE",
"506 946 CURVE SMOOTH",
"530 991 OFFCURVE",
"463 1023 OFFCURVE",
"441 979 CURVE SMOOTH",
"432 961 OFFCURVE",
"419 940 OFFCURVE",
"403 924 CURVE",
"395 932 OFFCURVE",
"379 954 OFFCURVE",
"366 974 CURVE SMOOTH",
"338 1018 OFFCURVE",
"273 979 OFFCURVE",
"305 932 CURVE SMOOTH",
"327 900 OFFCURVE",
"370 846 OFFCURVE",
"399 840 CURVE SMOOTH"
);
}
);
width = 674;
}
);
leftKerningGroup = C;
rightKerningGroup = C;
unicode = 010C;
},
{
glyphname = Ccedilla;
lastChange = "2020-01-02 12:33:16 +0000";
layers = (
{
layerId = "4692E1D1-BCA0-47EF-98E6-2E6F4483D11B";
paths = (
{
closed = 1;
nodes = (
"388 -248 OFFCURVE",
"431 -234 OFFCURVE",
"443 -178 CURVE SMOOTH",
"458 -110 OFFCURVE",
"421 -84 OFFCURVE",
"322 -84 CURVE",
"353 -8 LINE",
"497 -5 OFFCURVE",
"559 38 OFFCURVE",
"590 62 CURVE SMOOTH",
"615 82 OFFCURVE",
"589 114 OFFCURVE",
"566 96 CURVE SMOOTH",
"528 66 OFFCURVE",
"465 30 OFFCURVE",
"336 32 CURVE SMOOTH",
"174 35 OFFCURVE",
"76 172 OFFCURVE",
"78 386 CURVE SMOOTH",
"80 591 OFFCURVE",
"181 691 OFFCURVE",
"303 709 CURVE SMOOTH",
"450 731 OFFCURVE",
"520 674 OFFCURVE",
"555 652 CURVE SMOOTH",
"579 637 OFFCURVE",
"608 672 OFFCURVE",
"574 694 CURVE SMOOTH",
"538 717 OFFCURVE",
"448 775 OFFCURVE",
"292 751 CURVE SMOOTH",
"143 728 OFFCURVE",
"35 604 OFFCURVE",
"34 389 CURVE SMOOTH",
"33 80 OFFCURVE",
"208 -2 OFFCURVE",
"312 -6 CURVE",
"275 -99 LINE SMOOTH",
"270 -111 OFFCURVE",
"277 -120 OFFCURVE",
"292 -119 CURVE SMOOTH",
"378 -113 OFFCURVE",
"418 -124 OFFCURVE",
"406 -171 CURVE SMOOTH",
"399 -198 OFFCURVE",
"383 -212 OFFCURVE",
"341 -211 CURVE SMOOTH",
"309 -210 OFFCURVE",
"288 -197 OFFCURVE",
"276 -191 CURVE SMOOTH",
"253 -180 OFFCURVE",
"235 -211 OFFCURVE",
"261 -226 CURVE SMOOTH",
"270 -231 OFFCURVE",
"299 -246 OFFCURVE",
"338 -247 CURVE SMOOTH"
);
}
);
width = 634;
},
{
layerId = "7911D52E-6854-4A1B-8A16-F908BFF91E8F";
paths = (
{
closed = 1;
nodes = (
"411 -248 OFFCURVE",
"466 -230 OFFCURVE",
"483 -162 CURVE SMOOTH",
"502 -85 OFFCURVE",
"460 -52 OFFCURVE",
"371 -47 CURVE",
"387 -7 LINE",
"530 -1 OFFCURVE",
"590 42 OFFCURVE",
"621 66 CURVE SMOOTH",
"669 103 OFFCURVE",
"617 168 OFFCURVE",
"574 133 CURVE SMOOTH",
"539 105 OFFCURVE",
"484 71 OFFCURVE",
"357 72 CURVE SMOOTH",
"208 73 OFFCURVE",
"116 199 OFFCURVE",
"118 386 CURVE SMOOTH",
"120 561 OFFCURVE",
"217 656 OFFCURVE",
"327 671 CURVE SMOOTH",
"466 690 OFFCURVE",
"524 638 OFFCURVE",
"566 614 CURVE SMOOTH",
"612 588 OFFCURVE",
"661 653 OFFCURVE",
"604 690 CURVE SMOOTH",
"557 721 OFFCURVE",
"461 773 OFFCURVE",
"307 750 CURVE SMOOTH",
"153 727 OFFCURVE",
"35 592 OFFCURVE",
"34 389 CURVE SMOOTH",
"33 113 OFFCURVE",
"196 14 OFFCURVE",
"303 -3 CURVE",
"278 -64 LINE SMOOTH",
"267 -90 OFFCURVE",
"285 -112 OFFCURVE",
"314 -110 CURVE SMOOTH",
"395 -104 OFFCURVE",
"415 -119 OFFCURVE",
"407 -146 CURVE SMOOTH",
"402 -164 OFFCURVE",
"389 -174 OFFCURVE",
"361 -173 CURVE SMOOTH",
"334 -172 OFFCURVE",
"317 -162 OFFCURVE",
"304 -154 CURVE SMOOTH",
"260 -127 OFFCURVE",
"222 -196 OFFCURVE",
"271 -223 CURVE SMOOTH",
"280 -228 OFFCURVE",
"314 -246 OFFCURVE",
"357 -247 CURVE SMOOTH"
);
}
);
width = 674;
}
);
leftKerningGroup = C;
rightKerningGroup = C;
unicode = 00C7;
},
{
glyphname = Ccircumflex;
lastChange = "2019-03-27 18:47:32 +0000";
layers = (
{
layerId = "4692E1D1-BCA0-47EF-98E6-2E6F4483D11B";
paths = (
{
closed = 1;
nodes = (
"496 -12 OFFCURVE",
"571 41 OFFCURVE",
"597 61 CURVE SMOOTH",
"625 83 OFFCURVE",
"595 115 OFFCURVE",
"572 97 CURVE SMOOTH",
"547 78 OFFCURVE",
"485 31 OFFCURVE",
"358 31 CURVE SMOOTH",
"231 31 OFFCURVE",
"71 102 OFFCURVE",
"77 362 CURVE SMOOTH",
"83 625 OFFCURVE",
"237 719 OFFCURVE",
"363 723 CURVE SMOOTH",
"478 727 OFFCURVE",
"530 691 OFFCURVE",
"553 677 CURVE SMOOTH",
"579 661 OFFCURVE",
"601 697 OFFCURVE",
"576 715 CURVE SMOOTH",
"555 730 OFFCURVE",
"491 770 OFFCURVE",
"364 766 CURVE SMOOTH",
"216 761 OFFCURVE",
"39 664 OFFCURVE",
"34 363 CURVE SMOOTH",
"29 67 OFFCURVE",
"206 -10 OFFCURVE",
"355 -11 CURVE SMOOTH"
);
},
{
closed = 1;
nodes = (
"481 863 OFFCURVE",
"510 887 OFFCURVE",
"491 909 CURVE SMOOTH",
"458 947 OFFCURVE",
"428 977 OFFCURVE",
"391 1014 CURVE SMOOTH",
"377 1028 OFFCURVE",
"361 1029 OFFCURVE",
"348 1012 CURVE SMOOTH",
"311 964 OFFCURVE",
"283 935 OFFCURVE",
"260 908 CURVE SMOOTH",
"242 887 OFFCURVE",
"275 862 OFFCURVE",
"294 885 CURVE SMOOTH",
"318 914 OFFCURVE",
"343 943 OFFCURVE",
"372 979 CURVE",
"399 953 OFFCURVE",
"431 918 OFFCURVE",
"462 884 CURVE SMOOTH"
);
}
);
width = 642;
},
{
layerId = "7911D52E-6854-4A1B-8A16-F908BFF91E8F";
paths = (
{
closed = 1;
nodes = (
"525 -12 OFFCURVE",
"603 44 OFFCURVE",
"629 65 CURVE SMOOTH",
"678 105 OFFCURVE",
"624 165 OFFCURVE",
"580 132 CURVE SMOOTH",
"552 111 OFFCURVE",
"501 69 OFFCURVE",
"378 70 CURVE SMOOTH",
"208 71 OFFCURVE",
"112 182 OFFCURVE",
"117 361 CURVE SMOOTH",
"122 549 OFFCURVE",
"224 679 OFFCURVE",
"383 683 CURVE SMOOTH",
"492 686 OFFCURVE",
"537 656 OFFCURVE",
"562 643 CURVE SMOOTH",
"613 617 OFFCURVE",
"654 678 OFFCURVE",
"608 711 CURVE SMOOTH",
"587 726 OFFCURVE",
"517 771 OFFCURVE",
"383 766 CURVE SMOOTH",
"173 758 OFFCURVE",
"38 599 OFFCURVE",
"34 364 CURVE SMOOTH",
"30 134 OFFCURVE",
"156 -10 OFFCURVE",
"375 -11 CURVE SMOOTH"
);
},
{
closed = 1;
nodes = (
"489 841 OFFCURVE",
"544 893 OFFCURVE",
"506 933 CURVE SMOOTH",
"472 968 OFFCURVE",
"449 992 OFFCURVE",
"425 1016 CURVE SMOOTH",
"399 1042 OFFCURVE",
"379 1042 OFFCURVE",
"354 1015 CURVE SMOOTH",
"323 982 OFFCURVE",
"304 957 OFFCURVE",
"280 928 CURVE SMOOTH",
"247 888 OFFCURVE",
"307 840 OFFCURVE",
"342 881 CURVE SMOOTH",
"360 902 OFFCURVE",
"377 926 OFFCURVE",
"393 944 CURVE",
"404 931 OFFCURVE",
"429 906 OFFCURVE",
"452 881 CURVE SMOOTH"
);
}
);
width = 682;
}
);
leftKerningGroup = C;
rightKerningGroup = C;
unicode = 0108;
},
{
glyphname = Cdotaccent;
lastChange = "2020-01-02 12:36:34 +0000";
layers = (
{
layerId = "4692E1D1-BCA0-47EF-98E6-2E6F4483D11B";
paths = (
{
closed = 1;
nodes = (
"372 -35 OFFCURVE",
"532 -6 OFFCURVE",
"590 35 CURVE SMOOTH",
"621 57 OFFCURVE",
"593 95 OFFCURVE",
"563 72 CURVE SMOOTH",
"511 32 OFFCURVE",
"374 10 OFFCURVE",
"262 49 CURVE SMOOTH",
"173 80 OFFCURVE",
"78 167 OFFCURVE",
"78 368 CURVE SMOOTH",
"78 611 OFFCURVE",
"207 688 OFFCURVE",
"302 708 CURVE SMOOTH",
"441 738 OFFCURVE",
"540 688 OFFCURVE",
"563 673 CURVE SMOOTH",
"590 655 OFFCURVE",
"616 694 OFFCURVE",
"589 711 CURVE SMOOTH",
"561 729 OFFCURVE",
"441 785 OFFCURVE",
"292 751 CURVE SMOOTH",
"180 725 OFFCURVE",
"33 643 OFFCURVE",
"34 368 CURVE SMOOTH",
"35 145 OFFCURVE",
"142 45 OFFCURVE",
"243 10 CURVE SMOOTH"
);
},
{
closed = 1;
nodes = (
"370 863 OFFCURVE",
"419 899 OFFCURVE",
"393 928 CURVE SMOOTH",
"364 961 OFFCURVE",
"316 925 OFFCURVE",
"344 893 CURVE SMOOTH"
);
}
);
width = 638;
},
{
layerId = "7911D52E-6854-4A1B-8A16-F908BFF91E8F";
paths = (
{
closed = 1;
nodes = (
"385 -38 OFFCURVE",
"554 7 OFFCURVE",
"614 48 CURVE SMOOTH",
"666 83 OFFCURVE",
"623 152 OFFCURVE",
"569 118 CURVE SMOOTH",
"499 74 OFFCURVE",
"369 53 OFFCURVE",
"284 84 CURVE SMOOTH",
"170 125 OFFCURVE",
"118 216 OFFCURVE",
"118 368 CURVE SMOOTH",
"118 540 OFFCURVE",
"182 645 OFFCURVE",
"320 672 CURVE SMOOTH",
"448 697 OFFCURVE",
"537 645 OFFCURVE",
"567 628 CURVE SMOOTH",
"617 600 OFFCURVE",
"662 666 OFFCURVE",
"614 698 CURVE SMOOTH",
"537 749 OFFCURVE",
"408 776 OFFCURVE",
"299 752 CURVE SMOOTH",
"120 713 OFFCURVE",
"33 586 OFFCURVE",
"34 368 CURVE SMOOTH",
"35 182 OFFCURVE",
"106 59 OFFCURVE",
"250 9 CURVE SMOOTH"
);
},
{
closed = 1;
nodes = (
"387 833 OFFCURVE",
"466 891 OFFCURVE",
"422 941 CURVE SMOOTH",
"376 993 OFFCURVE",
"297 932 OFFCURVE",
"344 880 CURVE SMOOTH"
);
}
);
width = 671;
}
);
leftKerningGroup = C;
rightKerningGroup = C;
unicode = 010A;
},
{
glyphname = D;
lastChange = "2020-03-15 12:56:29 +0000";
layers = (
{
layerId = "4692E1D1-BCA0-47EF-98E6-2E6F4483D11B";
paths = (
{
closed = 1;
nodes = (
"298 -9 OFFCURVE",
"598 8 OFFCURVE",
"605 371 CURVE SMOOTH",
"613 746 OFFCURVE",
"280 778 OFFCURVE",
"58 772 CURVE SMOOTH",
"27 771 OFFCURVE",
"26 731 OFFCURVE",
"53 732 CURVE SMOOTH",
"97 732 LINE",
"98 537 OFFCURVE",
"96 232 OFFCURVE",
"98 29 CURVE",
"71 28 LINE SMOOTH",
"46 28 OFFCURVE",
"42 -12 OFFCURVE",
"75 -12 CURVE SMOOTH"
);
},
{
closed = 1;
nodes = (
"141 731 LINE",
"347 730 OFFCURVE",
"567 662 OFFCURVE",
"562 374 CURVE SMOOTH",
"557 106 OFFCURVE",
"378 37 OFFCURVE",
"142 30 CURVE"
);
}
);
width = 639;
},
{
layerId = "7911D52E-6854-4A1B-8A16-F908BFF91E8F";
paths = (
{
closed = 1;
nodes = (
"319 -8 OFFCURVE",
"623 9 OFFCURVE",
"636 370 CURVE SMOOTH",
"649 744 OFFCURVE",
"301 778 OFFCURVE",
"77 772 CURVE",
"21 770 OFFCURVE",
"19 692 OFFCURVE",
"74 692 CURVE",
"98 691 LINE",
"98 505 OFFCURVE",
"97 263 OFFCURVE",
"99 70 CURVE",
"84 69 LINE SMOOTH",
"36 68 OFFCURVE",
"29 -12 OFFCURVE",
"91 -11 CURVE"
);
},
{
closed = 1;
nodes = (
"182 690 LINE",
"378 683 OFFCURVE",
"558 622 OFFCURVE",
"552 375 CURVE SMOOTH",
"545 153 OFFCURVE",
"406 80 OFFCURVE",
"184 71 CURVE"
);
}
);
width = 670;
}
);
leftKerningGroup = D;
rightKerningGroup = D;
unicode = 0044;
},
{
glyphname = Dcaron;
lastChange = "2019-01-02 14:45:07 +0000";
layers = (
{
layerId = "4692E1D1-BCA0-47EF-98E6-2E6F4483D11B";
paths = (
{
closed = 1;
nodes = (
"151 -3 OFFCURVE",
"353 -10 OFFCURVE",
"458 76 CURVE SMOOTH",
"536 139 OFFCURVE",
"586 244 OFFCURVE",
"588 369 CURVE SMOOTH",
"590 500 OFFCURVE",
"551 603 OFFCURVE",
"475 664 CURVE SMOOTH",
"327 783 OFFCURVE",
"71 744 OFFCURVE",
"53 741 CURVE SMOOTH",
"22 736 OFFCURVE",
"32 698 OFFCURVE",
"59 703 CURVE SMOOTH",
"59 703 OFFCURVE",
"81 705 OFFCURVE",
"110 708 CURVE",
"111 35 LINE",
"73 35 LINE SMOOTH",
"42 35 OFFCURVE",
"41 -3 OFFCURVE",
"74 -3 CURVE SMOOTH"
);
},
{
closed = 1;
nodes = (
"152 709 LINE",
"236 711 OFFCURVE",
"362 701 OFFCURVE",
"446 631 CURVE SMOOTH",
"511 577 OFFCURVE",
"548 487 OFFCURVE",
"546 370 CURVE SMOOTH",
"545 259 OFFCURVE",
"499 164 OFFCURVE",
"432 111 CURVE SMOOTH",
"346 43 OFFCURVE",
"230 39 OFFCURVE",
"154 36 CURVE"
);
},
{
closed = 1;
nodes = (
"310 829 OFFCURVE",
"369 908 OFFCURVE",
"385 936 CURVE SMOOTH",
"398 957 OFFCURVE",
"365 977 OFFCURVE",
"350 952 CURVE SMOOTH",
"334 927 OFFCURVE",
"302 887 OFFCURVE",
"289 875 CURVE",
"275 890 OFFCURVE",
"247 921 OFFCURVE",
"227 946 CURVE SMOOTH",
"209 969 OFFCURVE",
"176 948 OFFCURVE",
"195 923 CURVE SMOOTH",
"215 897 OFFCURVE",
"271 829 OFFCURVE",
"289 829 CURVE SMOOTH"
);
}
);
width = 622;
},
{
layerId = "7911D52E-6854-4A1B-8A16-F908BFF91E8F";
paths = (
{
closed = 1;
nodes = (
"174.547 -3 OFFCURVE",
"378.959 -10.248 OFFCURVE",
"489.599 80.235 CURVE SMOOTH",
"571.244 147.005 OFFCURVE",
"619.774 260.106 OFFCURVE",
"622.195 368.737 CURVE SMOOTH",
"624.741 482.992 OFFCURVE",
"587.032 595.291 OFFCURVE",
"506.418 659.675 CURVE SMOOTH",
"351.123 783.708 OFFCURVE",
"93.922 744.016 OFFCURVE",
"73.749 741.086 CURVE SMOOTH",
"16.336 732.747 OFFCURVE",
"23.763 655.668 OFFCURVE",
"79.025 659.73 CURVE SMOOTH",
"90.83 660.598 OFFCURVE",
"102.719 661.079 OFFCURVE",
"113.731 662 CURVE",
"114.667 78.346 LINE",
"96.532 78.396 LINE SMOOTH",
"39.826 78.552 OFFCURVE",
"38.92 -3 OFFCURVE",
"97.851 -3 CURVE SMOOTH"
);
},
{
closed = 1;
nodes = (
"196.246 666.566 LINE",
"276.613 665.951 OFFCURVE",
"379.046 656.203 OFFCURVE",
"452.663 595.239 CURVE SMOOTH",
"511.778 546.283 OFFCURVE",
"541.393 461.08 OFFCURVE",
"539.199 370.132 CURVE SMOOTH",
"537.204 287.429 OFFCURVE",
"500.155 196.635 OFFCURVE",
"438.676 148.355 CURVE SMOOTH",
"366.226 91.459 OFFCURVE",
"271.998 83.185 OFFCURVE",
"197.897 79.554 CURVE"
);
},
{
closed = 1;
nodes = (
"338.484 814.531 OFFCURVE",
"398.376 894.334 OFFCURVE",
"411.454 916.053 CURVE SMOOTH",
"437.43 959.192 OFFCURVE",
"374.777 999.93 OFFCURVE",
"344.745 952.38 CURVE SMOOTH",
"338.472 942.447 OFFCURVE",
"320.136 917.637 OFFCURVE",
"312.062 909.228 CURVE",
"305.864 915.8 OFFCURVE",
"284.834 941.703 OFFCURVE",
"278.662 949.62 CURVE SMOOTH",
"245.283 992.436 OFFCURVE",
"179.947 948.15 OFFCURVE",
"216.355 901.547 CURVE SMOOTH",
"230.346 883.638 OFFCURVE",
"289.279 814.531 OFFCURVE",
"312.495 814.531 CURVE SMOOTH"
);
}
);
width = 656;
}
);
leftKerningGroup = D;
rightKerningGroup = D;
unicode = 010E;
},
{
glyphname = Dcroat;
lastChange = "2019-05-01 12:36:06 +0000";
layers = (
{
layerId = "4692E1D1-BCA0-47EF-98E6-2E6F4483D11B";
paths = (
{
closed = 1;
nodes = (
"79 -12 OFFCURVE",
"135 -12 OFFCURVE",
"170 -11 CURVE SMOOTH",
"425 -4 OFFCURVE",
"619 108 OFFCURVE",
"612 389 CURVE SMOOTH",
"605 694 OFFCURVE",
"308 753 OFFCURVE",
"169 762 CURVE SMOOTH",
"115 766 OFFCURVE",
"91 766 OFFCURVE",
"67 766 CURVE SMOOTH",
"39 767 OFFCURVE",
"38 728 OFFCURVE",
"66 727 CURVE SMOOTH",
"85 726 OFFCURVE",
"121 726 OFFCURVE",
"131 724 CURVE",
"128 414 LINE",
"92 413 OFFCURVE",
"55 415 OFFCURVE",
"26 415 CURVE SMOOTH",
"-2 415 OFFCURVE",
"-4 374 OFFCURVE",
"25 373 CURVE SMOOTH",
"52 372 OFFCURVE",
"88 372 OFFCURVE",
"128 372 CURVE",
"126 26 LINE",
"73 26 LINE SMOOTH",
"46 25 OFFCURVE",
"45 -12 OFFCURVE",
"79 -12 CURVE SMOOTH"
);
},
{
closed = 1;
nodes = (
"172 373 LINE",
"202 373 OFFCURVE",
"260 375 OFFCURVE",
"307 379 CURVE SMOOTH",
"335 382 OFFCURVE",
"333 423 OFFCURVE",
"303 421 CURVE SMOOTH",
"251 417 OFFCURVE",
"204 415 OFFCURVE",
"172 415 CURVE",
"174 722 LINE",
"248 717 OFFCURVE",
"564 683 OFFCURVE",
"571 388 CURVE SMOOTH",
"578 126 OFFCURVE",
"386 33 OFFCURVE",
"171 26 CURVE"
);
}
);
width = 646;
},
{
layerId = "7911D52E-6854-4A1B-8A16-F908BFF91E8F";
paths = (
{
closed = 1;
nodes = (
"99 -12 OFFCURVE",
"155 -12 OFFCURVE",
"190 -11 CURVE SMOOTH",
"451 -4 OFFCURVE",
"649 116 OFFCURVE",
"642 389 CURVE SMOOTH",
"634 691 OFFCURVE",
"330 753 OFFCURVE",
"190 762 CURVE SMOOTH",
"136 766 OFFCURVE",
"111 766 OFFCURVE",
"87 766 CURVE SMOOTH",
"32 767 OFFCURVE",
"31 689 OFFCURVE",
"85 687 CURVE SMOOTH",
"97 687 OFFCURVE",
"117 686 OFFCURVE",
"131 686 CURVE",
"128 434 LINE",
"101 434 OFFCURVE",
"70 435 OFFCURVE",
"46 435 CURVE SMOOTH",
"-8 435 OFFCURVE",
"-11 355 OFFCURVE",
"44 353 CURVE SMOOTH",
"66 352 OFFCURVE",
"98 352 OFFCURVE",
"128 352 CURVE",
"126 66 LINE",
"92 66 LINE SMOOTH",
"40 65 OFFCURVE",
"37 -12 OFFCURVE",
"99 -12 CURVE SMOOTH"
);
},
{
closed = 1;
nodes = (
"211 353 LINE",
"243 354 OFFCURVE",
"290 356 OFFCURVE",
"328 359 CURVE SMOOTH",
"381 364 OFFCURVE",
"378 445 OFFCURVE",
"322 440 CURVE SMOOTH",
"280 437 OFFCURVE",
"242 436 OFFCURVE",
"212 436 CURVE",
"214 680 LINE",
"309 672 OFFCURVE",
"554 623 OFFCURVE",
"561 387 CURVE SMOOTH",
"568 169 OFFCURVE",
"410 78 OFFCURVE",
"210 67 CURVE"
);
}
);
width = 676;
}
);
leftKerningGroup = D;
rightKerningGroup = D;
unicode = 0110;
},
{
glyphname = Eth;
lastChange = "2019-01-19 09:01:08 +0000";
layers = (
{
layerId = "4692E1D1-BCA0-47EF-98E6-2E6F4483D11B";
paths = (
{
closed = 1;
nodes = (
"121.98 -13 OFFCURVE",
"159.091 -12 OFFCURVE",
"187.266 -11 CURVE SMOOTH",
"445.672 -2 OFFCURVE",
"625.625 94.055 OFFCURVE",
"615.238 399.82 CURVE SMOOTH",
"605.562 684.673 OFFCURVE",
"334.415 746.882 OFFCURVE",
"176.459 755.104 CURVE SMOOTH",
"138.092 757.101 OFFCURVE",
"93.842 757.751 OFFCURVE",
"66.145 757.594 CURVE SMOOTH",
"32.704 757.404 OFFCURVE",
"30.866 718.108 OFFCURVE",
"66.393 716.95 CURVE SMOOTH",
"127.621 714.954 LINE",
"132.204 400.381 LINE",
"56.174 397.379 LINE SMOOTH",
"26.113 396.192 OFFCURVE",
"26.206 354.666 OFFCURVE",
"58.969 355.95 CURVE SMOOTH",
"133.986 358.891 LINE",
"137.908 28.297 LINE",
"89.841 27.25 LINE SMOOTH",
"59.923 26.598 OFFCURVE",
"57.438 -13 OFFCURVE",
"92.088 -13 CURVE SMOOTH"
);
},
{
closed = 1;
nodes = (
"176.283 360.101 LINE",
"257.01 364.688 LINE SMOOTH",
"285.764 366.322 OFFCURVE",
"285.269 407.389 OFFCURVE",
"254.601 406.047 CURVE SMOOTH",
"175.393 402.581 LINE",
"169.555 712.996 LINE",
"299.854 709.998 OFFCURVE",
"564.476 659.654 OFFCURVE",
"573.407 397.582 CURVE SMOOTH",
"582.857 120.322 OFFCURVE",
"416.276 34.632 OFFCURVE",
"181.494 28.805 CURVE"
);
}
);
width = 649;
},
{
layerId = "7911D52E-6854-4A1B-8A16-F908BFF91E8F";
paths = (
{
closed = 1;
nodes = (
"142.673 -13 OFFCURVE",
"180.048 -11.826 OFFCURVE",
"208.399 -10.987 CURVE SMOOTH",
"484.424 -2.827 OFFCURVE",
"666.773 108.291 OFFCURVE",
"655.65 400.499 CURVE SMOOTH",
"645.173 675.718 OFFCURVE",
"379.612 749.661 OFFCURVE",
"197.922 755.077 CURVE SMOOTH",
"159.147 756.233 OFFCURVE",
"114.355 757.752 OFFCURVE",
"86.455 757.594 CURVE SMOOTH",
"28.804 757.26 OFFCURVE",
"25.148 677.95 OFFCURVE",
"86.165 675.961 CURVE SMOOTH",
"128.241 674.589 LINE",
"132.3 418.594 LINE",
"75.808 416.363 LINE SMOOTH",
"19.258 414.131 OFFCURVE",
"19.459 333.585 OFFCURVE",
"80.176 335.965 CURVE SMOOTH",
"134.623 338.1 LINE",
"138.04 67.86 LINE",
"106.829 67.245 LINE SMOOTH",
"54.318 66.211 OFFCURVE",
"50.318 -13 OFFCURVE",
"112.511 -13 CURVE"
);
},
{
closed = 1;
nodes = (
"217.027 342.223 LINE",
"278.568 345.72 LINE SMOOTH",
"332.653 348.793 OFFCURVE",
"331.669 427.545 OFFCURVE",
"274.15 425.028 CURVE SMOOTH",
"215.429 422.458 LINE",
"210.377 671.166 LINE",
"356.076 668.642 OFFCURVE",
"560.245 609.224 OFFCURVE",
"569.842 396.901 CURVE SMOOTH",
"579.727 178.203 OFFCURVE",
"448.602 77.389 OFFCURVE",
"221.638 68.51 CURVE"
);
}
);
width = 690;
}
);
leftKerningGroup = D;
rightKerningGroup = D;
unicode = 00D0;
},
{
glyphname = E;
lastChange = "2020-02-26 19:02:50 +0000";
layers = (
{
layerId = "4692E1D1-BCA0-47EF-98E6-2E6F4483D11B";
paths = (
{
closed = 1;
nodes = (
"182 -8 OFFCURVE",
"346 -3 OFFCURVE",
"456 2 CURVE SMOOTH",
"485 3 OFFCURVE",
"485 44 OFFCURVE",
"454 43 CURVE SMOOTH",
"345 38 OFFCURVE",
"182 33 OFFCURVE",
"107 33 CURVE SMOOTH",
"80 33 OFFCURVE",
"80 57 OFFCURVE",
"79 68 CURVE SMOOTH",
"72 125 OFFCURVE",
"76 290 OFFCURVE",
"80 370 CURVE",
"148 371 OFFCURVE",
"269 371 OFFCURVE",
"392 381 CURVE SMOOTH",
"421 383 OFFCURVE",
"418 425 OFFCURVE",
"388 423 CURVE SMOOTH",
"271 414 OFFCURVE",
"149 413 OFFCURVE",
"82 413 CURVE SMOOTH",
"85 495 OFFCURVE",
"93 642 OFFCURVE",
"102 716 CURVE",
"177 714 OFFCURVE",
"357 712 OFFCURVE",
"460 714 CURVE SMOOTH",
"489 715 OFFCURVE",
"489 757 OFFCURVE",
"459 755 CURVE SMOOTH",
"360 750 OFFCURVE",
"175 757 OFFCURVE",
"86 757 CURVE SMOOTH",
"73 757 OFFCURVE",
"64 756 OFFCURVE",
"62 739 CURVE SMOOTH",
"46 604 OFFCURVE",
"24 161 OFFCURVE",
"38 39 CURVE SMOOTH",
"40 19 OFFCURVE",
"61 -8 OFFCURVE",
"105 -8 CURVE SMOOTH"
);
}
);
width = 516;
},
{
layerId = "7911D52E-6854-4A1B-8A16-F908BFF91E8F";
paths = (
{
closed = 1;
nodes = (
"203.087 -7 OFFCURVE",
"368.115 -1.986 OFFCURVE",
"477.522 3.012 CURVE SMOOTH",
"531.991 5.394 OFFCURVE",
"532.44 86.798 OFFCURVE",
"473.532 83.922 CURVE SMOOTH",
"364.954 78.623 OFFCURVE",
"202.948 73.775 OFFCURVE",
"127.909 73.92 CURVE SMOOTH",
"121.076 73.933 OFFCURVE",
"121.143 79.201 OFFCURVE",
"119.602 91.742 CURVE SMOOTH",
"113.286 143.155 OFFCURVE",
"116.163 265.747 OFFCURVE",
"119.672 350.195 CURVE",
"189.923 351.321 OFFCURVE",
"301.251 352.25 OFFCURVE",
"414.207 360.716 CURVE SMOOTH",
"469.185 364.835 OFFCURVE",
"464.407 446.906 OFFCURVE",
"407.554 442.705 CURVE SMOOTH",
"302.066 434.91 OFFCURVE",
"192.978 433.317 OFFCURVE",
"123.3 433.268 CURVE",
"125.256 467.039 OFFCURVE",
"126 552 OFFCURVE",
"141 675 CURVE",
"224 674 OFFCURVE",
"386 671 OFFCURVE",
"482 674 CURVE SMOOTH",
"537 676 OFFCURVE",
"536 757 OFFCURVE",
"479 755 CURVE SMOOTH",
"381 752 OFFCURVE",
"197 751 OFFCURVE",
"108 757 CURVE SMOOTH",
"93 758 OFFCURVE",
"68 754 OFFCURVE",
"63 721 CURVE",
"43 587 OFFCURVE",
"25.149 181.487 OFFCURVE",
"38.697 57.334 CURVE SMOOTH",
"41.48 31.826 OFFCURVE",
"71.707 -7 OFFCURVE",
"126.187 -7 CURVE SMOOTH"
);
}
);
width = 557;
}
);
leftKerningGroup = E;
rightKerningGroup = E;
unicode = 0045;
},
{
glyphname = Eacute;
lastChange = "2019-01-09 18:26:35 +0000";
layers = (
{
layerId = "4692E1D1-BCA0-47EF-98E6-2E6F4483D11B";
paths = (
{
closed = 1;
nodes = (
"168.07 -16 OFFCURVE",
"376.432 -11 OFFCURVE",
"494.19 -3 CURVE SMOOTH",
"523.37 -1 OFFCURVE",
"523.979 39.824 OFFCURVE",
"492.551 37.239 CURVE SMOOTH",
"375.118 27.577 OFFCURVE",
"176.342 24.922 OFFCURVE",
"102.806 28.478 CURVE",
"87.971 142.91 OFFCURVE",
"84 279 OFFCURVE",
"85 343 CURVE",
"217 351 OFFCURVE",
"330 355 OFFCURVE",
"442 362 CURVE SMOOTH",
"473 364 OFFCURVE",
"475 405 OFFCURVE",
"443 404 CURVE SMOOTH",
"332 401 OFFCURVE",
"219 392 OFFCURVE",
"85 386 CURVE",
"84 440 OFFCURVE",
"89 578 OFFCURVE",
"104 707 CURVE",
"193 708 OFFCURVE",
"381 711 OFFCURVE",
"501 718 CURVE SMOOTH",
"534 720 OFFCURVE",
"532 759 OFFCURVE",
"502 758 CURVE SMOOTH",
"393 754 OFFCURVE",
"165 746 OFFCURVE",
"59 749 CURVE SMOOTH",
"27 750 OFFCURVE",
"24 708 OFFCURVE",
"59 709 CURVE",
"32 447 OFFCURVE",
"38.619 221.711 OFFCURVE",
"63.844 -11 CURVE"
);
},
{
closed = 1;
nodes = (
"305 882 OFFCURVE",
"352 957 OFFCURVE",
"374 993 CURVE SMOOTH",
"388 1016 OFFCURVE",
"355 1040 OFFCURVE",
"337 1013 CURVE SMOOTH",
"321 989 OFFCURVE",
"266 904 OFFCURVE",
"250 880 CURVE SMOOTH",
"230 851 OFFCURVE",
"270 834 OFFCURVE",
"286 856 CURVE SMOOTH"
);
}
);
width = 559;
},
{
layerId = "7911D52E-6854-4A1B-8A16-F908BFF91E8F";
paths = (
{
closed = 1;
nodes = (
"160.101 -15.581 OFFCURVE",
"386.257 -10.217 OFFCURVE",
"511.284 -2.954 CURVE SMOOTH",
"567.1 0.288 OFFCURVE",
"566.355 78.551 OFFCURVE",
"506.65 75.172 CURVE SMOOTH",
"383.944 68.228 OFFCURVE",
"219.253 64.325 OFFCURVE",
"136.286 66.814 CURVE",
"124.35 182.849 OFFCURVE",
"123 261 OFFCURVE",
"122 324 CURVE",
"247 332 OFFCURVE",
"359 336 OFFCURVE",
"463 342 CURVE SMOOTH",
"518 345 OFFCURVE",
"521 425 OFFCURVE",
"463 422 CURVE SMOOTH",
"357 417 OFFCURVE",
"249 413 OFFCURVE",
"124 407 CURVE",
"123 467 OFFCURVE",
"126 545 OFFCURVE",
"138 669 CURVE",
"232 669 OFFCURVE",
"405 674 OFFCURVE",
"522 680 CURVE SMOOTH",
"580 683 OFFCURVE",
"577 760 OFFCURVE",
"522 758 CURVE SMOOTH",
"406 754 OFFCURVE",
"185 748 OFFCURVE",
"79 750 CURVE SMOOTH",
"30 751 OFFCURVE",
"19 685 OFFCURVE",
"58 670 CURVE",
"34 410 OFFCURVE",
"37.519 223.949 OFFCURVE",
"61.549 -10.004 CURVE"
);
},
{
closed = 1;
nodes = (
"347 880 OFFCURVE",
"381 936 OFFCURVE",
"404 972 CURVE SMOOTH",
"432 1016 OFFCURVE",
"366 1064 OFFCURVE",
"333 1014 CURVE SMOOTH",
"317 990 OFFCURVE",
"275 925 OFFCURVE",
"259 901 CURVE SMOOTH",
"223 847 OFFCURVE",
"295 811 OFFCURVE",
"328 855 CURVE SMOOTH"
);
}
);
width = 598;
}
);
leftKerningGroup = E;
rightKerningGroup = E;
unicode = 00C9;
},
{
glyphname = Ebreve;
lastChange = "2019-01-09 18:26:56 +0000";
layers = (
{
layerId = "4692E1D1-BCA0-47EF-98E6-2E6F4483D11B";
paths = (
{
closed = 1;
nodes = (
"232 1 OFFCURVE",
"346 3 OFFCURVE",
"465 6 CURVE SMOOTH",
"491 7 OFFCURVE",
"491 47 OFFCURVE",
"464 46 CURVE SMOOTH",
"345 43 OFFCURVE",
"235 40 OFFCURVE",
"95 40 CURVE SMOOTH",
"75 40 OFFCURVE",
"77 54 OFFCURVE",
"76 79 CURVE SMOOTH",
"75 188 OFFCURVE",
"74 300 OFFCURVE",
"74 353 CURVE",
"183 355 OFFCURVE",
"289 355 OFFCURVE",
"398 356 CURVE SMOOTH",
"426 356 OFFCURVE",
"427 399 OFFCURVE",
"397 399 CURVE SMOOTH",
"289 398 OFFCURVE",
"183 395 OFFCURVE",
"74 396 CURVE SMOOTH",
"73 465 OFFCURVE",
"73 607 OFFCURVE",
"74 714 CURVE",
"197 715 OFFCURVE",
"343 714 OFFCURVE",
"442 718 CURVE SMOOTH",
"469 719 OFFCURVE",
"470 759 OFFCURVE",
"442 758 CURVE SMOOTH",
"343 754 OFFCURVE",
"198 755 OFFCURVE",
"58 755 CURVE SMOOTH",
"46 755 OFFCURVE",
"35 752 OFFCURVE",
"35 735 CURVE SMOOTH",
"35 445 OFFCURVE",
"33 237 OFFCURVE",
"35 56 CURVE SMOOTH",
"35 21 OFFCURVE",
"51 0 OFFCURVE",
"90 0 CURVE SMOOTH"
);
},
{
closed = 1;
nodes = (
"357 864 OFFCURVE",
"371 931 OFFCURVE",
"374 953 CURVE SMOOTH",
"378 982 OFFCURVE",
"338 985 OFFCURVE",
"333 958 CURVE SMOOTH",
"330 941 OFFCURVE",
"325 899 OFFCURVE",
"268 897 CURVE SMOOTH",
"213 895 OFFCURVE",
"195 928 OFFCURVE",
"195 964 CURVE SMOOTH",
"195 992 OFFCURVE",
"155 991 OFFCURVE",
"155 964 CURVE SMOOTH",
"155 916 OFFCURVE",
"183 858 OFFCURVE",
"268 861 CURVE SMOOTH"
);
}
);
width = 518;
},
{
layerId = "7911D52E-6854-4A1B-8A16-F908BFF91E8F";
paths = (
{
closed = 1;
nodes = (
"252 1 OFFCURVE",
"366 4 OFFCURVE",
"485 6 CURVE SMOOTH",
"538 7 OFFCURVE",
"537 87 OFFCURVE",
"483 86 CURVE SMOOTH",
"365 84 OFFCURVE",
"275 82 OFFCURVE",
"135 80 CURVE SMOOTH",
"123 80 OFFCURVE",
"117 86 OFFCURVE",
"116 102 CURVE SMOOTH",
"115 182 OFFCURVE",
"117 243 OFFCURVE",
"115 334 CURVE",
"217 335 OFFCURVE",
"316 335 OFFCURVE",
"418 336 CURVE SMOOTH",
"473 337 OFFCURVE",
"473 419 OFFCURVE",
"417 419 CURVE SMOOTH",
"315 418 OFFCURVE",
"216 418 OFFCURVE",
"115 417 CURVE",
"115 501 OFFCURVE",
"114 564 OFFCURVE",
"116 674 CURVE",
"234 675 OFFCURVE",
"367 676 OFFCURVE",
"462 678 CURVE SMOOTH",
"515 679 OFFCURVE",
"517 759 OFFCURVE",
"462 758 CURVE SMOOTH",
"363 756 OFFCURVE",
"218 755 OFFCURVE",
"78 755 CURVE SMOOTH",
"51 755 OFFCURVE",
"35 741 OFFCURVE",
"35 715 CURVE SMOOTH",
"35 425 OFFCURVE",
"33 257 OFFCURVE",
"35 76 CURVE SMOOTH",
"35 27 OFFCURVE",
"62 0 OFFCURVE",
"110 0 CURVE SMOOTH"
);
},
{
closed = 1;
nodes = (
"349 854 OFFCURVE",
"390 881 OFFCURVE",
"404 940 CURVE SMOOTH",
"417 995 OFFCURVE",
"339 1007 OFFCURVE",
"330 956 CURVE SMOOTH",
"327 939 OFFCURVE",
"314 917 OFFCURVE",
"288 916 CURVE SMOOTH",
"262 915 OFFCURVE",
"239 927 OFFCURVE",
"237 959 CURVE SMOOTH",
"234 1011 OFFCURVE",
"162 1006 OFFCURVE",
"165 955 CURVE SMOOTH",
"169 890 OFFCURVE",
"218 847 OFFCURVE",
"289 851 CURVE SMOOTH"
);
}
);
width = 558;
}
);
leftKerningGroup = E;
rightKerningGroup = E;
unicode = 0114;
},
{
glyphname = Ecaron;
lastChange = "2019-01-09 18:28:31 +0000";
layers = (
{
layerId = "4692E1D1-BCA0-47EF-98E6-2E6F4483D11B";
paths = (
{
closed = 1;
nodes = (
"157 -7 OFFCURVE",
"312 -2 OFFCURVE",
"485 15 CURVE SMOOTH",
"516 18 OFFCURVE",
"514 57 OFFCURVE",
"484 55 CURVE SMOOTH",
"296 37 OFFCURVE",
"144 32 OFFCURVE",
"85 35 CURVE",
"78 146 OFFCURVE",
"76 291 OFFCURVE",
"76 353 CURVE",
"118 356 OFFCURVE",
"234 360 OFFCURVE",
"389 360 CURVE SMOOTH",
"420 360 OFFCURVE",
"420 404 OFFCURVE",
"392 404 CURVE SMOOTH",
"234 403 OFFCURVE",
"115 400 OFFCURVE",
"77 398 CURVE",
"77 457 OFFCURVE",
"79 598 OFFCURVE",
"88 714 CURVE",
"159 716 OFFCURVE",
"254 714 OFFCURVE",
"454 721 CURVE SMOOTH",
"484 722 OFFCURVE",
"484 763 OFFCURVE",
"455 762 CURVE SMOOTH",
"256 755 OFFCURVE",
"165 756 OFFCURVE",
"71 756 CURVE SMOOTH",
"56 756 OFFCURVE",
"47 747 OFFCURVE",
"46 733 CURVE SMOOTH",
"33 555 OFFCURVE",
"28 207 OFFCURVE",
"42 30 CURVE SMOOTH",
"44 11 OFFCURVE",
"48 -3 OFFCURVE",
"70 -4 CURVE SMOOTH"
);
},
{
closed = 1;
nodes = (
"291 859 OFFCURVE",
"343 923 OFFCURVE",
"368 961 CURVE SMOOTH",
"382 982 OFFCURVE",
"348 1001 OFFCURVE",
"334 979 CURVE SMOOTH",
"313 946 OFFCURVE",
"273 904 OFFCURVE",
"268 904 CURVE SMOOTH",
"263 904 OFFCURVE",
"227 949 OFFCURVE",
"209 976 CURVE SMOOTH",
"192 1001 OFFCURVE",
"157 983 OFFCURVE",
"174 959 CURVE SMOOTH",
"197 926 OFFCURVE",
"248 859 OFFCURVE",
"268 859 CURVE SMOOTH"
);
}
);
width = 541;
},
{
layerId = "7911D52E-6854-4A1B-8A16-F908BFF91E8F";
paths = (
{
closed = 1;
nodes = (
"177.62 -7.011 OFFCURVE",
"334.078 -1.969 OFFCURVE",
"508.376 15.018 CURVE SMOOTH",
"564.622 20.547 OFFCURVE",
"559.44 100.806 OFFCURVE",
"503.502 95.563 CURVE SMOOTH",
"332.794 79.565 OFFCURVE",
"194.319 73.598 OFFCURVE",
"126.917 74.984 CURVE",
"120.143 177.219 OFFCURVE",
"118 291 OFFCURVE",
"118 333 CURVE",
"172 336 OFFCURVE",
"278 339 OFFCURVE",
"410 339 CURVE SMOOTH",
"468 339 OFFCURVE",
"467 423 OFFCURVE",
"413 424 CURVE SMOOTH",
"277 426 OFFCURVE",
"172 422 OFFCURVE",
"119 419 CURVE",
"119 475 OFFCURVE",
"120 543 OFFCURVE",
"129 674 CURVE",
"198 676 OFFCURVE",
"291 678 OFFCURVE",
"475 681 CURVE SMOOTH",
"531 682 OFFCURVE",
"532 763 OFFCURVE",
"476 762 CURVE SMOOTH",
"276 758 OFFCURVE",
"187 760 OFFCURVE",
"91 756 CURVE SMOOTH",
"68 755 OFFCURVE",
"49 736 OFFCURVE",
"47 715 CURVE SMOOTH",
"31 546 OFFCURVE",
"29.06 216.615 OFFCURVE",
"43.497 48.826 CURVE SMOOTH",
"45.536 25.139 OFFCURVE",
"51.93 -2.224 OFFCURVE",
"90.215 -3.979 CURVE SMOOTH"
);
},
{
closed = 1;
nodes = (
"317 839 OFFCURVE",
"362 891 OFFCURVE",
"390 930 CURVE SMOOTH",
"421 973 OFFCURVE",
"357 1012 OFFCURVE",
"325 972 CURVE SMOOTH",
"309 952 OFFCURVE",
"295 935 OFFCURVE",
"290 928 CURVE",
"284 934 OFFCURVE",
"269 952 OFFCURVE",
"257 968 CURVE SMOOTH",
"224 1012 OFFCURVE",
"159 975 OFFCURVE",
"192 928 CURVE SMOOTH",
"217 893 OFFCURVE",
"264 839 OFFCURVE",
"290 839 CURVE SMOOTH"
);
}
);
width = 582;
}
);
leftKerningGroup = E;
rightKerningGroup = E;
unicode = 011A;
},
{
glyphname = Ecircumflex;
lastChange = "2019-05-01 12:32:33 +0000";
layers = (
{
layerId = "4692E1D1-BCA0-47EF-98E6-2E6F4483D11B";
paths = (
{
closed = 1;
nodes = (
"182.153 -13 OFFCURVE",
"336.658 -10 OFFCURVE",
"474.114 19.558 CURVE SMOOTH",
"504.547 26.044 OFFCURVE",
"494 68 OFFCURVE",
"468 62 CURVE SMOOTH",
"331 30 OFFCURVE",
"186.186 26.2 OFFCURVE",
"85.858 28.935 CURVE",
"77.908 167.274 OFFCURVE",
"77 305 OFFCURVE",
"78 362 CURVE",
"145 359 OFFCURVE",
"322 360 OFFCURVE",
"408 372 CURVE SMOOTH",
"439 376 OFFCURVE",
"434 419 OFFCURVE",
"405 415 CURVE SMOOTH",
"319 403 OFFCURVE",
"144 402 OFFCURVE",
"78 408 CURVE",
"78 471 OFFCURVE",
"80 601 OFFCURVE",
"87 698 CURVE",
"171 693 OFFCURVE",
"331 693 OFFCURVE",
"462 709 CURVE SMOOTH",
"493 713 OFFCURVE",
"488 755 OFFCURVE",
"460 751 CURVE SMOOTH",
"327 732 OFFCURVE",
"125 736 OFFCURVE",
"71 741 CURVE SMOOTH",
"50 743 OFFCURVE",
"45 727 OFFCURVE",
"44 720 CURVE",
"32 531 OFFCURVE",
"30 235 OFFCURVE",
"42.015 16.469 CURVE SMOOTH",
"43.093 -4 OFFCURVE",
"53.857 -11 OFFCURVE",
"67.475 -11 CURVE SMOOTH"
);
},
{
closed = 1;
nodes = (
"212 888 OFFCURVE",
"241 924 OFFCURVE",
"270 961 CURVE",
"291 932 OFFCURVE",
"326 883 OFFCURVE",
"346 853 CURVE SMOOTH",
"363 827 OFFCURVE",
"396 852 OFFCURVE",
"381 874 CURVE SMOOTH",
"349 921 OFFCURVE",
"304 982 OFFCURVE",
"292 999 CURVE SMOOTH",
"279 1018 OFFCURVE",
"262 1014 OFFCURVE",
"252 1002 CURVE SMOOTH",
"237 984 OFFCURVE",
"177 908 OFFCURVE",
"152 878 CURVE SMOOTH",
"132 854 OFFCURVE",
"166 831 OFFCURVE",
"183 852 CURVE"
);
}
);
width = 527;
},
{
layerId = "7911D52E-6854-4A1B-8A16-F908BFF91E8F";
paths = (
{
closed = 1;
nodes = (
"201.419 -13.003 OFFCURVE",
"358.222 -8.959 OFFCURVE",
"497.565 20.005 CURVE SMOOTH",
"554.275 31.793 OFFCURVE",
"534.47 109.804 OFFCURVE",
"482.77 99.162 CURVE SMOOTH",
"355.11 72.884 OFFCURVE",
"220.397 66.003 OFFCURVE",
"122.044 67.535 CURVE",
"115.719 202.532 OFFCURVE",
"115 295 OFFCURVE",
"114 341 CURVE",
"199 339 OFFCURVE",
"351 342 OFFCURVE",
"431 353 CURVE SMOOTH",
"487 361 OFFCURVE",
"477 442 OFFCURVE",
"422 435 CURVE SMOOTH",
"343 425 OFFCURVE",
"200 422 OFFCURVE",
"115 426 CURVE",
"115 505 OFFCURVE",
"116 575 OFFCURVE",
"121 655 CURVE",
"173 652 OFFCURVE",
"283 646 OFFCURVE",
"484 666 CURVE SMOOTH",
"541 672 OFFCURVE",
"530 758 OFFCURVE",
"476 750 CURVE SMOOTH",
"344 730 OFFCURVE",
"146 736 OFFCURVE",
"92 741 CURVE SMOOTH",
"56 744 OFFCURVE",
"44 711 OFFCURVE",
"43 701 CURVE",
"32 512 OFFCURVE",
"30.597 254.442 OFFCURVE",
"41.289 35.403 CURVE SMOOTH",
"42.784 4.777 OFFCURVE",
"67.172 -11 OFFCURVE",
"86.721 -11 CURVE"
);
},
{
closed = 1;
nodes = (
"259 879 OFFCURVE",
"273 902 OFFCURVE",
"289 924 CURVE",
"298 909 OFFCURVE",
"317 879 OFFCURVE",
"336 852 CURVE SMOOTH",
"369 805 OFFCURVE",
"434 853 OFFCURVE",
"402 896 CURVE SMOOTH",
"370 940 OFFCURVE",
"337 984 OFFCURVE",
"325 1001 CURVE SMOOTH",
"302 1033 OFFCURVE",
"271 1026 OFFCURVE",
"253 1005 CURVE SMOOTH",
"238 987 OFFCURVE",
"196 931 OFFCURVE",
"172 901 CURVE SMOOTH",
"135 854 OFFCURVE",
"201 810 OFFCURVE",
"234 849 CURVE SMOOTH"
);
}
);
width = 566;
}
);
leftKerningGroup = E;
rightKerningGroup = E;
unicode = 00CA;
},
{
glyphname = Edieresis;
lastChange = "2019-01-09 18:30:05 +0000";
layers = (
{
layerId = "4692E1D1-BCA0-47EF-98E6-2E6F4483D11B";
paths = (
{
closed = 1;
nodes = (
"151.605 -5 OFFCURVE",
"321.221 -4 OFFCURVE",
"466.905 9.861 CURVE SMOOTH",
"497.805 12.72 OFFCURVE",
"496.107 54 OFFCURVE",
"465.867 51.129 CURVE SMOOTH",
"325.257 37.777 OFFCURVE",
"154.647 33.425 OFFCURVE",
"88.036 34.074 CURVE",
"77.523 135.694 OFFCURVE",
"75 288 OFFCURVE",
"75 359 CURVE",
"181 364 OFFCURVE",
"335 366 OFFCURVE",
"433 369 CURVE SMOOTH",
"465 370 OFFCURVE",
"463 410 OFFCURVE",
"434 410 CURVE SMOOTH",
"335 410 OFFCURVE",
"181 404 OFFCURVE",
"76 402 CURVE",
"76 459 OFFCURVE",
"77 578 OFFCURVE",
"83 697 CURVE",
"193 703 OFFCURVE",
"327 708 OFFCURVE",
"455 712 CURVE SMOOTH",
"487 713 OFFCURVE",
"482 753 OFFCURVE",
"454 752 CURVE SMOOTH",
"326 747 OFFCURVE",
"189 742 OFFCURVE",
"84 737 CURVE",
"85 745 LINE SMOOTH",
"88 768 OFFCURVE",
"45 770 OFFCURVE",
"44 744 CURVE SMOOTH",
"36 527 OFFCURVE",
"25 310 OFFCURVE",
"47.206 25.159 CURVE SMOOTH",
"49 6 OFFCURVE",
"56.537 -5 OFFCURVE",
"85.321 -5 CURVE SMOOTH"
);
},
{
closed = 1;
nodes = (
"191 862 OFFCURVE",
"243 889 OFFCURVE",
"223 924 CURVE SMOOTH",
"204 958 OFFCURVE",
"156 928 OFFCURVE",
"173 896 CURVE SMOOTH"
);
},
{
closed = 1;
nodes = (
"354 865 OFFCURVE",
"392 904 OFFCURVE",
"364 931 CURVE SMOOTH",
"334 959 OFFCURVE",
"300 913 OFFCURVE",
"325 891 CURVE SMOOTH"
);
}
);
width = 523;
},
{
layerId = "7911D52E-6854-4A1B-8A16-F908BFF91E8F";
paths = (
{
closed = 1;
nodes = (
"178 -6 OFFCURVE",
"343 -3 OFFCURVE",
"490 10 CURVE SMOOTH",
"547 15 OFFCURVE",
"541 94 OFFCURVE",
"483 89 CURVE SMOOTH",
"339 78 OFFCURVE",
"205 73 OFFCURVE",
"127 75 CURVE",
"116 180 OFFCURVE",
"115 295 OFFCURVE",
"116 340 CURVE",
"221 344 OFFCURVE",
"362 347 OFFCURVE",
"454 349 CURVE SMOOTH",
"513 350 OFFCURVE",
"510 430 OFFCURVE",
"455 430 CURVE SMOOTH",
"362 430 OFFCURVE",
"222 424 OFFCURVE",
"118 421 CURVE",
"118 462 OFFCURVE",
"117 542 OFFCURVE",
"123 658 CURVE",
"228 663 OFFCURVE",
"356 666 OFFCURVE",
"477 672 CURVE SMOOTH",
"536 675 OFFCURVE",
"527 754 OFFCURVE",
"474 752 CURVE SMOOTH",
"355 748 OFFCURVE",
"228 743 OFFCURVE",
"127 738 CURVE",
"127 746 LINE",
"130 782 OFFCURVE",
"48 790 OFFCURVE",
"45 734 CURVE SMOOTH",
"33 518 OFFCURVE",
"28 310 OFFCURVE",
"48 44 CURVE SMOOTH",
"50 19 OFFCURVE",
"67 -5 OFFCURVE",
"106 -5 CURVE"
);
},
{
closed = 1;
nodes = (
"208 811 OFFCURVE",
"296 876 OFFCURVE",
"261 934 CURVE SMOOTH",
"227 990 OFFCURVE",
"154 943 OFFCURVE",
"177 886 CURVE SMOOTH"
);
},
{
closed = 1;
nodes = (
"381 813 OFFCURVE",
"446 900 OFFCURVE",
"399 945 CURVE SMOOTH",
"349 993 OFFCURVE",
"298 922 OFFCURVE",
"333 876 CURVE SMOOTH"
);
}
);
width = 564;
}
);
leftKerningGroup = E;
rightKerningGroup = E;
unicode = 00CB;
},
{
glyphname = Edotaccent;
lastChange = "2019-01-09 18:31:01 +0000";
layers = (
{
layerId = "4692E1D1-BCA0-47EF-98E6-2E6F4483D11B";
paths = (
{
closed = 1;
nodes = (
"203.144 9.992 OFFCURVE",
"376.687 15.549 OFFCURVE",
"484.51 10.682 CURVE SMOOTH",
"513.884 9.356 OFFCURVE",
"517.607 50.099 OFFCURVE",
"485.245 51.284 CURVE SMOOTH",
"329.871 56.974 OFFCURVE",
"130.135 44.169 OFFCURVE",
"94.253 40.733 CURVE",
"78.316 160.235 OFFCURVE",
"74 323 OFFCURVE",
"76 382 CURVE",
"232 384 OFFCURVE",
"327 386 OFFCURVE",
"413 392 CURVE SMOOTH",
"444 394 OFFCURVE",
"440 434 OFFCURVE",
"412 432 CURVE SMOOTH",
"294 424 OFFCURVE",
"180 423 OFFCURVE",
"78 424 CURVE SMOOTH",
"78 424 OFFCURVE",
"79 566 OFFCURVE",
"101 718 CURVE",
"150 721 OFFCURVE",
"323 724 OFFCURVE",
"468 724 CURVE SMOOTH",
"500 724 OFFCURVE",
"501 765 OFFCURVE",
"472 765 CURVE SMOOTH",
"313 765 OFFCURVE",
"147 763 OFFCURVE",
"63 758 CURVE",
"39 585 OFFCURVE",
"18 361 OFFCURVE",
"51.404 38.089 CURVE SMOOTH",
"54 9 OFFCURVE",
"73.689 -2 OFFCURVE",
"107.216 0.996 CURVE SMOOTH"
);
},
{
closed = 1;
nodes = (
"273 861 OFFCURVE",
"324 885 OFFCURVE",
"304 918 CURVE SMOOTH",
"283 952 OFFCURVE",
"232 925 OFFCURVE",
"253 892 CURVE SMOOTH"
);
}
);
width = 542;
},
{
layerId = "7911D52E-6854-4A1B-8A16-F908BFF91E8F";
paths = (
{
closed = 1;
nodes = (
"223.484 10.022 OFFCURVE",
"396.641 15.538 OFFCURVE",
"503.695 10.702 CURVE SMOOTH",
"558.863 8.212 OFFCURVE",
"564.249 89.103 OFFCURVE",
"505.064 91.271 CURVE SMOOTH",
"367.027 96.326 OFFCURVE",
"195.181 87.876 OFFCURVE",
"130.676 82.348 CURVE",
"117.22 190.159 OFFCURVE",
"115 322 OFFCURVE",
"115 363 CURVE",
"221 363 OFFCURVE",
"324 364 OFFCURVE",
"432 372 CURVE SMOOTH",
"487 376 OFFCURVE",
"482 455 OFFCURVE",
"429 452 CURVE SMOOTH",
"319 446 OFFCURVE",
"214 443 OFFCURVE",
"118 445 CURVE",
"120 488 OFFCURVE",
"117 506 OFFCURVE",
"138 679 CURVE",
"203 683 OFFCURVE",
"355 687 OFFCURVE",
"487 685 CURVE SMOOTH",
"545 684 OFFCURVE",
"546 764 OFFCURVE",
"491 765 CURVE SMOOTH",
"321 768 OFFCURVE",
"141 762 OFFCURVE",
"64 757 CURVE",
"39 581 OFFCURVE",
"18 389 OFFCURVE",
"50.629 55.744 CURVE SMOOTH",
"54 17 OFFCURVE",
"88.096 -2.498 OFFCURVE",
"128.083 1.075 CURVE SMOOTH"
);
},
{
closed = 1;
nodes = (
"285 825 OFFCURVE",
"378 870 OFFCURVE",
"342 930 CURVE SMOOTH",
"307 988 OFFCURVE",
"216 940 OFFCURVE",
"252 880 CURVE SMOOTH"
);
}
);
width = 581;
}
);
leftKerningGroup = E;
rightKerningGroup = E;
unicode = 0116;
},
{
glyphname = Edotbelow;
lastChange = "2019-01-09 18:32:45 +0000";
layers = (
{
layerId = "4692E1D1-BCA0-47EF-98E6-2E6F4483D11B";
paths = (
{
closed = 1;
nodes = (
"66 768 OFFCURVE",
"47 759 OFFCURVE",
"45 730 CURVE SMOOTH",
"26 457 OFFCURVE",
"34 203 OFFCURVE",
"49 34 CURVE SMOOTH",
"51 7 OFFCURVE",
"70 -9 OFFCURVE",
"95 -10 CURVE SMOOTH",
"212 -12 OFFCURVE",
"315 -11 OFFCURVE",
"474 -6 CURVE SMOOTH",
"503 -5 OFFCURVE",
"504 35 OFFCURVE",
"472 33 CURVE SMOOTH",
"318 27 OFFCURVE",
"208 25 OFFCURVE",
"111 27 CURVE SMOOTH",
"97 28 OFFCURVE",
"92 35 OFFCURVE",
"90 46 CURVE SMOOTH",
"75 194 OFFCURVE",
"76 391 OFFCURVE",
"76 391 CURVE SMOOTH",
"214 391 OFFCURVE",
"299 392 OFFCURVE",
"406 396 CURVE SMOOTH",
"434 397 OFFCURVE",
"436 438 OFFCURVE",
"405 437 CURVE SMOOTH",
"298 434 OFFCURVE",
"213 432 OFFCURVE",
"77 433 CURVE",
"76 478 OFFCURVE",
"76 598 OFFCURVE",
"86 712 CURVE SMOOTH",
"87 723 OFFCURVE",
"97 727 OFFCURVE",
"104 727 CURVE SMOOTH",
"190 730 OFFCURVE",
"331 730 OFFCURVE",
"467 730 CURVE SMOOTH",
"499 730 OFFCURVE",
"496 771 OFFCURVE",
"467 771 CURVE SMOOTH",
"359 771 OFFCURVE",
"195 772 OFFCURVE",
"99 769 CURVE SMOOTH"
);
},
{
closed = 1;
nodes = (
"248 -147 OFFCURVE",
"298 -174 OFFCURVE",
"315 -141 CURVE SMOOTH",
"332 -108 OFFCURVE",
"282 -84 OFFCURVE",
"265 -115 CURVE SMOOTH"
);
}
);
width = 530;
},
{
layerId = "7911D52E-6854-4A1B-8A16-F908BFF91E8F";
paths = (
{
closed = 1;
nodes = (
"74 768 OFFCURVE",
"49 749 OFFCURVE",
"46 711 CURVE SMOOTH",
"24 437 OFFCURVE",
"37 216 OFFCURVE",
"50 52 CURVE SMOOTH",
"53 16 OFFCURVE",
"80 -9 OFFCURVE",
"117 -10 CURVE SMOOTH",
"233 -12 OFFCURVE",
"336 -11 OFFCURVE",
"496 -6 CURVE SMOOTH",
"551 -4 OFFCURVE",
"552 73 OFFCURVE",
"493 71 CURVE SMOOTH",
"338 66 OFFCURVE",
"246 65 OFFCURVE",
"150 66 CURVE SMOOTH",
"141 66 OFFCURVE",
"133 75 OFFCURVE",
"132 88 CURVE SMOOTH",
"125 152 OFFCURVE",
"116 301 OFFCURVE",
"118 371 CURVE",
"245 371 OFFCURVE",
"326 372 OFFCURVE",
"429 376 CURVE SMOOTH",
"482 378 OFFCURVE",
"484 459 OFFCURVE",
"426 458 CURVE SMOOTH",
"271 455 OFFCURVE",
"202 454 OFFCURVE",
"118 455 CURVE",
"118 503 OFFCURVE",
"115 580 OFFCURVE",
"126 673 CURVE SMOOTH",
"127 681 OFFCURVE",
"133 686 OFFCURVE",
"139 686 CURVE SMOOTH",
"224 686 OFFCURVE",
"352 689 OFFCURVE",
"488 691 CURVE SMOOTH",
"548 692 OFFCURVE",
"542 771 OFFCURVE",
"488 771 CURVE SMOOTH",
"380 771 OFFCURVE",
"217 771 OFFCURVE",
"120 769 CURVE SMOOTH"
);
},
{
closed = 1;
nodes = (
"240 -161 OFFCURVE",
"325 -206 OFFCURVE",
"355 -150 CURVE SMOOTH",
"385 -94 OFFCURVE",
"298 -52 OFFCURVE",
"269 -106 CURVE SMOOTH"
);
}
);
width = 571;
}
);
leftKerningGroup = E;
rightKerningGroup = E;
unicode = 1EB8;
},
{
glyphname = Egrave;
lastChange = "2019-01-09 18:38:12 +0000";
layers = (
{
layerId = "4692E1D1-BCA0-47EF-98E6-2E6F4483D11B";
paths = (
{
closed = 1;
nodes = (
"151.848 -12 OFFCURVE",
"329.228 23.47 OFFCURVE",
"487.068 12.997 CURVE SMOOTH",
"517.962 10.947 OFFCURVE",
"522.225 53.54 OFFCURVE",
"490.185 55.047 CURVE SMOOTH",
"331.375 62.515 OFFCURVE",
"155 31 OFFCURVE",
"95.41 35.955 CURVE",
"79.589 120.352 OFFCURVE",
"75 294 OFFCURVE",
"76 380 CURVE",
"175 373 OFFCURVE",
"283 372 OFFCURVE",
"395 389 CURVE SMOOTH",
"427 394 OFFCURVE",
"423 436 OFFCURVE",
"394 431 CURVE SMOOTH",
"279 411 OFFCURVE",
"177 416 OFFCURVE",
"78 423 CURVE",
"78 489 OFFCURVE",
"82 629 OFFCURVE",
"97 717 CURVE",
"172 723 OFFCURVE",
"355 722 OFFCURVE",
"459 714 CURVE SMOOTH",
"489 712 OFFCURVE",
"490 754 OFFCURVE",
"464 756 CURVE SMOOTH",
"355 764 OFFCURVE",
"192 767 OFFCURVE",
"85 761 CURVE SMOOTH",
"68 760 OFFCURVE",
"59 757 OFFCURVE",
"56 741 CURVE SMOOTH",
"29 598 OFFCURVE",
"22.743 131.613 OFFCURVE",
"58.849 -7 CURVE"
);
},
{
closed = 1;
nodes = (
"331 846 OFFCURVE",
"365 871 OFFCURVE",
"348 892 CURVE SMOOTH",
"326 919 OFFCURVE",
"265 991 OFFCURVE",
"232 1028 CURVE SMOOTH",
"211 1052 OFFCURVE",
"176 1025 OFFCURVE",
"200 999 CURVE SMOOTH",
"230 967 OFFCURVE",
"292 893 OFFCURVE",
"312 869 CURVE SMOOTH"
);
}
);
width = 546;
},
{
layerId = "7911D52E-6854-4A1B-8A16-F908BFF91E8F";
paths = (
{
closed = 1;
nodes = (
"154.269 -15.925 OFFCURVE",
"341.971 22.875 OFFCURVE",
"505.253 13.041 CURVE SMOOTH",
"561.695 9.642 OFFCURVE",
"569.937 90.858 OFFCURVE",
"510.634 94.025 CURVE SMOOTH",
"361.211 102.004 OFFCURVE",
"208.252 75.688 OFFCURVE",
"129.825 74.627 CURVE",
"115.358 162.747 OFFCURVE",
"114 308 OFFCURVE",
"114 358 CURVE",
"208 354 OFFCURVE",
"312 355 OFFCURVE",
"417 369 CURVE SMOOTH",
"475 377 OFFCURVE",
"470 459 OFFCURVE",
"411 451 CURVE SMOOTH",
"304 437 OFFCURVE",
"214 436 OFFCURVE",
"118 442 CURVE",
"119 486 OFFCURVE",
"121 587 OFFCURVE",
"133 678 CURVE",
"217 683 OFFCURVE",
"373 681 OFFCURVE",
"478 674 CURVE SMOOTH",
"535 670 OFFCURVE",
"536 752 OFFCURVE",
"485 756 CURVE SMOOTH",
"379 764 OFFCURVE",
"211 766 OFFCURVE",
"104 761 CURVE SMOOTH",
"84 760 OFFCURVE",
"61 752 OFFCURVE",
"56 725 CURVE SMOOTH",
"28 575 OFFCURVE",
"22.735 120.382 OFFCURVE",
"63.031 -5.825 CURVE"
);
},
{
closed = 1;
nodes = (
"344 842 OFFCURVE",
"410 871 OFFCURVE",
"375 915 CURVE SMOOTH",
"354 941 OFFCURVE",
"308 996 OFFCURVE",
"275 1033 CURVE SMOOTH",
"238 1074 OFFCURVE",
"171 1024 OFFCURVE",
"214 977 CURVE SMOOTH",
"243 945 OFFCURVE",
"282 883 OFFCURVE",
"308 866 CURVE SMOOTH"
);
}
);
width = 586;
}
);
leftKerningGroup = E;
rightKerningGroup = E;
unicode = 00C8;
},
{
glyphname = Emacron;
lastChange = "2019-05-01 13:46:53 +0000";
layers = (
{
layerId = "4692E1D1-BCA0-47EF-98E6-2E6F4483D11B";
paths = (
{
closed = 1;
nodes = (
"141 0 OFFCURVE",
"358 1 OFFCURVE",
"476 9 CURVE SMOOTH",
"506 11 OFFCURVE",
"502 50 OFFCURVE",
"474 48 CURVE SMOOTH",
"341 40 OFFCURVE",
"208 40 OFFCURVE",
"138 44 CURVE SMOOTH",
"96 46 OFFCURVE",
"98 53 OFFCURVE",
"98 82 CURVE SMOOTH",
"97 130 OFFCURVE",
"99 333 OFFCURVE",
"101 376 CURVE",
"214 381 OFFCURVE",
"357 381 OFFCURVE",
"428 381 CURVE SMOOTH",
"460 381 OFFCURVE",
"459 420 OFFCURVE",
"430 421 CURVE SMOOTH",
"356 424 OFFCURVE",
"215 421 OFFCURVE",
"102 417 CURVE",
"105 546 OFFCURVE",
"105 647 OFFCURVE",
"108 722 CURVE",
"471 724 LINE SMOOTH",
"500 724 OFFCURVE",
"500 764 OFFCURVE",
"472 764 CURVE SMOOTH",
"45 762 LINE SMOOTH",
"18 762 OFFCURVE",
"17 722 OFFCURVE",
"44 722 CURVE SMOOTH",
"66 722 LINE",
"64 646 OFFCURVE",
"56 81 OFFCURVE",
"56 48 CURVE SMOOTH",
"56 29 OFFCURVE",
"69 11 OFFCURVE",
"101 6 CURVE SMOOTH"
);
},
{
closed = 1;
nodes = (
"211 913 OFFCURVE",
"327 919 OFFCURVE",
"374 919 CURVE SMOOTH",
"402 919 OFFCURVE",
"403 958 OFFCURVE",
"373 958 CURVE SMOOTH",
"325 958 OFFCURVE",
"206 953 OFFCURVE",
"155 949 CURVE SMOOTH",
"128 947 OFFCURVE",
"128 908 OFFCURVE",
"159 910 CURVE SMOOTH"
);
}
);
width = 531;
},
{
layerId = "7911D52E-6854-4A1B-8A16-F908BFF91E8F";
paths = (
{
closed = 1;
nodes = (
"160 0 OFFCURVE",
"379 1 OFFCURVE",
"497 9 CURVE SMOOTH",
"553 12 OFFCURVE",
"547 92 OFFCURVE",
"492 88 CURVE SMOOTH",
"360 80 OFFCURVE",
"229 79 OFFCURVE",
"159 83 CURVE SMOOTH",
"145 84 OFFCURVE",
"138 88 OFFCURVE",
"138 101 CURVE SMOOTH",
"138 145 OFFCURVE",
"140 297 OFFCURVE",
"142 357 CURVE",
"252 361 OFFCURVE",
"381 361 OFFCURVE",
"448 361 CURVE SMOOTH",
"506 361 OFFCURVE",
"505 440 OFFCURVE",
"451 441 CURVE SMOOTH",
"381 442 OFFCURVE",
"255 441 OFFCURVE",
"142 438 CURVE",
"144 526 OFFCURVE",
"145 614 OFFCURVE",
"147 682 CURVE",
"490 684 LINE SMOOTH",
"547 684 OFFCURVE",
"546 764 OFFCURVE",
"491 764 CURVE SMOOTH",
"64 762 LINE SMOOTH",
"12 762 OFFCURVE",
"10 683 OFFCURVE",
"63 683 CURVE SMOOTH",
"65 683 LINE",
"63 561 OFFCURVE",
"56 99 OFFCURVE",
"56 68 CURVE SMOOTH",
"55 43 OFFCURVE",
"77 12 OFFCURVE",
"118 6 CURVE SMOOTH"
);
},
{
closed = 1;
nodes = (
"232 894 OFFCURVE",
"347 899 OFFCURVE",
"394 899 CURVE SMOOTH",
"447 899 OFFCURVE",
"449 979 OFFCURVE",
"393 978 CURVE SMOOTH",
"344 977 OFFCURVE",
"224 973 OFFCURVE",
"173 969 CURVE SMOOTH",
"122 965 OFFCURVE",
"121 885 OFFCURVE",
"180 890 CURVE SMOOTH"
);
}
);
width = 570;
}
);
leftKerningGroup = E;
rightKerningGroup = E;
unicode = 0112;
},
{
glyphname = Eogonek;
lastChange = "2026-01-28 13:19:19 +0000";
layers = (
{
anchors = (
{
name = top;
position = "{274, 766}";
}
);
layerId = "4692E1D1-BCA0-47EF-98E6-2E6F4483D11B";
paths = (
{
closed = 1;
nodes = (
"509.007 -138.039 OFFCURVE",
"504.176 -102 OFFCURVE",
"478.898 -107 CURVE SMOOTH",
"426.424 -117.379 OFFCURVE",
"391.213 -94 OFFCURVE",
"387.453 -57 CURVE SMOOTH",
"383.992 -23 OFFCURVE",
"420.124 9.234 OFFCURVE",
"450.468 26.407 CURVE SMOOTH",
"473.297 39.327 OFFCURVE",
"464.102 77.07 OFFCURVE",
"436.395 72.265 CURVE SMOOTH",
"269.649 43.346 OFFCURVE",
"146.399 39.83 OFFCURVE",
"83.191 41.095 CURVE",
"75.353 213.745 OFFCURVE",
"76 349 OFFCURVE",
"78 380 CURVE",
"138 383 OFFCURVE",
"247 388 OFFCURVE",
"405 383 CURVE SMOOTH",
"435 382 OFFCURVE",
"438 424 OFFCURVE",
"409 425 CURVE SMOOTH",
"244 431 OFFCURVE",
"141 426 OFFCURVE",
"80 423 CURVE",
"79 451 OFFCURVE",
"84 557 OFFCURVE",
"96 716 CURVE",
"176 723 OFFCURVE",
"352 725 OFFCURVE",
"434 711 CURVE SMOOTH",
"463 706 OFFCURVE",
"470 749 OFFCURVE",
"440 754 CURVE SMOOTH",
"357 768 OFFCURVE",
"139 765 OFFCURVE",
"55 754 CURVE",
"35 473 OFFCURVE",
"26 337 OFFCURVE",
"41.959 35.55 CURVE SMOOTH",
"43 16 OFFCURVE",
"47.335 1.457 OFFCURVE",
"72.328 1.13 CURVE SMOOTH",
"160.749 0 OFFCURVE",
"268.463 6.69 OFFCURVE",
"387.897 23.728 CURVE",
"365.207 7 OFFCURVE",
"342.926 -23 OFFCURVE",
"347.059 -60 CURVE SMOOTH",
"354.319 -125 OFFCURVE",
"412.775 -155 OFFCURVE",
"480.86 -143 CURVE SMOOTH"
);
}
);
width = 504;
},
{
anchors = (
{
name = top;
position = "{274, 766}";
}
);
layerId = "7911D52E-6854-4A1B-8A16-F908BFF91E8F";
paths = (
{
closed = 1;
nodes = (
"556.704 -132.895 OFFCURVE",
"546.521 -61.869 OFFCURVE",
"493.741 -71.285 CURVE SMOOTH",
"451.575 -78.807 OFFCURVE",
"428.493 -58.352 OFFCURVE",
"426.559 -34.978 CURVE SMOOTH",
"424.349 -8.271 OFFCURVE",
"446.586 20.561 OFFCURVE",
"475.527 33.001 CURVE SMOOTH",
"526.317 54.834 OFFCURVE",
"502.542 120.702 OFFCURVE",
"450.186 111.971 CURVE SMOOTH",
"300.199 86.958 OFFCURVE",
"185.661 80.697 OFFCURVE",
"120.544 80.883 CURVE",
"112.648 218.715 OFFCURVE",
"113 326 OFFCURVE",
"116 361 CURVE",
"179 364 OFFCURVE",
"280 368 OFFCURVE",
"422 363 CURVE SMOOTH",
"478 361 OFFCURVE",
"484 443 OFFCURVE",
"428 445 CURVE SMOOTH",
"280 450 OFFCURVE",
"182 447 OFFCURVE",
"119 444 CURVE",
"120 476 OFFCURVE",
"123 549 OFFCURVE",
"133 677 CURVE",
"218 683 OFFCURVE",
"374 684 OFFCURVE",
"448 672 CURVE SMOOTH",
"503 663 OFFCURVE",
"517 745 OFFCURVE",
"461 753 CURVE SMOOTH",
"370 766 OFFCURVE",
"123 764 OFFCURVE",
"55 751 CURVE",
"36 469 OFFCURVE",
"27 343 OFFCURVE",
"40.2 54.403 CURVE SMOOTH",
"41 32 OFFCURVE",
"50.531 1.652 OFFCURVE",
"90.274 1.132 CURVE SMOOTH",
"166.501 0.158 OFFCURVE",
"265.035 4.974 OFFCURVE",
"362.663 17.082 CURVE",
"352.476 1.824 OFFCURVE",
"342.962 -20.48 OFFCURVE",
"345.391 -42.22 CURVE SMOOTH",
"354.064 -119.879 OFFCURVE",
"425.925 -156.559 OFFCURVE",
"502.539 -142.696 CURVE SMOOTH"
);
}
);
width = 543;
}
);
leftKerningGroup = E;
rightKerningGroup = E;
unicode = 0118;
},
{
glyphname = Etilde;
lastChange = "2019-10-20 12:58:07 +0000";
layers = (
{
layerId = "4692E1D1-BCA0-47EF-98E6-2E6F4483D11B";
paths = (
{
closed = 1;
nodes = (
"54 760 OFFCURVE",
"43 753 OFFCURVE",
"42 733 CURVE SMOOTH",
"31 514 OFFCURVE",
"31.727 207.902 OFFCURVE",
"44.118 19.885 CURVE SMOOTH",
"44.631 12.103 OFFCURVE",
"49.982 -1.924 OFFCURVE",
"70.679 -1.403 CURVE SMOOTH",
"125.25 -0.028 OFFCURVE",
"283.802 -2.523 OFFCURVE",
"462.694 -1.237 CURVE SMOOTH",
"490.835 -1.034 OFFCURVE",
"493 38 OFFCURVE",
"463 38 CURVE SMOOTH",
"332 38 OFFCURVE",
"171.14 38.193 OFFCURVE",
"86.846 38.739 CURVE SMOOTH",
"78.235 156.338 OFFCURVE",
"77 313 OFFCURVE",
"78 384 CURVE",
"204 386 OFFCURVE",
"292 389 OFFCURVE",
"416 389 CURVE SMOOTH",
"445 389 OFFCURVE",
"448 432 OFFCURVE",
"417 432 CURVE SMOOTH",
"292 432 OFFCURVE",
"204 428 OFFCURVE",
"79 427 CURVE",
"77 471 OFFCURVE",
"78 586 OFFCURVE",
"86 717 CURVE",
"186 720 OFFCURVE",
"331 719 OFFCURVE",
"468 719 CURVE SMOOTH",
"495 719 OFFCURVE",
"498 760 OFFCURVE",
"468 760 CURVE SMOOTH",
"330 760 OFFCURVE",
"184 760 OFFCURVE",
"67 760 CURVE SMOOTH"
);
},
{
closed = 1;
nodes = (
"378 872 OFFCURVE",
"410 926 OFFCURVE",
"413 953 CURVE SMOOTH",
"417 986 OFFCURVE",
"376 988 OFFCURVE",
"372 961 CURVE SMOOTH",
"368 933 OFFCURVE",
"346 911 OFFCURVE",
"309 912 CURVE SMOOTH",
"255 913 OFFCURVE",
"247 979 OFFCURVE",
"181 982 CURVE SMOOTH",
"123 985 OFFCURVE",
"98 942 OFFCURVE",
"89 912 CURVE SMOOTH",
"80 883 OFFCURVE",
"121 876 OFFCURVE",
"129 900 CURVE SMOOTH",
"136 920 OFFCURVE",
"150 947 OFFCURVE",
"180 945 CURVE SMOOTH",
"222 942 OFFCURVE",
"229 880 OFFCURVE",
"306 876 CURVE SMOOTH"
);
}
);
width = 523;
},
{
layerId = "7911D52E-6854-4A1B-8A16-F908BFF91E8F";
paths = (
{
closed = 1;
nodes = (
"58 760 OFFCURVE",
"41 743 OFFCURVE",
"40 714 CURVE SMOOTH",
"33 505 OFFCURVE",
"30 217 OFFCURVE",
"42 39 CURVE SMOOTH",
"43 14 OFFCURVE",
"63 -2 OFFCURVE",
"89 -1 CURVE SMOOTH",
"143 0 OFFCURVE",
"301 -3 OFFCURVE",
"480 -1 CURVE SMOOTH",
"534 -1 OFFCURVE",
"538 78 OFFCURVE",
"480 79 CURVE SMOOTH",
"370 80 OFFCURVE",
"250 80 OFFCURVE",
"123 80 CURVE",
"117 196 OFFCURVE",
"115 276 OFFCURVE",
"115 364 CURVE",
"231 367 OFFCURVE",
"315 367 OFFCURVE",
"434 369 CURVE SMOOTH",
"488 370 OFFCURVE",
"493 452 OFFCURVE",
"435 452 CURVE SMOOTH",
"305 452 OFFCURVE",
"205 449 OFFCURVE",
"116 448 CURVE",
"116 556 OFFCURVE",
"119 621 OFFCURVE",
"124 679 CURVE",
"222 680 OFFCURVE",
"358 681 OFFCURVE",
"486 681 CURVE SMOOTH",
"538 681 OFFCURVE",
"543 760 OFFCURVE",
"486 760 CURVE SMOOTH",
"347 760 OFFCURVE",
"202 760 OFFCURVE",
"85 760 CURVE SMOOTH"
);
},
{
closed = 1;
nodes = (
"387 852 OFFCURVE",
"443 895 OFFCURVE",
"450 951 CURVE SMOOTH",
"458 1011 OFFCURVE",
"375 1015 OFFCURVE",
"370 963 CURVE SMOOTH",
"368 942 OFFCURVE",
"351 929 OFFCURVE",
"327 930 CURVE SMOOTH",
"283 932 OFFCURVE",
"277 998 OFFCURVE",
"200 1002 CURVE SMOOTH",
"146 1005 OFFCURVE",
"103 973 OFFCURVE",
"87 917 CURVE SMOOTH",
"72 865 OFFCURVE",
"150 844 OFFCURVE",
"166 894 CURVE SMOOTH",
"173 916 OFFCURVE",
"183 928 OFFCURVE",
"196 927 CURVE SMOOTH",
"229 924 OFFCURVE",
"236 861 OFFCURVE",
"322 856 CURVE SMOOTH"
);
}
);
width = 561;
}
);
leftKerningGroup = E;
rightKerningGroup = E;
unicode = 1EBC;
},
{
glyphname = Schwa;
lastChange = "2019-05-01 13:08:37 +0000";
layers = (
{
layerId = "4692E1D1-BCA0-47EF-98E6-2E6F4483D11B";
paths = (
{
closed = 1;
nodes = (
"544 -21 OFFCURVE",
"675 118 OFFCURVE",
"685 350 CURVE SMOOTH",
"695 586 OFFCURVE",
"576 735 OFFCURVE",
"370 744 CURVE SMOOTH",
"261 749 OFFCURVE",
"179 713 OFFCURVE",
"120 652 CURVE SMOOTH",
"100 631 OFFCURVE",
"129 600 OFFCURVE",
"151 621 CURVE SMOOTH",
"208 676 OFFCURVE",
"278 709 OFFCURVE",
"373 703 CURVE SMOOTH",
"552 692 OFFCURVE",
"648 567 OFFCURVE",
"643 368 CURVE",
"502 374 OFFCURVE",
"232 377 OFFCURVE",
"64 366 CURVE SMOOTH",
"49 365 OFFCURVE",
"34 351 OFFCURVE",
"34 335 CURVE SMOOTH",
"34 202 OFFCURVE",
"98 -16 OFFCURVE",
"346 -19 CURVE SMOOTH"
);
},
{
closed = 1;
nodes = (
"161 23 OFFCURVE",
"76 172 OFFCURVE",
"76 312 CURVE SMOOTH",
"76 319 OFFCURVE",
"79 326 OFFCURVE",
"89 327 CURVE SMOOTH",
"258 344 OFFCURVE",
"503 333 OFFCURVE",
"639 326 CURVE",
"629 163 OFFCURVE",
"534 17 OFFCURVE",
"346 20 CURVE SMOOTH"
);
}
);
width = 720;
},
{
layerId = "7911D52E-6854-4A1B-8A16-F908BFF91E8F";
paths = (
{
closed = 1;
nodes = (
"536 -21 OFFCURVE",
"672 114 OFFCURVE",
"685 349 CURVE SMOOTH",
"698 580 OFFCURVE",
"577 735 OFFCURVE",
"371 743 CURVE SMOOTH",
"269 747 OFFCURVE",
"187 720 OFFCURVE",
"121 649 CURVE SMOOTH",
"82 607 OFFCURVE",
"142 553 OFFCURVE",
"184 594 CURVE SMOOTH",
"243 651 OFFCURVE",
"294 667 OFFCURVE",
"370 662 CURVE SMOOTH",
"518 652 OFFCURVE",
"603 547 OFFCURVE",
"601 391 CURVE",
"420 397 OFFCURVE",
"168 394 OFFCURVE",
"83 388 CURVE SMOOTH",
"56 386 OFFCURVE",
"34 363 OFFCURVE",
"34 337 CURVE SMOOTH",
"34 211 OFFCURVE",
"95 -16 OFFCURVE",
"345 -19 CURVE SMOOTH"
);
},
{
closed = 1;
nodes = (
"213 61 OFFCURVE",
"117 156 OFFCURVE",
"117 298 CURVE SMOOTH",
"117 303 OFFCURVE",
"118 310 OFFCURVE",
"126 310 CURVE SMOOTH",
"279 310 OFFCURVE",
"389 316 OFFCURVE",
"599 312 CURVE",
"581 152 OFFCURVE",
"478 57 OFFCURVE",
"346 59 CURVE SMOOTH"
);
}
);
width = 720;
}
);
leftKerningGroup = O;
rightKerningGroup = O;
unicode = 018F;
},
{
glyphname = F;
lastChange = "2026-02-01 12:48:06 +0000";
layers = (
{
layerId = "4692E1D1-BCA0-47EF-98E6-2E6F4483D11B";
paths = (
{
closed = 1;
nodes = (
"57 762 LINE SMOOTH",
"28 762 OFFCURVE",
"29 722 OFFCURVE",
"57 722 CURVE SMOOTH",
"103 722 LINE",
"106 436 LINE",
"54 434 LINE SMOOTH",
"27 433 OFFCURVE",
"28 391 OFFCURVE",
"56 392 CURVE SMOOTH",
"106 393 LINE",
"111 12 LINE SMOOTH",
"111 -16 OFFCURVE",
"154 -16 OFFCURVE",
"154 13 CURVE SMOOTH",
"149 395 LINE",
"491 409 LINE SMOOTH",
"520 410 OFFCURVE",
"517 451 OFFCURVE",
"491 450 CURVE SMOOTH",
"149 437 LINE",
"145 723 LINE",
"548 729 LINE SMOOTH",
"578 729 OFFCURVE",
"575 769 OFFCURVE",
"549 769 CURVE"
);
}
);
width = 604;
},
{
layerId = "7911D52E-6854-4A1B-8A16-F908BFF91E8F";
paths = (
{
closed = 1;
nodes = (
"78 761 LINE SMOOTH",
"22 760 OFFCURVE",
"24 681 OFFCURVE",
"78 681 CURVE",
"104 681 LINE",
"105 455 LINE",
"74 454 LINE SMOOTH",
"17 452 OFFCURVE",
"24 369 OFFCURVE",
"76 371 CURVE SMOOTH",
"108 372 LINE",
"113 31 LINE SMOOTH",
"114 -23 OFFCURVE",
"196 -23 OFFCURVE",
"195 32 CURVE SMOOTH",
"190 376 LINE",
"504 390 LINE SMOOTH",
"560 392 OFFCURVE",
"556 473 OFFCURVE",
"504 471 CURVE SMOOTH",
"189 458 LINE",
"187 682 LINE",
"569 688 LINE SMOOTH",
"626 689 OFFCURVE",
"622 767 OFFCURVE",
"570 767 CURVE"
);
}
);
width = 644;
}
);
leftKerningGroup = F;
rightKerningGroup = F;
unicode = 0046;
},
{
glyphname = G;
lastChange = "2020-03-04 14:56:59 +0000";
layers = (
{
layerId = "4692E1D1-BCA0-47EF-98E6-2E6F4483D11B";
paths = (
{
closed = 1;
nodes = (
"531 -22 OFFCURVE",
"597 86 OFFCURVE",
"597 152 CURVE SMOOTH",
"597 332 LINE",
"619 332 LINE SMOOTH",
"648 332 OFFCURVE",
"648 374 OFFCURVE",
"619 373 CURVE SMOOTH",
"571 371 OFFCURVE",
"490 372 OFFCURVE",
"419 372 CURVE SMOOTH",
"389 372 OFFCURVE",
"390 332 OFFCURVE",
"421 332 CURVE SMOOTH",
"555 332 LINE",
"555 153 LINE SMOOTH",
"555 96 OFFCURVE",
"485 16 OFFCURVE",
"336 21 CURVE SMOOTH",
"156 27 OFFCURVE",
"79 209 OFFCURVE",
"78 363 CURVE SMOOTH",
"76 602 OFFCURVE",
"171 729 OFFCURVE",
"344 738 CURVE SMOOTH",
"444 743 OFFCURVE",
"523 694 OFFCURVE",
"553 650 CURVE SMOOTH",
"569 626 OFFCURVE",
"613 647 OFFCURVE",
"588 681 CURVE SMOOTH",
"550 732 OFFCURVE",
"462 787 OFFCURVE",
"342 781 CURVE SMOOTH",
"205 774 OFFCURVE",
"27 696 OFFCURVE",
"34 359 CURVE SMOOTH",
"38 170 OFFCURVE",
"131 -18 OFFCURVE",
"337 -20 CURVE SMOOTH"
);
}
);
width = 675;
},
{
layerId = "7911D52E-6854-4A1B-8A16-F908BFF91E8F";
paths = (
{
closed = 1;
nodes = (
"531 -20 OFFCURVE",
"632 68 OFFCURVE",
"634 165 CURVE SMOOTH",
"637 322 LINE",
"647 322 LINE SMOOTH",
"704 325 OFFCURVE",
"700 404 OFFCURVE",
"647 403 CURVE SMOOTH",
"599 402 OFFCURVE",
"510 403 OFFCURVE",
"439 402 CURVE SMOOTH",
"382 401 OFFCURVE",
"384 322 OFFCURVE",
"441 322 CURVE SMOOTH",
"557 322 LINE",
"556 181 LINE SMOOTH",
"556 123 OFFCURVE",
"482 58 OFFCURVE",
"357 60 CURVE SMOOTH",
"207 62 OFFCURVE",
"120 197 OFFCURVE",
"118 363 CURVE SMOOTH",
"115 571 OFFCURVE",
"200 692 OFFCURVE",
"365 700 CURVE SMOOTH",
"438 704 OFFCURVE",
"522 675 OFFCURVE",
"555 620 CURVE SMOOTH",
"583 574 OFFCURVE",
"666 614 OFFCURVE",
"624 672 CURVE SMOOTH",
"569 748 OFFCURVE",
"464 786 OFFCURVE",
"361 781 CURVE SMOOTH",
"145 770 OFFCURVE",
"27 611 OFFCURVE",
"34 359 CURVE SMOOTH",
"40 141 OFFCURVE",
"161 -20 OFFCURVE",
"357 -20 CURVE SMOOTH"
);
}
);
width = 722;
}
);
leftKerningGroup = G;
rightKerningGroup = G;
unicode = 0047;
},
{
glyphname = Gbreve;
lastChange = "2019-06-05 13:50:57 +0000";
layers = (
{
layerId = "4692E1D1-BCA0-47EF-98E6-2E6F4483D11B";
paths = (
{
closed = 1;
nodes = (
"474.641 -12.032 OFFCURVE",
"581.483 50.72 OFFCURVE",
"587.553 145.104 CURVE SMOOTH",
"592.018 214.532 OFFCURVE",
"591.897 294.842 OFFCURVE",
"590.559 336.055 CURVE",
"631.858 336.478 LINE SMOOTH",
"663.019 336.79 OFFCURVE",
"660.021 376.246 OFFCURVE",
"632.05 376.002 CURVE SMOOTH",
"574.728 375.502 OFFCURVE",
"504 376 OFFCURVE",
"436 376 CURVE SMOOTH",
"406 376 OFFCURVE",
"407 336 OFFCURVE",
"437 336 CURVE SMOOTH",
"549.776 335.466 LINE",
"549.776 335.461 OFFCURVE",
"552.61 241.213 OFFCURVE",
"547.718 157.535 CURVE SMOOTH",
"543.299 81.968 OFFCURVE",
"457.232 28.886 OFFCURVE",
"336.456 28.97 CURVE SMOOTH",
"138.784 29.107 OFFCURVE",
"81.517 223.351 OFFCURVE",
"79.131 375.818 CURVE SMOOTH",
"75.282 621.712 OFFCURVE",
"177.662 726.781 OFFCURVE",
"337.418 731.694 CURVE SMOOTH",
"514.225 737.131 OFFCURVE",
"542.647 616.946 OFFCURVE",
"548.986 595.238 CURVE SMOOTH",
"558.138 563.898 OFFCURVE",
"604.683 576.344 OFFCURVE",
"594.17 609.713 CURVE SMOOTH",
"588.658 627.208 OFFCURVE",
"550.422 781.26 OFFCURVE",
"335.441 774.104 CURVE SMOOTH",
"156.957 768.163 OFFCURVE",
"26.69 652.438 OFFCURVE",
"34.318 372.861 CURVE SMOOTH",
"39.445 184.994 OFFCURVE",
"117.221 -14.547 OFFCURVE",
"337.013 -13 CURVE SMOOTH"
);
},
{
closed = 1;
nodes = (
"435.956 847.181 OFFCURVE",
"451.054 904.101 OFFCURVE",
"455.865 935.173 CURVE SMOOTH",
"459.814 960.673 OFFCURVE",
"421.22 968.8 OFFCURVE",
"416.044 940.579 CURVE SMOOTH",
"412.378 920.59 OFFCURVE",
"404.236 881.777 OFFCURVE",
"355.487 880.656 CURVE SMOOTH",
"304.837 879.491 OFFCURVE",
"292.262 917.823 OFFCURVE",
"288.546 936.683 CURVE SMOOTH",
"283.242 963.602 OFFCURVE",
"244.661 961.313 OFFCURVE",
"249.078 931.112 CURVE SMOOTH",
"252.865 905.218 OFFCURVE",
"273.748 843.259 OFFCURVE",
"357.289 845.279 CURVE SMOOTH"
);
}
);
width = 688;
},
{
layerId = "7911D52E-6854-4A1B-8A16-F908BFF91E8F";
paths = (
{
closed = 1;
nodes = (
"509.082 -11.931 OFFCURVE",
"620.909 60.375 OFFCURVE",
"627.562 163.82 CURVE SMOOTH",
"632.02 233.14 OFFCURVE",
"631.626 292.828 OFFCURVE",
"631.061 326.263 CURVE",
"651.113 326.479 LINE SMOOTH",
"709.264 327.104 OFFCURVE",
"705.67 406.47 OFFCURVE",
"651.926 406.001 CURVE SMOOTH",
"596.388 405.517 OFFCURVE",
"526 406 OFFCURVE",
"456 406 CURVE SMOOTH",
"400 406 OFFCURVE",
"400 328 OFFCURVE",
"457 327 CURVE SMOOTH",
"551 326 LINE",
"552 294 OFFCURVE",
"552.289 238.339 OFFCURVE",
"548.802 178.702 CURVE SMOOTH",
"545.069 114.867 OFFCURVE",
"464.93 67.894 OFFCURVE",
"356.52 67.97 CURVE SMOOTH",
"209.988 68.072 OFFCURVE",
"121.481 181.934 OFFCURVE",
"118.179 366.131 CURVE SMOOTH",
"114.394 577.217 OFFCURVE",
"199.526 686.735 OFFCURVE",
"358.083 691.703 CURVE SMOOTH",
"518.567 696.732 OFFCURVE",
"543.353 591.838 OFFCURVE",
"549.838 569.632 CURVE SMOOTH",
"566.431 512.811 OFFCURVE",
"651.788 537.029 OFFCURVE",
"633.296 595.723 CURVE SMOOTH",
"627.97 612.627 OFFCURVE",
"585.984 781.787 OFFCURVE",
"354.826 774.093 CURVE SMOOTH",
"141.664 766.998 OFFCURVE",
"26.579 615.406 OFFCURVE",
"34.375 362.316 CURVE SMOOTH",
"41.534 129.93 OFFCURVE",
"161.861 -14.374 OFFCURVE",
"357.204 -13 CURVE SMOOTH"
);
},
{
closed = 1;
nodes = (
"414.434 832.199 OFFCURVE",
"457.123 858.293 OFFCURVE",
"468.744 925.113 CURVE SMOOTH",
"478.165 979.28 OFFCURVE",
"403.235 993.334 OFFCURVE",
"392.487 939.187 CURVE SMOOTH",
"386.249 907.762 OFFCURVE",
"368.973 901.508 OFFCURVE",
"354.142 900.651 CURVE SMOOTH",
"336.195 899.613 OFFCURVE",
"317.147 910.459 OFFCURVE",
"312.284 935.549 CURVE SMOOTH",
"302.054 988.321 OFFCURVE",
"227.855 975.628 OFFCURVE",
"237.403 921.218 CURVE SMOOTH",
"247.793 862.012 OFFCURVE",
"299.828 828.32 OFFCURVE",
"357.887 830.285 CURVE SMOOTH"
);
}
);
width = 728;
}
);
leftKerningGroup = G;
rightKerningGroup = G;
unicode = 011E;
},
{
glyphname = Gcaron;
lastChange = "2019-04-13 07:40:54 +0000";
layers = (
{
layerId = "4692E1D1-BCA0-47EF-98E6-2E6F4483D11B";
paths = (
{
closed = 1;
nodes = (
"510.99 -14.252 OFFCURVE",
"587.028 91.292 OFFCURVE",
"592.641 194.741 CURVE SMOOTH",
"596.353 263.172 OFFCURVE",
"595.21 274.415 OFFCURVE",
"596.775 314.744 CURVE",
"619 316 LINE SMOOTH",
"646 318 OFFCURVE",
"646 357 OFFCURVE",
"618 356 CURVE SMOOTH",
"571 355 OFFCURVE",
"513 353 OFFCURVE",
"454 351 CURVE SMOOTH",
"423 350 OFFCURVE",
"427 312 OFFCURVE",
"453 312 CURVE SMOOTH",
"474 312 OFFCURVE",
"520 313 OFFCURVE",
"553.794 313.515 CURVE",
"554.019 273.432 OFFCURVE",
"555.479 254.846 OFFCURVE",
"552.168 198.914 CURVE SMOOTH",
"547.928 127.26 OFFCURVE",
"494.45 25.548 OFFCURVE",
"335.33 28.555 CURVE SMOOTH",
"158.086 31.904 OFFCURVE",
"75.314 201.725 OFFCURVE",
"76.758 391.558 CURVE SMOOTH",
"78.969 681.182 OFFCURVE",
"240.7 734.294 OFFCURVE",
"342.675 737.791 CURVE SMOOTH",
"509.712 743.518 OFFCURVE",
"544.749 650.096 OFFCURVE",
"552.188 628.544 CURVE SMOOTH",
"562.332 599.153 OFFCURVE",
"605.061 608.611 OFFCURVE",
"594.509 641.165 CURVE SMOOTH",
"587.134 663.918 OFFCURVE",
"545.341 787.902 OFFCURVE",
"341.459 780.181 CURVE SMOOTH",
"210.636 775.227 OFFCURVE",
"33.221 702.723 OFFCURVE",
"34.007 389.33 CURVE SMOOTH",
"34.576 162.348 OFFCURVE",
"133.588 -7.051 OFFCURVE",
"332.323 -10.843 CURVE SMOOTH"
);
},
{
closed = 1;
nodes = (
"359.63 852.418 OFFCURVE",
"419.678 909.304 OFFCURVE",
"446.335 946.522 CURVE SMOOTH",
"460.914 966.876 OFFCURVE",
"431.937 991.354 OFFCURVE",
"412.813 966.527 CURVE SMOOTH",
"385.937 931.635 OFFCURVE",
"355.9 902.602 OFFCURVE",
"352.317 902.602 CURVE SMOOTH",
"347.335 902.602 OFFCURVE",
"320.892 934.374 OFFCURVE",
"294.634 968.551 CURVE SMOOTH",
"276.694 991.902 OFFCURVE",
"244.148 969.636 OFFCURVE",
"261.099 946.984 CURVE SMOOTH",
"287.555 911.628 OFFCURVE",
"338.685 853.987 OFFCURVE",
"350.212 853.124 CURVE SMOOTH"
);
}
);
width = 673;
},
{
layerId = "7911D52E-6854-4A1B-8A16-F908BFF91E8F";
paths = (
{
closed = 1;
nodes = (
"514.717 -13.945 OFFCURVE",
"625.221 66.988 OFFCURVE",
"632.612 203.657 CURVE SMOOTH",
"635.74 261.499 OFFCURVE",
"635.695 271.501 OFFCURVE",
"636.405 306.248 CURVE",
"647 307 LINE SMOOTH",
"696 310 OFFCURVE",
"694 387 OFFCURVE",
"643 386 CURVE SMOOTH",
"596 385 OFFCURVE",
"533 384 OFFCURVE",
"474 383 CURVE SMOOTH",
"414 382 OFFCURVE",
"421 303 OFFCURVE",
"472 304 CURVE SMOOTH",
"488 304 OFFCURVE",
"531 305 OFFCURVE",
"554 305 CURVE",
"553 242 OFFCURVE",
"553.943 240.782 OFFCURVE",
"552.203 210.096 CURVE SMOOTH",
"547.058 119.372 OFFCURVE",
"470.045 66.391 OFFCURVE",
"355.708 68.551 CURVE SMOOTH",
"209.225 71.319 OFFCURVE",
"116.013 205.98 OFFCURVE",
"117.757 391.405 CURVE SMOOTH",
"119.506 577.377 OFFCURVE",
"204.512 693.355 OFFCURVE",
"363.36 698.803 CURVE SMOOTH",
"461.813 702.178 OFFCURVE",
"529.515 667.978 OFFCURVE",
"552.283 602.018 CURVE SMOOTH",
"571.29 546.945 OFFCURVE",
"651.901 570.67 OFFCURVE",
"633.534 627.332 CURVE SMOOTH",
"626.124 650.196 OFFCURVE",
"579.519 788.453 OFFCURVE",
"360.702 780.167 CURVE SMOOTH",
"152.326 772.276 OFFCURVE",
"33.318 622.499 OFFCURVE",
"34.007 389.28 CURVE SMOOTH",
"34.705 152.922 OFFCURVE",
"155.04 -7.082 OFFCURVE",
"351.941 -10.839 CURVE SMOOTH"
);
},
{
closed = 1;
nodes = (
"383.068 831.254 OFFCURVE",
"444.496 888.33 OFFCURVE",
"480.595 934.876 CURVE SMOOTH",
"512.549 976.077 OFFCURVE",
"454.6 1018.56 OFFCURVE",
"418.969 976.732 CURVE SMOOTH",
"389.197 941.782 OFFCURVE",
"375.05 926.602 OFFCURVE",
"373.317 926.602 CURVE SMOOTH",
"370.719 926.602 OFFCURVE",
"356.058 943.954 OFFCURVE",
"327.494 979.736 CURVE SMOOTH",
"292.933 1023.031 OFFCURVE",
"232.427 978.319 OFFCURVE",
"266.086 935.001 CURVE SMOOTH",
"306.576 882.891 OFFCURVE",
"352.614 835.075 OFFCURVE",
"367.719 833.18 CURVE SMOOTH"
);
}
);
width = 717;
}
);
leftKerningGroup = G;
rightKerningGroup = G;
unicode = 01E6;
},
{
glyphname = Gcircumflex;
lastChange = "2019-01-19 08:48:18 +0000";
layers = (
{
layerId = "4692E1D1-BCA0-47EF-98E6-2E6F4483D11B";
paths = (
{
closed = 1;
nodes = (
"464 -28 OFFCURVE",
"548 53 OFFCURVE",
"558 132 CURVE SMOOTH",
"565 189 OFFCURVE",
"567 268 OFFCURVE",
"568 319 CURVE",
"574 320 OFFCURVE",
"588 322 OFFCURVE",
"604 324 CURVE SMOOTH",
"630 327 OFFCURVE",
"629 365 OFFCURVE",
"598 362 CURVE SMOOTH",
"531 355 OFFCURVE",
"472 353 OFFCURVE",
"384 359 CURVE SMOOTH",
"356 361 OFFCURVE",
"351 322 OFFCURVE",
"383 320 CURVE SMOOTH",
"467 313 OFFCURVE",
"517 316 OFFCURVE",
"526 317 CURVE",
"528 268 OFFCURVE",
"523 185 OFFCURVE",
"518 139 CURVE SMOOTH",
"511 83 OFFCURVE",
"447 13 OFFCURVE",
"314 18 CURVE SMOOTH",
"136 26 OFFCURVE",
"77 201 OFFCURVE",
"77 344 CURVE SMOOTH",
"75 654 OFFCURVE",
"225 725 OFFCURVE",
"331 728 CURVE SMOOTH",
"509 734 OFFCURVE",
"535 607 OFFCURVE",
"542 582 CURVE SMOOTH",
"552 551 OFFCURVE",
"595 562 OFFCURVE",
"585 596 CURVE SMOOTH",
"578 620 OFFCURVE",
"544 778 OFFCURVE",
"330 769 CURVE SMOOTH",
"199 764 OFFCURVE",
"30 684 OFFCURVE",
"34 341 CURVE SMOOTH",
"36 159 OFFCURVE",
"114 -13 OFFCURVE",
"312 -22 CURVE SMOOTH"
);
},
{
closed = 1;
nodes = (
"438.1 846.525 OFFCURVE",
"468.76 877.198 OFFCURVE",
"445.135 898.62 CURVE SMOOTH",
"406.718 933.454 OFFCURVE",
"377.479 964.54 OFFCURVE",
"347.026 997.5 CURVE SMOOTH",
"331.969 1013.8 OFFCURVE",
"311.635 1008.34 OFFCURVE",
"301.572 996.59 CURVE SMOOTH",
"262.619 951.06 OFFCURVE",
"237.284 925.705 OFFCURVE",
"210.932 899.464 CURVE SMOOTH",
"190.57 879.188 OFFCURVE",
"221.916 851.261 OFFCURVE",
"244.119 873.448 CURVE SMOOTH",
"266.104 895.417 OFFCURVE",
"295.526 925.136 OFFCURVE",
"325.057 959.14 CURVE",
"351.26 931.6 OFFCURVE",
"379.711 901.315 OFFCURVE",
"414.088 869.058 CURVE SMOOTH"
);
}
);
width = 656;
},
{
layerId = "7911D52E-6854-4A1B-8A16-F908BFF91E8F";
paths = (
{
closed = 1;
nodes = (
"475 -28 OFFCURVE",
"588 44 OFFCURVE",
"599 149 CURVE SMOOTH",
"605 203 OFFCURVE",
"606 262 OFFCURVE",
"607 313 CURVE",
"613 313 OFFCURVE",
"620 314 OFFCURVE",
"627 315 CURVE SMOOTH",
"678 321 OFFCURVE",
"675 398 OFFCURVE",
"617 392 CURVE SMOOTH",
"547 384 OFFCURVE",
"488 383 OFFCURVE",
"407 389 CURVE SMOOTH",
"352 392 OFFCURVE",
"343 315 OFFCURVE",
"402 311 CURVE SMOOTH",
"462 306 OFFCURVE",
"502 306 OFFCURVE",
"529 307 CURVE",
"529 259 OFFCURVE",
"527 200 OFFCURVE",
"522 161 CURVE SMOOTH",
"515 101 OFFCURVE",
"435 53 OFFCURVE",
"336 57 CURVE SMOOTH",
"202 63 OFFCURVE",
"120 182 OFFCURVE",
"117 344 CURVE SMOOTH",
"113 551 OFFCURVE",
"200 683 OFFCURVE",
"351 688 CURVE SMOOTH",
"511 694 OFFCURVE",
"533 582 OFFCURVE",
"541 556 CURVE SMOOTH",
"558 500 OFFCURVE",
"641 522 OFFCURVE",
"624 581 CURVE SMOOTH",
"616 605 OFFCURVE",
"579 779 OFFCURVE",
"348 769 CURVE SMOOTH",
"141 761 OFFCURVE",
"28 599 OFFCURVE",
"34 341 CURVE SMOOTH",
"39 132 OFFCURVE",
"150 -14 OFFCURVE",
"333 -22 CURVE SMOOTH"
);
},
{
closed = 1;
nodes = (
"446.339 826.172 OFFCURVE",
"502.665 880.335 OFFCURVE",
"460.949 921.436 CURVE SMOOTH",
"425.121 956.736 OFFCURVE",
"400.317 981.665 OFFCURVE",
"380.096 1003.072 CURVE SMOOTH",
"356.5 1028.053 OFFCURVE",
"332.289 1027.054 OFFCURVE",
"308.761 1001.6 CURVE SMOOTH",
"278.829 969.219 OFFCURVE",
"261.516 949.842 OFFCURVE",
"235.2 923.636 CURVE SMOOTH",
"195.759 884.362 OFFCURVE",
"253.124 828.818 OFFCURVE",
"293.636 869.301 CURVE SMOOTH",
"312.079 887.731 OFFCURVE",
"329.061 906.921 OFFCURVE",
"346.965 927.56 CURVE",
"361.131 913.279 OFFCURVE",
"382.081 891.64 OFFCURVE",
"406.783 866.473 CURVE SMOOTH"
);
}
);
width = 697;
}
);
leftKerningGroup = G;
rightKerningGroup = G;
unicode = 011C;
},
{
glyphname = Gcommaaccent;
lastChange = "2020-03-04 17:04:09 +0000";
layers = (
{
layerId = "4692E1D1-BCA0-47EF-98E6-2E6F4483D11B";
paths = (
{
closed = 1;
nodes = (
"488.163 -12.323 OFFCURVE",
"573.807 74.524 OFFCURVE",
"576.555 156.099 CURVE SMOOTH",
"579.534 244.555 OFFCURVE",
"577.332 288.803 OFFCURVE",
"578.193 329.153 CURVE",
"615.131 330.63 LINE SMOOTH",
"641.998 331.705 OFFCURVE",
"642.083 370.984 OFFCURVE",
"613.372 369.852 CURVE SMOOTH",
"566.452 368.002 OFFCURVE",
"474.182 364.75 OFFCURVE",
"404.987 363.953 CURVE SMOOTH",
"372.864 363.583 OFFCURVE",
"377.471 325.167 OFFCURVE",
"404.306 325.167 CURVE SMOOTH",
"424.991 325.167 OFFCURVE",
"473.816 326.205 OFFCURVE",
"535.223 328.174 CURVE",
"537.147 288.118 OFFCURVE",
"538.235 240.537 OFFCURVE",
"535.929 164.565 CURVE SMOOTH",
"534.055 102.814 OFFCURVE",
"470.913 28.297 OFFCURVE",
"331.765 28.444 CURVE SMOOTH",
"168.491 28.624 OFFCURVE",
"78.583 186.048 OFFCURVE",
"76.915 356.88 CURVE SMOOTH",
"73.873 668.496 OFFCURVE",
"220.834 732.686 OFFCURVE",
"326.749 737.701 CURVE SMOOTH",
"505.67 746.172 OFFCURVE",
"531.201 624.806 OFFCURVE",
"538.154 601.092 CURVE SMOOTH",
"547.079 570.653 OFFCURVE",
"591.613 581.9 OFFCURVE",
"582.231 615.485 CURVE SMOOTH",
"575.279 640.37 OFFCURVE",
"538.509 791.341 OFFCURVE",
"324.793 780.063 CURVE SMOOTH",
"194.058 773.164 OFFCURVE",
"27.349 697.225 OFFCURVE",
"34.209 353.906 CURVE SMOOTH",
"38.344 146.96 OFFCURVE",
"150.693 -11.636 OFFCURVE",
"329.464 -12 CURVE SMOOTH"
);
},
{
closed = 1;
nodes = (
"363.891 -207.14 OFFCURVE",
"380.514 -174.567 OFFCURVE",
"384.086 -146.993 CURVE SMOOTH",
"388.59 -112.215 OFFCURVE",
"372.333 -85.389 OFFCURVE",
"342.215 -86 CURVE SMOOTH",
"291.381 -87.031 OFFCURVE",
"286.568 -157 OFFCURVE",
"340.041 -158 CURVE",
"339.333 -169.18 OFFCURVE",
"328.613 -191.56 OFFCURVE",
"302.167 -212 CURVE SMOOTH",
"283.624 -226 OFFCURVE",
"309.983 -252.496 OFFCURVE",
"330.778 -235 CURVE SMOOTH"
);
}
);
width = 669;
},
{
layerId = "7911D52E-6854-4A1B-8A16-F908BFF91E8F";
paths = (
{
closed = 1;
nodes = (
"501.322 -12.308 OFFCURVE",
"612.993 68.827 OFFCURVE",
"616.584 175.426 CURVE SMOOTH",
"619.11 250.434 OFFCURVE",
"617.932 284.215 OFFCURVE",
"618.024 319.929 CURVE",
"635.96 320.646 LINE SMOOTH",
"689.039 322.769 OFFCURVE",
"687.844 402.014 OFFCURVE",
"632.614 399.836 CURVE SMOOTH",
"585.694 397.986 OFFCURVE",
"493.755 394.746 OFFCURVE",
"424.797 393.952 CURVE SMOOTH",
"364.731 393.26 OFFCURVE",
"372.709 315.167 OFFCURVE",
"424.346 315.167 CURVE SMOOTH",
"442.951 315.167 OFFCURVE",
"484.946 315.995 OFFCURVE",
"537.126 317.569 CURVE",
"538.454 281.77 OFFCURVE",
"538.963 248.591 OFFCURVE",
"536.978 185.172 CURVE SMOOTH",
"534.99 121.673 OFFCURVE",
"460.063 67.332 OFFCURVE",
"351.828 67.444 CURVE SMOOTH",
"215.049 67.595 OFFCURVE",
"118.892 198.048 OFFCURVE",
"116.954 357.075 CURVE SMOOTH",
"114.426 564.559 OFFCURVE",
"194.668 690.476 OFFCURVE",
"347.735 697.723 CURVE SMOOTH",
"509.574 705.386 OFFCURVE",
"529.533 598.531 OFFCURVE",
"540.122 575.072 CURVE SMOOTH",
"561.833 526.968 OFFCURVE",
"633.443 549.218 OFFCURVE",
"621.427 601.235 CURVE SMOOTH",
"615.737 625.865 OFFCURVE",
"574.11 792.19 OFFCURVE",
"343.779 780.035 CURVE SMOOTH",
"137.129 769.13 OFFCURVE",
"28.17 610.679 OFFCURVE",
"34.243 353.506 CURVE SMOOTH",
"39.136 146.311 OFFCURVE",
"166.772 -11.629 OFFCURVE",
"349.46 -12 CURVE SMOOTH"
);
},
{
closed = 1;
nodes = (
"398.571 -248.36 OFFCURVE",
"427.227 -199.089 OFFCURVE",
"433.543 -169.625 CURVE SMOOTH",
"444.469 -118.656 OFFCURVE",
"421.648 -76.695 OFFCURVE",
"373.813 -77.059 CURVE SMOOTH",
"296.597 -77.647 OFFCURVE",
"292.824 -168.663 OFFCURVE",
"351.025 -180.745 CURVE",
"343.609 -195.276 OFFCURVE",
"326.425 -209.885 OFFCURVE",
"312.072 -222.175 CURVE SMOOTH",
"275.204 -253.743 OFFCURVE",
"320.68 -305.873 OFFCURVE",
"361.16 -275.984 CURVE SMOOTH"
);
}
);
width = 709;
}
);
leftKerningGroup = G;
rightKerningGroup = G;
unicode = 0122;
},
{
glyphname = Gdotaccent;
lastChange = "2020-03-01 12:36:58 +0000";
layers = (
{
layerId = "4692E1D1-BCA0-47EF-98E6-2E6F4483D11B";
paths = (
{
closed = 1;
nodes = (
"478.207 -15.556 OFFCURVE",
"551.997 75.239 OFFCURVE",
"557.521 144.443 CURVE SMOOTH",
"563.435 218.537 OFFCURVE",
"564.213 266.069 OFFCURVE",
"563.785 323.551 CURVE",
"600.066 325.141 LINE SMOOTH",
"627.88 326.36 OFFCURVE",
"627.04 365.863 OFFCURVE",
"599.132 365.141 CURVE SMOOTH",
"416.554 360.391 LINE SMOOTH",
"386.502 359.613 OFFCURVE",
"387.965 319.665 OFFCURVE",
"417.893 320.391 CURVE SMOOTH",
"520.457 322.856 LINE",
"521.743 266.008 OFFCURVE",
"520.941 216.792 OFFCURVE",
"516.148 155.376 CURVE SMOOTH",
"510.951 88.776 OFFCURVE",
"436.657 25.83 OFFCURVE",
"325.753 27.986 CURVE SMOOTH",
"182.377 30.773 OFFCURVE",
"71.088 181.737 OFFCURVE",
"78.19 397.091 CURVE SMOOTH",
"85.919 631.467 OFFCURVE",
"219.865 737.442 OFFCURVE",
"344.168 733.999 CURVE SMOOTH",
"445.391 731.195 OFFCURVE",
"503.578 655.403 OFFCURVE",
"524.37 582.446 CURVE SMOOTH",
"533.404 550.745 OFFCURVE",
"579.346 562.564 OFFCURVE",
"569.589 594.336 CURVE SMOOTH",
"542.984 680.974 OFFCURVE",
"472.354 774.644 OFFCURVE",
"341.387 777.016 CURVE SMOOTH",
"196.688 779.637 OFFCURVE",
"40.448 664.18 OFFCURVE",
"34.189 397.972 CURVE SMOOTH",
"28.579 159.387 OFFCURVE",
"146.366 -10.062 OFFCURVE",
"323.841 -13 CURVE SMOOTH"
);
},
{
closed = 1;
nodes = (
"390.866 912.902 OFFCURVE",
"350.796 959.307 OFFCURVE",
"315.297 931.1 CURVE SMOOTH",
"286.143 907.934 OFFCURVE",
"322.99 862.937 OFFCURVE",
"356.842 887.856 CURVE SMOOTH"
);
}
);
width = 655;
},
{
layerId = "7911D52E-6854-4A1B-8A16-F908BFF91E8F";
paths = (
{
closed = 1;
nodes = (
"481.178 -15.273 OFFCURVE",
"589.367 61.239 OFFCURVE",
"597.478 162.852 CURVE SMOOTH",
"602.767 229.121 OFFCURVE",
"603.989 274.689 OFFCURVE",
"603.898 314.412 CURVE",
"620.962 315.16 LINE SMOOTH",
"674.61 317.512 OFFCURVE",
"672.971 395.54 OFFCURVE",
"618.635 394.134 CURVE SMOOTH",
"436.054 389.384 LINE SMOOTH",
"379.838 387.929 OFFCURVE",
"382.064 309.075 OFFCURVE",
"438.398 310.397 CURVE SMOOTH",
"522.848 312.378 LINE",
"523.546 270.994 OFFCURVE",
"522.184 227.612 OFFCURVE",
"518.229 176.932 CURVE SMOOTH",
"513.438 115.533 OFFCURVE",
"439.419 66.195 OFFCURVE",
"346.169 67.982 CURVE SMOOTH",
"209.829 70.594 OFFCURVE",
"111.341 209.328 OFFCURVE",
"118.199 386.432 CURVE SMOOTH",
"125.233 568.086 OFFCURVE",
"226.562 697.803 OFFCURVE",
"363.634 694.007 CURVE SMOOTH",
"440.289 691.883 OFFCURVE",
"501.261 640.055 OFFCURVE",
"525.156 556.963 CURVE SMOOTH",
"541.856 498.894 OFFCURVE",
"626.616 522.086 OFFCURVE",
"608.732 580.195 CURVE SMOOTH",
"571.55 701 OFFCURVE",
"479.296 774.884 OFFCURVE",
"361.769 777.013 CURVE SMOOTH",
"174.095 780.412 OFFCURVE",
"40.321 617.412 OFFCURVE",
"34.215 388.442 CURVE SMOOTH",
"28.077 158.317 OFFCURVE",
"154.812 -9.877 OFFCURVE",
"343.526 -12.997 CURVE SMOOTH"
);
},
{
closed = 1;
nodes = (
"459.439 913.635 OFFCURVE",
"392.284 990.627 OFFCURVE",
"336.984 946.804 CURVE SMOOTH",
"286.086 906.47 OFFCURVE",
"349.474 832.356 OFFCURVE",
"402.848 871.807 CURVE SMOOTH"
);
}
);
width = 695;
}
);
leftKerningGroup = G;
rightKerningGroup = G;
unicode = 0120;
},
{
glyphname = H;
lastChange = "2020-03-04 17:19:19 +0000";
layers = (
{
layerId = "4692E1D1-BCA0-47EF-98E6-2E6F4483D11B";
paths = (
{
closed = 1;
nodes = (
"122 782 OFFCURVE",
"78 785 OFFCURVE",
"79 748 CURVE SMOOTH",
"82 648 OFFCURVE",
"84 538 OFFCURVE",
"85 425 CURVE",
"79 425 OFFCURVE",
"69 427 OFFCURVE",
"56 428 CURVE SMOOTH",
"30 430 OFFCURVE",
"25 391 OFFCURVE",
"54 386 CURVE SMOOTH",
"70 383 OFFCURVE",
"84 382 OFFCURVE",
"84 382 CURVE SMOOTH",
"87 246 OFFCURVE",
"89 77 OFFCURVE",
"92 5 CURVE SMOOTH",
"93 -24 OFFCURVE",
"136 -23 OFFCURVE",
"135 7 CURVE SMOOTH",
"132 76 OFFCURVE",
"129 247 OFFCURVE",
"127 378 CURVE",
"281 364 OFFCURVE",
"461 369 OFFCURVE",
"553 375 CURVE",
"554 351 OFFCURVE",
"556 117 OFFCURVE",
"556 5 CURVE SMOOTH",
"556 -25 OFFCURVE",
"598 -24 OFFCURVE",
"598 6 CURVE SMOOTH",
"598 232 OFFCURVE",
"595 647 OFFCURVE",
"595 746 CURVE SMOOTH",
"595 775 OFFCURVE",
"553 778 OFFCURVE",
"554 746 CURVE SMOOTH",
"556 642 OFFCURVE",
"555 530 OFFCURVE",
"554 419 CURVE",
"460 410 OFFCURVE",
"279 406 OFFCURVE",
"128 419 CURVE",
"126 535 OFFCURVE",
"125 644 OFFCURVE",
"123 751 CURVE SMOOTH"
);
}
);
width = 632;
},
{
layerId = "7911D52E-6854-4A1B-8A16-F908BFF91E8F";
paths = (
{
closed = 1;
nodes = (
"178 788 OFFCURVE",
"93 794 OFFCURVE",
"95 729 CURVE SMOOTH",
"98 635 OFFCURVE",
"99 555 OFFCURVE",
"100 447 CURVE",
"93 448 OFFCURVE",
"84 449 OFFCURVE",
"78 449 CURVE SMOOTH",
"24 453 OFFCURVE",
"18 373 OFFCURVE",
"71 366 CURVE SMOOTH",
"80 365 OFFCURVE",
"87 364 OFFCURVE",
"100 363 CURVE",
"103 229 OFFCURVE",
"105 93 OFFCURVE",
"108 24 CURVE SMOOTH",
"110 -31 OFFCURVE",
"193 -29 OFFCURVE",
"191 28 CURVE SMOOTH",
"188 93 OFFCURVE",
"185 227 OFFCURVE",
"183 356 CURVE",
"333 345 OFFCURVE",
"493 349 OFFCURVE",
"573 355 CURVE",
"571 281 OFFCURVE",
"572 160 OFFCURVE",
"572 25 CURVE SMOOTH",
"572 -32 OFFCURVE",
"654 -30 OFFCURVE",
"654 26 CURVE SMOOTH",
"654 242 OFFCURVE",
"651 628 OFFCURVE",
"651 727 CURVE SMOOTH",
"651 781 OFFCURVE",
"569 787 OFFCURVE",
"570 727 CURVE SMOOTH",
"573 536 OFFCURVE",
"572 552 OFFCURVE",
"574 440 CURVE",
"492 432 OFFCURVE",
"329 426 OFFCURVE",
"184 438 CURVE",
"181 549 OFFCURVE",
"181 631 OFFCURVE",
"179 732 CURVE SMOOTH"
);
}
);
width = 688;
}
);
leftKerningGroup = H;
rightKerningGroup = H;
unicode = 0048;
},
{
glyphname = Hbar;
lastChange = "2019-04-24 18:21:44 +0000";
layers = (
{
layerId = "4692E1D1-BCA0-47EF-98E6-2E6F4483D11B";
paths = (
{
closed = 1;
nodes = (
"64 -21 OFFCURVE",
"106 -20 OFFCURVE",
"106 8 CURVE SMOOTH",
"106 48 OFFCURVE",
"109 191 OFFCURVE",
"111 350 CURVE",
"271 346 OFFCURVE",
"369 345 OFFCURVE",
"538 349 CURVE",
"538 10 LINE SMOOTH",
"538 -17 OFFCURVE",
"579 -17 OFFCURVE",
"579 10 CURVE SMOOTH",
"579 571 LINE",
"605 570 LINE SMOOTH",
"636 570 OFFCURVE",
"634 610 OFFCURVE",
"606 610 CURVE SMOOTH",
"579 611 LINE",
"579 745 LINE SMOOTH",
"579 777 OFFCURVE",
"538 774 OFFCURVE",
"538 746 CURVE SMOOTH",
"538 612 LINE",
"359 614 OFFCURVE",
"206 612 OFFCURVE",
"117 610 CURVE SMOOTH",
"118 662 OFFCURVE",
"120 738 OFFCURVE",
"120 758 CURVE SMOOTH",
"121 788 OFFCURVE",
"79 791 OFFCURVE",
"79 760 CURVE SMOOTH",
"78 740 OFFCURVE",
"76 662 OFFCURVE",
"75 609 CURVE",
"27 608 LINE SMOOTH",
"-4 607 OFFCURVE",
"-3 568 OFFCURVE",
"28 569 CURVE SMOOTH",
"74 570 LINE",
"69 334 OFFCURVE",
"64 49 OFFCURVE",
"64 7 CURVE SMOOTH"
);
},
{
closed = 1;
nodes = (
"366 384 OFFCURVE",
"274 387 OFFCURVE",
"112 391 CURVE",
"116 571 LINE",
"205 573 OFFCURVE",
"357 575 OFFCURVE",
"538 572 CURVE",
"538 391 LINE"
);
}
);
width = 632;
},
{
layerId = "7911D52E-6854-4A1B-8A16-F908BFF91E8F";
paths = (
{
closed = 1;
nodes = (
"64 -27 OFFCURVE",
"147 -26 OFFCURVE",
"147 28 CURVE SMOOTH",
"147 67 OFFCURVE",
"149 179 OFFCURVE",
"152 329 CURVE",
"294 327 OFFCURVE",
"388 325 OFFCURVE",
"538 328 CURVE",
"538 30 LINE SMOOTH",
"538 -24 OFFCURVE",
"619 -23 OFFCURVE",
"619 30 CURVE SMOOTH",
"623 550 LINE",
"640 550 LINE SMOOTH",
"693 550 OFFCURVE",
"698 632 OFFCURVE",
"641 632 CURVE SMOOTH",
"619 633 LINE",
"619 725 LINE SMOOTH",
"619 784 OFFCURVE",
"538 780 OFFCURVE",
"538 726 CURVE SMOOTH",
"538 632 LINE",
"380 633 OFFCURVE",
"246 632 OFFCURVE",
"158 631 CURVE",
"159 666 OFFCURVE",
"160 717 OFFCURVE",
"161 737 CURVE SMOOTH",
"162 794 OFFCURVE",
"80 798 OFFCURVE",
"78 740 CURVE SMOOTH",
"78 720 OFFCURVE",
"76 664 OFFCURVE",
"75 629 CURVE",
"46 628 LINE SMOOTH",
"-11 626 OFFCURVE",
"-9 547 OFFCURVE",
"48 549 CURVE SMOOTH",
"73 550 LINE",
"69 317 OFFCURVE",
"64 68 OFFCURVE",
"64 27 CURVE SMOOTH"
);
},
{
closed = 1;
nodes = (
"391 404 OFFCURVE",
"293 406 OFFCURVE",
"153 410 CURVE",
"156 551 LINE",
"243 553 OFFCURVE",
"379 555 OFFCURVE",
"539 553 CURVE",
"538 410 LINE"
);
}
);
width = 686;
}
);
leftKerningGroup = H;
rightKerningGroup = H;
unicode = 0126;
},
{
glyphname = Hcircumflex;
lastChange = "2020-03-01 12:38:05 +0000";
layers = (
{
layerId = "4692E1D1-BCA0-47EF-98E6-2E6F4483D11B";
paths = (
{
closed = 1;
nodes = (
"523 -33 OFFCURVE",
"566 -32 OFFCURVE",
"566 -1 CURVE SMOOTH",
"564 275 OFFCURVE",
"565 408 OFFCURVE",
"565 753 CURVE SMOOTH",
"564 779 OFFCURVE",
"523 781 OFFCURVE",
"523 752 CURVE SMOOTH",
"522 624 OFFCURVE",
"523 517 OFFCURVE",
"524 430 CURVE",
"386 422 OFFCURVE",
"249 421 OFFCURVE",
"111 429 CURVE",
"111 440 OFFCURVE",
"109 531 OFFCURVE",
"107 738 CURVE SMOOTH",
"106 771 OFFCURVE",
"64 770 OFFCURVE",
"64 738 CURVE SMOOTH",
"68 452 OFFCURVE",
"67 320 OFFCURVE",
"65 0 CURVE SMOOTH",
"65 -28 OFFCURVE",
"108 -28 OFFCURVE",
"108 2 CURVE SMOOTH",
"109 232 OFFCURVE",
"110 357 OFFCURVE",
"111 386 CURVE",
"248 379 OFFCURVE",
"386 379 OFFCURVE",
"524 387 CURVE",
"523 196 OFFCURVE",
"525 130 OFFCURVE",
"523 -3 CURVE SMOOTH"
);
},
{
closed = 1;
nodes = (
"270 902 OFFCURVE",
"304 944 OFFCURVE",
"324 963 CURVE",
"343 944 OFFCURVE",
"379 894 OFFCURVE",
"402 870 CURVE SMOOTH",
"423 847 OFFCURVE",
"452 874 OFFCURVE",
"434 894 CURVE SMOOTH",
"409 923 OFFCURVE",
"372 972 OFFCURVE",
"348 996 CURVE SMOOTH",
"335 1008 OFFCURVE",
"316 1009 OFFCURVE",
"298 992 CURVE SMOOTH",
"267 964 OFFCURVE",
"242 933 OFFCURVE",
"211 896 CURVE SMOOTH",
"193 875 OFFCURVE",
"226 849 OFFCURVE",
"243 870 CURVE SMOOTH"
);
}
);
width = 600;
},
{
layerId = "7911D52E-6854-4A1B-8A16-F908BFF91E8F";
paths = (
{
closed = 1;
nodes = (
"523 -40 OFFCURVE",
"606 -40 OFFCURVE",
"606 18 CURVE SMOOTH",
"604 294 OFFCURVE",
"605 403 OFFCURVE",
"605 748 CURVE SMOOTH",
"604 800 OFFCURVE",
"523 802 OFFCURVE",
"523 747 CURVE SMOOTH",
"522 628 OFFCURVE",
"524 534 OFFCURVE",
"524 449 CURVE",
"400 442 OFFCURVE",
"275 442 OFFCURVE",
"151 448 CURVE",
"150 480 OFFCURVE",
"149 537 OFFCURVE",
"147 734 CURVE SMOOTH",
"146 793 OFFCURVE",
"63 791 OFFCURVE",
"64 733 CURVE SMOOTH",
"68 447 OFFCURVE",
"67 339 OFFCURVE",
"65 19 CURVE SMOOTH",
"65 -35 OFFCURVE",
"148 -36 OFFCURVE",
"148 20 CURVE SMOOTH",
"149 246 OFFCURVE",
"150 327 OFFCURVE",
"151 365 CURVE",
"275 359 OFFCURVE",
"399 359 OFFCURVE",
"524 366 CURVE",
"524 201 OFFCURVE",
"525 143 OFFCURVE",
"523 16 CURVE SMOOTH"
);
},
{
closed = 1;
nodes = (
"308 891 OFFCURVE",
"327 913 OFFCURVE",
"339 926 CURVE",
"350 912 OFFCURVE",
"370 887 OFFCURVE",
"387 866 CURVE SMOOTH",
"423 824 OFFCURVE",
"482 873 OFFCURVE",
"446 915 CURVE SMOOTH",
"421 945 OFFCURVE",
"392 979 OFFCURVE",
"374 1000 CURVE SMOOTH",
"353 1024 OFFCURVE",
"325 1024 OFFCURVE",
"301 997 CURVE SMOOTH",
"281 975 OFFCURVE",
"259 951 OFFCURVE",
"229 918 CURVE SMOOTH",
"192 878 OFFCURVE",
"253 827 OFFCURVE",
"288 867 CURVE SMOOTH"
);
}
);
width = 640;
}
);
leftKerningGroup = H;
rightKerningGroup = H;
unicode = 0124;
},
{
glyphname = I;
lastChange = "2020-03-11 18:11:40 +0000";
layers = (
{
layerId = "4692E1D1-BCA0-47EF-98E6-2E6F4483D11B";
paths = (
{
closed = 1;
nodes = (
"268 -4 OFFCURVE",
"268 35 OFFCURVE",
"243 35 CURVE SMOOTH",
"172 36 LINE",
"171 279 OFFCURVE",
"171 491 OFFCURVE",
"171 734 CURVE",
"245 739 LINE SMOOTH",
"272 741 OFFCURVE",
"269 781 OFFCURVE",
"241 778 CURVE",
"52 766 LINE",
"26 763 OFFCURVE",
"28 726 OFFCURVE",
"57 728 CURVE SMOOTH",
"129 732 LINE",
"130 492 OFFCURVE",
"129 277 OFFCURVE",
"129 37 CURVE",
"60 37 LINE SMOOTH",
"33 37 OFFCURVE",
"31 -1 OFFCURVE",
"59 -1 CURVE SMOOTH",
"239 -2 LINE"
);
}
);
width = 298;
},
{
layerId = "7911D52E-6854-4A1B-8A16-F908BFF91E8F";
paths = (
{
closed = 1;
nodes = (
"316 -3 OFFCURVE",
"317 73 OFFCURVE",
"266 74 CURVE SMOOTH",
"212 75 LINE",
"210 312 OFFCURVE",
"211 461 OFFCURVE",
"211 697 CURVE",
"267 701 LINE SMOOTH",
"320 705 OFFCURVE",
"319 785 OFFCURVE",
"260 779 CURVE",
"69 768 LINE",
"19 762 OFFCURVE",
"23 686 OFFCURVE",
"79 689 CURVE SMOOTH",
"129 692 LINE",
"130 468 OFFCURVE",
"129 300 OFFCURVE",
"129 77 CURVE",
"77 77 LINE SMOOTH",
"26 77 OFFCURVE",
"20 1 OFFCURVE",
"77 0 CURVE SMOOTH",
"261 -2 LINE SMOOTH"
);
}
);
width = 340;
}
);
leftKerningGroup = I;
rightKerningGroup = I;
unicode = 0049;
},
{
glyphname = IJ;
lastChange = "2020-03-04 17:24:06 +0000";
layers = (
{
layerId = "4692E1D1-BCA0-47EF-98E6-2E6F4483D11B";
paths = (
{
closed = 1;
nodes = (
"412.832 768.319 OFFCURVE",
"259.322 769.54 OFFCURVE",
"52.809 757.767 CURVE SMOOTH",
"27.168 756.305 OFFCURVE",
"27.122 715.224 OFFCURVE",
"56.545 716.624 CURVE SMOOTH",
"120.65 719.674 LINE",
"121.94 44.964 LINE",
"61.529 44.234 LINE SMOOTH",
"36.424 43.936 OFFCURVE",
"32.757 5 OFFCURVE",
"62.376 5 CURVE SMOOTH",
"95.786 5 OFFCURVE",
"181.214 5.953 OFFCURVE",
"222.206 6 CURVE SMOOTH",
"251.331 6.033 OFFCURVE",
"248.532 45.735 OFFCURVE",
"222.849 45.562 CURVE SMOOTH",
"164.496 45.156 LINE",
"165.12 173.772 OFFCURVE",
"163.793 723.069 OFFCURVE",
"163.975 723.162 CURVE",
"276.227 730.147 OFFCURVE",
"467.108 727.51 OFFCURVE",
"534.685 719.138 CURVE SMOOTH",
"553.518 716.805 OFFCURVE",
"555.318 704.098 OFFCURVE",
"555.674 697.937 CURVE SMOOTH",
"582.194 246.27 OFFCURVE",
"603.837 -174.138 OFFCURVE",
"341.931 -188 CURVE SMOOTH",
"222.972 -194.296 OFFCURVE",
"202.116 -132.89 OFFCURVE",
"194.44 -119 CURVE SMOOTH",
"177.803 -88.893 OFFCURVE",
"138.153 -108.918 OFFCURVE",
"152.963 -137 CURVE SMOOTH",
"160.322 -150.953 OFFCURVE",
"190.773 -235.128 OFFCURVE",
"342.337 -229 CURVE SMOOTH",
"674.752 -215.56 OFFCURVE",
"614.759 301.282 OFFCURVE",
"598.019 715.107 CURVE SMOOTH",
"596.514 752.301 OFFCURVE",
"563.627 758.438 OFFCURVE",
"538.343 760.095 CURVE SMOOTH"
);
}
);
width = 677;
},
{
layerId = "7911D52E-6854-4A1B-8A16-F908BFF91E8F";
paths = (
{
closed = 1;
nodes = (
"432.755 768.346 OFFCURVE",
"278.053 770.511 OFFCURVE",
"71.394 757.729 CURVE SMOOTH",
"19.975 754.547 OFFCURVE",
"21.232 674.978 OFFCURVE",
"77.316 677.647 CURVE SMOOTH",
"120.509 679.702 LINE",
"121.723 82.723 LINE",
"81.107 82.233 LINE SMOOTH",
"30.948 81.626 OFFCURVE",
"24.924 5 OFFCURVE",
"82.196 5 CURVE SMOOTH",
"115.717 5 OFFCURVE",
"201.157 5.953 OFFCURVE",
"242.049 6 CURVE SMOOTH",
"298.297 6.064 OFFCURVE",
"294.041 83.92 OFFCURVE",
"242.534 83.562 CURVE SMOOTH",
"204.417 83.296 LINE",
"206.419 450.505 OFFCURVE",
"203.844 603.84 OFFCURVE",
"202.866 684.063 CURVE",
"314.348 690.294 OFFCURVE",
"449.76 687.494 OFFCURVE",
"537.336 681.256 CURVE SMOOTH",
"547.845 680.507 OFFCURVE",
"555.361 675.1 OFFCURVE",
"556.553 661.404 CURVE SMOOTH",
"609.304 55.252 OFFCURVE",
"544.139 -143.813 OFFCURVE",
"360.69 -153.028 CURVE SMOOTH",
"256.313 -158.271 OFFCURVE",
"239.135 -104.472 OFFCURVE",
"230.765 -89.326 CURVE SMOOTH",
"201.799 -36.908 OFFCURVE",
"127.787 -74.555 OFFCURVE",
"155.092 -126.33 CURVE SMOOTH",
"161.806 -139.059 OFFCURVE",
"196.768 -235.703 OFFCURVE",
"362.965 -228.984 CURVE SMOOTH",
"716.402 -214.694 OFFCURVE",
"654.529 302.742 OFFCURVE",
"637.809 696.207 CURVE SMOOTH",
"636.125 735.828 OFFCURVE",
"608.601 756.836 OFFCURVE",
"559.312 760.062 CURVE SMOOTH"
);
}
);
width = 717;
}
);
leftKerningGroup = I;
rightKerningGroup = J;
unicode = 0132;
},
{
glyphname = Iacute;
lastChange = "2019-02-27 14:35:20 +0000";
layers = (
{
layerId = "4692E1D1-BCA0-47EF-98E6-2E6F4483D11B";
paths = (
{
closed = 1;
nodes = (
"277.538 -17 OFFCURVE",
"279.72 18.65 OFFCURVE",
"252.231 20.754 CURVE SMOOTH",
"239.111 21.758 OFFCURVE",
"202.292 23.396 OFFCURVE",
"178.177 24.352 CURVE",
"177.717 263.361 OFFCURVE",
"177.256 474.37 OFFCURVE",
"176.796 713.379 CURVE",
"244.045 718.01 LINE SMOOTH",
"271.808 719.922 OFFCURVE",
"273.815 759.537 OFFCURVE",
"239.939 757.485 CURVE SMOOTH",
"196.96 754.881 OFFCURVE",
"112.176 749.472 OFFCURVE",
"58.071 745.159 CURVE SMOOTH",
"27.383 742.713 OFFCURVE",
"31.271 704.018 OFFCURVE",
"63.15 705.859 CURVE SMOOTH",
"134.575 709.985 LINE",
"134.323 473.396 OFFCURVE",
"136.07 263.807 OFFCURVE",
"134.818 27.217 CURVE",
"112.887 28.215 OFFCURVE",
"76.305 29.756 OFFCURVE",
"56.002 30.344 CURVE SMOOTH",
"28.248 31.147 OFFCURVE",
"26.134 -5 OFFCURVE",
"53.181 -7 CURVE SMOOTH",
"81.129 -9.067 OFFCURVE",
"222.946 -15 OFFCURVE",
"250.156 -16 CURVE SMOOTH"
);
},
{
closed = 1;
nodes = (
"162.896 864.313 OFFCURVE",
"214.2 937.446 OFFCURVE",
"233.467 964.316 CURVE SMOOTH",
"253.278 991.955 OFFCURVE",
"216.979 1012.08 OFFCURVE",
"200.424 989.305 CURVE SMOOTH",
"175.459 954.949 OFFCURVE",
"130.063 891.55 OFFCURVE",
"112.512 866.597 CURVE SMOOTH",
"96.311 843.563 OFFCURVE",
"130.146 821.082 OFFCURVE",
"148.667 845.53 CURVE SMOOTH"
);
}
);
width = 306;
},
{
layerId = "7911D52E-6854-4A1B-8A16-F908BFF91E8F";
paths = (
{
closed = 1;
nodes = (
"323.119 -17.927 OFFCURVE",
"327.68 54.611 OFFCURVE",
"274.312 58.696 CURVE SMOOTH",
"260.924 59.72 OFFCURVE",
"235.199 61.374 OFFCURVE",
"219.528 62.336 CURVE",
"219.528 266.938 OFFCURVE",
"218.298 440.375 OFFCURVE",
"217.387 675.711 CURVE",
"265.974 679.057 LINE SMOOTH",
"317.692 682.619 OFFCURVE",
"321.68 761.228 OFFCURVE",
"259.285 757.448 CURVE SMOOTH",
"216.305 754.844 OFFCURVE",
"131.31 749.421 OFFCURVE",
"77.046 745.096 CURVE SMOOTH",
"19.788 740.532 OFFCURVE",
"27.616 663.584 OFFCURVE",
"84.867 666.892 CURVE SMOOTH",
"135.113 669.795 LINE",
"135.851 427.543 OFFCURVE",
"135.851 249.139 OFFCURVE",
"135.29 65.196 CURVE",
"122.316 65.989 OFFCURVE",
"97.561 67.12 OFFCURVE",
"77.125 67.336 CURVE SMOOTH",
"22.71 67.912 OFFCURVE",
"18.343 -3.086 OFFCURVE",
"72.323 -6.949 CURVE SMOOTH",
"100.561 -8.97 OFFCURVE",
"242.656 -14.982 OFFCURVE",
"269.976 -15.986 CURVE SMOOTH"
);
},
{
closed = 1;
nodes = (
"204.614 862.528 OFFCURVE",
"242.069 914.876 OFFCURVE",
"261.275 941.662 CURVE SMOOTH",
"297.793 992.61 OFFCURVE",
"226.443 1032.22 OFFCURVE",
"195.801 990.06 CURVE SMOOTH",
"170.793 955.649 OFFCURVE",
"139.308 913.125 OFFCURVE",
"121.708 888.103 CURVE SMOOTH",
"90.095 843.159 OFFCURVE",
"156.519 799.042 OFFCURVE",
"190.164 843.453 CURVE SMOOTH"
);
}
);
width = 346;
}
);
leftKerningGroup = I;
rightKerningGroup = I;
unicode = 00CD;
},
{
glyphname = Ibreve;
lastChange = "2020-02-26 18:05:34 +0000";
layers = (
{
layerId = "4692E1D1-BCA0-47EF-98E6-2E6F4483D11B";
paths = (
{
closed = 1;
nodes = (
"231.549 -7 LINE SMOOTH",
"258.676 -7 OFFCURVE",
"256.037 29.598 OFFCURVE",
"231.189 29.483 CURVE SMOOTH",
"174.221 29.217 LINE",
"173.064 272.154 OFFCURVE",
"173.236 481.592 OFFCURVE",
"173.064 724.514 CURVE",
"228.846 722.576 LINE SMOOTH",
"257.396 721.584 OFFCURVE",
"257.568 761.379 OFFCURVE",
"232.799 762.264 CURVE SMOOTH",
"69.674 768.092 LINE SMOOTH",
"41.423 769.101 OFFCURVE",
"40.41 728.2 OFFCURVE",
"68.221 727.389 CURVE SMOOTH",
"131.486 725.545 LINE",
"132.58 485.123 OFFCURVE",
"131.674 269.686 OFFCURVE",
"131.768 29.279 CURVE",
"77.643 28.373 LINE SMOOTH",
"51.411 27.934 OFFCURVE",
"51.394 -8 OFFCURVE",
"77.659 -8 CURVE SMOOTH"
);
},
{
closed = 1;
nodes = (
"250.036 846.952 OFFCURVE",
"264.913 917.835 OFFCURVE",
"267.714 939.437 CURVE SMOOTH",
"271.348 967.465 OFFCURVE",
"230.464 974.589 OFFCURVE",
"226.63 944.297 CURVE SMOOTH",
"224.08 924.15 OFFCURVE",
"212.262 881.948 OFFCURVE",
"156.537 877.761 CURVE SMOOTH",
"88.786 872.67 OFFCURVE",
"78.425 922.623 OFFCURVE",
"73.458 947.233 CURVE SMOOTH",
"67.927 974.697 OFFCURVE",
"28.992 968.714 OFFCURVE",
"34.539 939.358 CURVE SMOOTH",
"39.508 912.87 OFFCURVE",
"55.167 833.684 OFFCURVE",
"159.788 840.807 CURVE SMOOTH"
);
}
);
width = 302;
},
{
layerId = "7911D52E-6854-4A1B-8A16-F908BFF91E8F";
paths = (
{
closed = 1;
nodes = (
"241.159 -7 LINE SMOOTH",
"295.352 -6.648 OFFCURVE",
"291.187 67.717 OFFCURVE",
"240.576 67.483 CURVE SMOOTH",
"203.608 67.31 LINE",
"202.584 294.875 OFFCURVE",
"202.703 458.251 OFFCURVE",
"202.558 685.807 CURVE",
"237.632 684.588 LINE SMOOTH",
"292.768 682.672 OFFCURVE",
"293.809 760.436 OFFCURVE",
"242.993 762.251 CURVE SMOOTH",
"79.868 768.079 LINE SMOOTH",
"25.424 770.024 OFFCURVE",
"22.751 690.983 OFFCURVE",
"77.118 689.397 CURVE SMOOTH",
"121.05 688.117 LINE",
"121.985 462.054 OFFCURVE",
"121.203 293.095 OFFCURVE",
"121.242 66.947 CURVE",
"86.788 66.37 LINE SMOOTH",
"34.703 65.499 OFFCURVE",
"34.39 -8.342 OFFCURVE",
"87.139 -8 CURVE SMOOTH"
);
},
{
closed = 1;
nodes = (
"229.661 834.535 OFFCURVE",
"270.96 862.137 OFFCURVE",
"287.038 927.865 CURVE SMOOTH",
"299.743 979.802 OFFCURVE",
"227.07 994.616 OFFCURVE",
"215.278 940.808 CURVE SMOOTH",
"208.723 910.896 OFFCURVE",
"194.309 898.679 OFFCURVE",
"164.518 896.705 CURVE SMOOTH",
"127.078 894.224 OFFCURVE",
"108.891 913.905 OFFCURVE",
"103.543 941.19 CURVE SMOOTH",
"93.28 993.551 OFFCURVE",
"23.447 978.941 OFFCURVE",
"35.367 925.645 CURVE SMOOTH",
"42.633 893.157 OFFCURVE",
"68.295 824.47 OFFCURVE",
"170.627 830.853 CURVE SMOOTH"
);
}
);
width = 323;
}
);
leftKerningGroup = I;
rightKerningGroup = I;
unicode = 012C;
},
{
glyphname = Icircumflex;
lastChange = "2020-02-26 18:05:39 +0000";
layers = (
{
layerId = "4692E1D1-BCA0-47EF-98E6-2E6F4483D11B";
paths = (
{
closed = 1;
nodes = (
"115.447 -11 OFFCURVE",
"199.471 -9 OFFCURVE",
"231.937 -8 CURVE SMOOTH",
"260.373 -7 OFFCURVE",
"259.112 30.13 OFFCURVE",
"231.229 29.75 CURVE SMOOTH",
"176.117 28.999 LINE",
"180.51 716.219 LINE",
"246.436 718.623 LINE SMOOTH",
"278.984 719.81 OFFCURVE",
"279.39 758.646 OFFCURVE",
"245.234 757.72 CURVE SMOOTH",
"210.936 756.79 OFFCURVE",
"125.964 754.384 OFFCURVE",
"76.224 753.579 CURVE SMOOTH",
"43.745 753.053 OFFCURVE",
"45.467 713.423 OFFCURVE",
"79.135 714.234 CURVE SMOOTH",
"138.802 715.671 LINE",
"133.587 28.765 LINE",
"78.317 27.631 LINE SMOOTH",
"47.523 26.999 OFFCURVE",
"51.281 -11 OFFCURVE",
"78.152 -11 CURVE SMOOTH"
);
},
{
closed = 1;
nodes = (
"95.239 882.744 OFFCURVE",
"130.926 934.393 OFFCURVE",
"149.311 953.175 CURVE",
"170.015 934.828 OFFCURVE",
"204.753 893.231 OFFCURVE",
"232.02 862.106 CURVE SMOOTH",
"249.8 841.81 OFFCURVE",
"280.887 867.838 OFFCURVE",
"262.614 888.877 CURVE SMOOTH",
"230.718 925.602 OFFCURVE",
"206.335 956.31 OFFCURVE",
"175.298 984.37 CURVE SMOOTH",
"156.687 1001.19 OFFCURVE",
"137.467 998.48 OFFCURVE",
"125.346 985.84 CURVE SMOOTH",
"101.788 961.281 OFFCURVE",
"63.233 909.424 OFFCURVE",
"38.639 880.422 CURVE SMOOTH",
"22.262 861.108 OFFCURVE",
"52.958 836.617 OFFCURVE",
"73.078 858.567 CURVE SMOOTH"
);
}
);
width = 305;
},
{
layerId = "7911D52E-6854-4A1B-8A16-F908BFF91E8F";
paths = (
{
closed = 1;
nodes = (
"118.858 -11 OFFCURVE",
"203.12 -8.994 OFFCURVE",
"235.726 -7.991 CURVE SMOOTH",
"290.46 -6.066 OFFCURVE",
"287.864 69.48 OFFCURVE",
"234.129 68.748 CURVE SMOOTH",
"199.42 68.275 LINE",
"203.56 675.931 LINE",
"250.338 677.636 LINE SMOOTH",
"308.188 679.746 OFFCURVE",
"308.998 759.37 OFFCURVE",
"247.865 757.713 CURVE SMOOTH",
"213.567 756.783 OFFCURVE",
"128.692 754.379 OFFCURVE",
"79.073 753.576 CURVE SMOOTH",
"19.816 752.617 OFFCURVE",
"23.284 670.807 OFFCURVE",
"82.79 672.24 CURVE SMOOTH",
"121.819 673.18 LINE",
"116.908 67.362 LINE",
"81.08 66.627 LINE SMOOTH",
"22.434 65.423 OFFCURVE",
"30.064 -11 OFFCURVE",
"81.325 -11 CURVE SMOOTH"
);
},
{
closed = 1;
nodes = (
"124.924 875.158 OFFCURVE",
"145.11 901.041 OFFCURVE",
"153.687 914.053 CURVE",
"163.137 902.759 OFFCURVE",
"182.268 882.142 OFFCURVE",
"204.149 857.927 CURVE SMOOTH",
"240.943 817.21 OFFCURVE",
"301.245 869.414 OFFCURVE",
"263.887 910.992 CURVE SMOOTH",
"231.23 947.339 OFFCURVE",
"212.724 968.604 OFFCURVE",
"191.884 989.206 CURVE SMOOTH",
"166.895 1013.91 OFFCURVE",
"133.753 1011.55 OFFCURVE",
"114.084 989.683 CURVE SMOOTH",
"99.943 973.961 OFFCURVE",
"67.738 932.871 OFFCURVE",
"43.558 903.357 CURVE SMOOTH",
"10.48 862.982 OFFCURVE",
"71.032 814.728 OFFCURVE",
"106.994 855.053 CURVE SMOOTH"
);
}
);
width = 328;
}
);
leftKerningGroup = I;
rightKerningGroup = I;
unicode = 00CE;
},
{
glyphname = Idieresis;
lastChange = "2019-02-27 14:35:31 +0000";
layers = (
{
layerId = "4692E1D1-BCA0-47EF-98E6-2E6F4483D11B";
paths = (
{
closed = 1;
nodes = (
"233.492 -2 LINE SMOOTH",
"263.926 -1 OFFCURVE",
"265.733 38.602 OFFCURVE",
"231.095 36.876 CURVE SMOOTH",
"169.205 33.792 LINE",
"170.893 127.726 OFFCURVE",
"171.174 476.57 OFFCURVE",
"160.569 709.928 CURVE",
"170.241 709.656 OFFCURVE",
"196.379 710.572 OFFCURVE",
"232.386 714.025 CURVE SMOOTH",
"257.993 716.48 OFFCURVE",
"259.79 755.874 OFFCURVE",
"226.741 753.11 CURVE SMOOTH",
"167.763 748.178 OFFCURVE",
"117.574 748.647 OFFCURVE",
"60.636 753.455 CURVE SMOOTH",
"27.905 756.219 OFFCURVE",
"24.717 718.029 OFFCURVE",
"54.533 714.105 CURVE SMOOTH",
"76.819 711.172 OFFCURVE",
"103.159 710.065 OFFCURVE",
"116.811 710.065 CURVE",
"129.031 477.707 OFFCURVE",
"127.963 127.766 OFFCURVE",
"125.106 31.368 CURVE",
"59.026 28.172 LINE SMOOTH",
"27.649 26.654 OFFCURVE",
"33.376 -11 OFFCURVE",
"60.777 -10 CURVE SMOOTH"
);
},
{
closed = 1;
nodes = (
"105.519 860.95 OFFCURVE",
"113.247 918.708 OFFCURVE",
"68.292 915.277 CURVE SMOOTH",
"27.754 912.184 OFFCURVE",
"36.155 862.889 OFFCURVE",
"71.233 861.909 CURVE SMOOTH"
);
},
{
closed = 1;
nodes = (
"237.666 854.086 OFFCURVE",
"259.314 910.631 OFFCURVE",
"220.377 917.975 CURVE SMOOTH",
"179.829 925.624 OFFCURVE",
"170.01 879.062 OFFCURVE",
"202.694 866.996 CURVE SMOOTH"
);
}
);
width = 291;
},
{
layerId = "7911D52E-6854-4A1B-8A16-F908BFF91E8F";
paths = (
{
closed = 1;
nodes = (
"254.205 -1.979 LINE SMOOTH",
"309.096 -0.177 OFFCURVE",
"312.71 79.982 OFFCURVE",
"249.888 76.851 CURVE SMOOTH",
"209.298 74.829 LINE",
"210.628 188.61 OFFCURVE",
"210.298 453.168 OFFCURVE",
"201.249 670.835 CURVE",
"227.248 671.862 OFFCURVE",
"240.143 672.78 OFFCURVE",
"254.083 674.116 CURVE SMOOTH",
"303.223 678.828 OFFCURVE",
"306.79 758.22 OFFCURVE",
"244.862 753.04 CURVE SMOOTH",
"186.81 748.186 OFFCURVE",
"138.298 748.639 OFFCURVE",
"82.107 753.384 CURVE SMOOTH",
"23.22 758.357 OFFCURVE",
"16.794 681.504 OFFCURVE",
"71.711 674.276 CURVE SMOOTH",
"88.281 672.095 OFFCURVE",
"105.173 671.044 OFFCURVE",
"117.559 670.537 CURVE",
"128.115 452.395 OFFCURVE",
"128.761 183.63 OFFCURVE",
"126.363 70.447 CURVE",
"77.848 68.149 LINE SMOOTH",
"18.109 65.319 OFFCURVE",
"29.808 -11.866 OFFCURVE",
"81.294 -9.987 CURVE SMOOTH"
);
},
{
closed = 1;
nodes = (
"148.973 840.28 OFFCURVE",
"162.289 940.999 OFFCURVE",
"86.558 935.219 CURVE",
"17.964 929.985 OFFCURVE",
"32.75 843.529 OFFCURVE",
"90.462 841.917 CURVE"
);
},
{
closed = 1;
nodes = (
"274.895 826.328 OFFCURVE",
"312.426 924.698 OFFCURVE",
"243.872 937.628 CURVE SMOOTH",
"177.995 950.056 OFFCURVE",
"160.816 868.442 OFFCURVE",
"215.555 848.234 CURVE"
);
}
);
width = 330;
}
);
leftKerningGroup = I;
rightKerningGroup = I;
unicode = 00CF;
},
{
glyphname = Idotaccent;
lastChange = "2026-01-28 15:25:01 +0000";
layers = (
{
anchors = (
{
name = top;
position = "{133, 929}";
}
);
layerId = "4692E1D1-BCA0-47EF-98E6-2E6F4483D11B";
paths = (
{
closed = 1;
nodes = (
"110.114 -4 OFFCURVE",
"155.011 -4 OFFCURVE",
"201.908 -4 CURVE SMOOTH",
"233.547 -4 OFFCURVE",
"230.724 32.603 OFFCURVE",
"203.902 32.433 CURVE SMOOTH",
"154.526 32.12 LINE",
"154.335 293.978 OFFCURVE",
"155.145 548.837 OFFCURVE",
"153.954 727.695 CURVE",
"202.321 729.462 LINE SMOOTH",
"233.829 730.613 OFFCURVE",
"231.297 769.337 OFFCURVE",
"201.435 768.401 CURVE SMOOTH",
"169.239 767.392 OFFCURVE",
"110.451 766.395 OFFCURVE",
"70.601 764.886 CURVE SMOOTH",
"38.359 763.665 OFFCURVE",
"44.043 725.426 OFFCURVE",
"71.684 725.97 CURVE SMOOTH",
"112.467 726.773 LINE",
"113.386 549.005 OFFCURVE",
"113.193 294.034 OFFCURVE",
"111.084 33.464 CURVE",
"57.55 32.763 LINE SMOOTH",
"25.59 32.344 OFFCURVE",
"26.825 -4 OFFCURVE",
"57.217 -4 CURVE SMOOTH"
);
},
{
closed = 1;
nodes = (
"116.27 850.618 OFFCURVE",
"171.752 869.091 OFFCURVE",
"158.639 905.217 CURVE SMOOTH",
"146.266 939.49 OFFCURVE",
"86.56 923.137 OFFCURVE",
"101.899 885.696 CURVE SMOOTH"
);
}
);
width = 259;
},
{
anchors = (
{
name = top;
position = "{155, 948}";
}
);
layerId = "7911D52E-6854-4A1B-8A16-F908BFF91E8F";
paths = (
{
closed = 1;
nodes = (
"130.54 -4 OFFCURVE",
"175.437 -4 OFFCURVE",
"221.674 -4 CURVE SMOOTH",
"280.585 -4 OFFCURVE",
"276.047 72.765 OFFCURVE",
"223.541 72.433 CURVE SMOOTH",
"194.279 72.247 LINE",
"194.146 317.663 OFFCURVE",
"194.828 515.437 OFFCURVE",
"193.839 688.432 CURVE",
"223.833 689.476 LINE SMOOTH",
"280.769 691.458 OFFCURVE",
"277.394 770.115 OFFCURVE",
"220.595 768.392 CURVE SMOOTH",
"188.511 767.418 OFFCURVE",
"126.674 766.3 OFFCURVE",
"86.654 764.873 CURVE SMOOTH",
"27.755 762.773 OFFCURVE",
"32.235 684.002 OFFCURVE",
"88.844 684.974 CURVE SMOOTH",
"112.332 685.377 LINE",
"113.114 513.457 OFFCURVE",
"112.893 317.105 OFFCURVE",
"111.006 73.206 CURVE",
"77.054 72.761 LINE SMOOTH",
"18.71 71.996 OFFCURVE",
"20.618 -4 OFFCURVE",
"76.983 -4 CURVE SMOOTH"
);
},
{
closed = 1;
nodes = (
"127.327 819.121 OFFCURVE",
"219.164 851.544 OFFCURVE",
"197.205 912.041 CURVE SMOOTH",
"176.2 970.226 OFFCURVE",
"77.125 941.657 OFFCURVE",
"103.158 878.114 CURVE SMOOTH"
);
}
);
width = 299;
}
);
leftKerningGroup = I;
rightKerningGroup = I;
unicode = 0130;
},
{
glyphname = Idotbelow;
lastChange = "2019-02-27 14:35:39 +0000";
layers = (
{
layerId = "4692E1D1-BCA0-47EF-98E6-2E6F4483D11B";
paths = (
{
closed = 1;
nodes = (
"146.716 761.978 OFFCURVE",
"103.819 761.978 OFFCURVE",
"56.922 762.978 CURVE SMOOTH",
"25.29 763.652 OFFCURVE",
"28.108 724.843 OFFCURVE",
"54.928 724.3 CURVE SMOOTH",
"71.387 723.967 OFFCURVE",
"87.845 723.633 OFFCURVE",
"104.304 723.3 CURVE",
"105.495 421.442 OFFCURVE",
"103.685 210.141 OFFCURVE",
"104.876 31.283 CURVE",
"89.754 30.694 OFFCURVE",
"74.631 30.105 OFFCURVE",
"59.509 29.516 CURVE SMOOTH",
"30.998 28.406 OFFCURVE",
"33.533 -9.359 OFFCURVE",
"60.395 -8.423 CURVE SMOOTH",
"92.588 -7.301 OFFCURVE",
"146.391 -6.694 OFFCURVE",
"186.229 -4.908 CURVE SMOOTH",
"213.471 -3.687 OFFCURVE",
"213.787 33.533 OFFCURVE",
"187.146 33.008 CURVE SMOOTH",
"173.552 32.74 OFFCURVE",
"159.957 32.473 OFFCURVE",
"146.363 32.205 CURVE",
"144.444 210.973 OFFCURVE",
"146.637 422.73 OFFCURVE",
"147.746 723.3 CURVE",
"164.591 723.633 OFFCURVE",
"181.435 723.967 OFFCURVE",
"198.28 724.3 CURVE SMOOTH",
"226.372 724.856 OFFCURVE",
"226 763.477 OFFCURVE",
"199.613 762.978 CURVE SMOOTH"
);
},
{
closed = 1;
nodes = (
"91.27 -142.203 OFFCURVE",
"145.237 -156.94 OFFCURVE",
"155.872 -125.681 CURVE SMOOTH",
"167.697 -90.924 OFFCURVE",
"117.479 -74.206 OFFCURVE",
"104.456 -107.992 CURVE SMOOTH"
);
}
);
width = 253;
},
{
layerId = "7911D52E-6854-4A1B-8A16-F908BFF91E8F";
paths = (
{
closed = 1;
nodes = (
"165.705 761.966 OFFCURVE",
"123.209 761.992 OFFCURVE",
"77.178 762.973 CURVE SMOOTH",
"17.873 764.237 OFFCURVE",
"22.283 686.304 OFFCURVE",
"74.353 686.304 CURVE SMOOTH",
"85.731 686.304 OFFCURVE",
"95.748 686.115 OFFCURVE",
"106.212 685.555 CURVE",
"106.197 407.697 OFFCURVE",
"104.688 240.411 OFFCURVE",
"105.567 70.5 CURVE",
"95.187 70.2 OFFCURVE",
"90.496 70.012 OFFCURVE",
"77.561 69.501 CURVE SMOOTH",
"21.823 67.299 OFFCURVE",
"27.043 -9.253 OFFCURVE",
"80.921 -7.411 CURVE SMOOTH",
"112.88 -6.318 OFFCURVE",
"167.781 -6.655 OFFCURVE",
"207.955 -4.888 CURVE SMOOTH",
"262.304 -2.497 OFFCURVE",
"262.285 72.899 OFFCURVE",
"209.582 72.004 CURVE SMOOTH",
"202.281 71.88 OFFCURVE",
"192.979 71.756 OFFCURVE",
"186.678 71.632 CURVE",
"182.212 279.447 OFFCURVE",
"185.263 352.655 OFFCURVE",
"187.136 685.703 CURVE",
"197.26 685.903 OFFCURVE",
"208.383 686.104 OFFCURVE",
"218.506 686.304 CURVE SMOOTH",
"273.049 687.383 OFFCURVE",
"271.631 763.969 OFFCURVE",
"219.065 762.974 CURVE SMOOTH"
);
},
{
closed = 1;
nodes = (
"82.449 -160.926 OFFCURVE",
"175.688 -187.815 OFFCURVE",
"194.636 -132.123 CURVE SMOOTH",
"214.82 -72.796 OFFCURVE",
"127.933 -42.922 OFFCURVE",
"105.624 -100.799 CURVE SMOOTH"
);
}
);
width = 293;
}
);
leftKerningGroup = I;
rightKerningGroup = I;
unicode = 1ECA;
},
{
glyphname = Igrave;
lastChange = "2019-02-27 14:35:42 +0000";
layers = (
{
layerId = "4692E1D1-BCA0-47EF-98E6-2E6F4483D11B";
paths = (
{
closed = 1;
nodes = (
"96 -12 OFFCURVE",
"200 -11 OFFCURVE",
"224 -11 CURVE SMOOTH",
"253 -11 OFFCURVE",
"252 26 OFFCURVE",
"224 26 CURVE SMOOTH",
"162 26 LINE",
"165 702 LINE",
"232 702 LINE SMOOTH",
"262 702 OFFCURVE",
"261 740 OFFCURVE",
"232 740 CURVE SMOOTH",
"164 740 LINE",
"165 771 OFFCURVE",
"121 768 OFFCURVE",
"122 740 CURVE",
"57 740 LINE SMOOTH",
"27 740 OFFCURVE",
"25 702 OFFCURVE",
"59 702 CURVE SMOOTH",
"121 701 LINE",
"118 26 LINE",
"61 26 LINE SMOOTH",
"31 26 OFFCURVE",
"31 -10 OFFCURVE",
"59 -11 CURVE SMOOTH"
);
},
{
closed = 1;
nodes = (
"159 812 OFFCURVE",
"193 836 OFFCURVE",
"175 861 CURVE SMOOTH",
"154 889 OFFCURVE",
"100 968 OFFCURVE",
"87 988 CURVE SMOOTH",
"66 1018 OFFCURVE",
"34 992 OFFCURVE",
"50 969 CURVE SMOOTH",
"69 942 OFFCURVE",
"120 869 OFFCURVE",
"141 838 CURVE SMOOTH"
);
}
);
width = 288;
},
{
layerId = "7911D52E-6854-4A1B-8A16-F908BFF91E8F";
paths = (
{
closed = 1;
nodes = (
"115.655 -11.603 OFFCURVE",
"220.144 -11 OFFCURVE",
"243.838 -11 CURVE SMOOTH",
"300.246 -11 OFFCURVE",
"297.235 65.487 OFFCURVE",
"243.372 65.297 CURVE SMOOTH",
"202.094 65.152 LINE",
"204.725 653.23 LINE",
"251.982 653.315 LINE SMOOTH",
"307.936 653.415 OFFCURVE",
"307.091 729.913 OFFCURVE",
"251.501 730.25 CURVE SMOOTH",
"204.29 730.536 LINE",
"204.318 781.441 OFFCURVE",
"119.259 779.775 OFFCURVE",
"119.972 730.321 CURVE",
"76.575 729.953 LINE SMOOTH",
"21.748 729.488 OFFCURVE",
"17.345 652.984 OFFCURVE",
"78.202 652.656 CURVE SMOOTH",
"121.026 652.426 LINE",
"117.526 65.114 LINE",
"80.463 65 LINE SMOOTH",
"24.649 64.827 OFFCURVE",
"24.282 -10.09 OFFCURVE",
"78.502 -10.988 CURVE SMOOTH"
);
},
{
closed = 1;
nodes = (
"171.076 790.23 OFFCURVE",
"236.774 837.147 OFFCURVE",
"204.276 883.465 CURVE SMOOTH",
"184.209 912.066 OFFCURVE",
"144.437 969.573 OFFCURVE",
"129.889 989.518 CURVE SMOOTH",
"92.367 1040.96 OFFCURVE",
"30.49 991.39 OFFCURVE",
"60.147 948.157 CURVE SMOOTH",
"79.102 920.525 OFFCURVE",
"114.986 868.446 OFFCURVE",
"137.231 837.426 CURVE SMOOTH"
);
}
);
width = 328;
}
);
leftKerningGroup = I;
rightKerningGroup = I;
unicode = 00CC;
},
{
glyphname = Imacron;
lastChange = "2020-03-01 12:39:48 +0000";
layers = (
{
layerId = "4692E1D1-BCA0-47EF-98E6-2E6F4483D11B";
paths = (
{
closed = 1;
nodes = (
"120.341 -6 OFFCURVE",
"174.308 -7 OFFCURVE",
"223.234 -6 CURVE SMOOTH",
"248.919 -6 OFFCURVE",
"250.316 30.466 OFFCURVE",
"222.297 30.688 CURVE SMOOTH",
"166.828 31.125 LINE",
"172.75 255.719 OFFCURVE",
"171.968 483.422 OFFCURVE",
"171.797 721.828 CURVE",
"218.281 723.5 LINE SMOOTH",
"246.024 724.498 OFFCURVE",
"246.021 760.766 OFFCURVE",
"218.281 760.422 CURVE SMOOTH",
"193.013 760.109 OFFCURVE",
"109.984 758.404 OFFCURVE",
"77.874 756.906 CURVE SMOOTH",
"48.462 755.534 OFFCURVE",
"51.446 720.44 OFFCURVE",
"78.234 720.484 CURVE SMOOTH",
"94.116 720.519 OFFCURVE",
"116.695 720.784 OFFCURVE",
"129.297 720.984 CURVE",
"130.531 483.906 OFFCURVE",
"130.609 255.133 OFFCURVE",
"124.406 31.484 CURVE",
"70.796 31.781 LINE SMOOTH",
"41.614 31.943 OFFCURVE",
"45.176 -6 OFFCURVE",
"70.452 -6 CURVE SMOOTH"
);
},
{
closed = 1;
nodes = (
"91.2 886.149 OFFCURVE",
"202.25 887.514 OFFCURVE",
"236.047 888.969 CURVE SMOOTH",
"265.797 890.25 OFFCURVE",
"262.524 926.35 OFFCURVE",
"236.531 925.672 CURVE SMOOTH",
"205.533 924.863 OFFCURVE",
"87.021 923.15 OFFCURVE",
"54.187 921.688 CURVE SMOOTH",
"27.288 920.49 OFFCURVE",
"26.539 884.423 OFFCURVE",
"56.359 885.219 CURVE SMOOTH"
);
}
);
width = 292;
},
{
layerId = "7911D52E-6854-4A1B-8A16-F908BFF91E8F";
paths = (
{
closed = 1;
nodes = (
"139.901 -6 OFFCURVE",
"194.072 -7.004 OFFCURVE",
"243.388 -5.996 CURVE SMOOTH",
"294.184 -6 OFFCURVE",
"297.085 70.252 OFFCURVE",
"242.2 70.687 CURVE SMOOTH",
"207.085 70.964 LINE",
"212.3 283.173 OFFCURVE",
"211.744 458.318 OFFCURVE",
"211.557 682.535 CURVE",
"238.745 683.513 LINE SMOOTH",
"292.025 685.43 OFFCURVE",
"293.017 761.093 OFFCURVE",
"238.778 760.42 CURVE SMOOTH",
"213.51 760.107 OFFCURVE",
"129.058 758.394 OFFCURVE",
"96.687 756.884 CURVE SMOOTH",
"40.283 754.253 OFFCURVE",
"46.553 680.4 OFFCURVE",
"98.012 680.484 CURVE SMOOTH",
"106.988 680.5 OFFCURVE",
"118.532 680.606 OFFCURVE",
"128.144 680.716 CURVE",
"130.241 457.784 OFFCURVE",
"130.183 282.389 OFFCURVE",
"124.685 71.592 CURVE",
"90.652 71.781 LINE SMOOTH",
"33.145 72.099 OFFCURVE",
"40.43 -6 OFFCURVE",
"90.197 -6 CURVE SMOOTH"
);
},
{
closed = 1;
nodes = (
"111.479 866.156 OFFCURVE",
"222.638 868.523 OFFCURVE",
"256.652 869.988 CURVE SMOOTH",
"313.588 872.439 OFFCURVE",
"307.764 945.996 OFFCURVE",
"256.754 944.665 CURVE SMOOTH",
"225.873 943.859 OFFCURVE",
"106.177 942.144 OFFCURVE",
"73.042 940.668 CURVE SMOOTH",
"21.156 938.357 OFFCURVE",
"19.628 863.704 OFFCURVE",
"76.638 865.226 CURVE SMOOTH"
);
}
);
width = 332;
}
);
leftKerningGroup = I;
rightKerningGroup = I;
unicode = 012A;
},
{
glyphname = Iogonek;
lastChange = "2026-01-28 13:21:24 +0000";
layers = (
{
anchors = (
{
name = top;
position = "{139, 768}";
}
);
layerId = "4692E1D1-BCA0-47EF-98E6-2E6F4483D11B";
paths = (
{
closed = 1;
nodes = (
"201.217 -181 OFFCURVE",
"201.329 -146 OFFCURVE",
"175.686 -145 CURVE SMOOTH",
"153.759 -144 OFFCURVE",
"113.123 -141 OFFCURVE",
"112.643 -106 CURVE SMOOTH",
"111.755 -42 OFFCURVE",
"187 -22 OFFCURVE",
"216 -8 CURVE SMOOTH",
"239 3 OFFCURVE",
"230.912 36.84 OFFCURVE",
"202.548 36.281 CURVE SMOOTH",
"159.306 35.43 LINE",
"158.29 110.788 OFFCURVE",
"156.453 454.543 OFFCURVE",
"157.001 726.883 CURVE",
"207.601 728.63 LINE SMOOTH",
"230.947 729.436 OFFCURVE",
"233.757 768.361 OFFCURVE",
"204.844 767.721 CURVE SMOOTH",
"63.964 764.6 LINE SMOOTH",
"37.328 764.01 OFFCURVE",
"38.952 724.935 OFFCURVE",
"65.308 725.231 CURVE SMOOTH",
"115.234 725.791 LINE",
"115.499 454.592 OFFCURVE",
"115.426 117.214 OFFCURVE",
"116.327 35.448 CURVE",
"52.571 33.167 LINE SMOOTH",
"27.3 32.263 OFFCURVE",
"27.85 -5 OFFCURVE",
"54.041 -5 CURVE SMOOTH",
"79.633 -5 OFFCURVE",
"131 -3 OFFCURVE",
"162.294 -2 CURVE",
"129 -9 OFFCURVE",
"73 -41 OFFCURVE",
"73 -106 CURVE SMOOTH",
"74 -178 OFFCURVE",
"152.409 -181 OFFCURVE",
"171.071 -181 CURVE SMOOTH"
);
}
);
width = 263;
},
{
anchors = (
{
name = top;
position = "{156, 768}";
}
);
layerId = "7911D52E-6854-4A1B-8A16-F908BFF91E8F";
paths = (
{
closed = 1;
nodes = (
"247.127 -178.448 OFFCURVE",
"247.485 -105.968 OFFCURVE",
"196.254 -106.015 CURVE SMOOTH",
"175.74 -106.034 OFFCURVE",
"152.674 -99.403 OFFCURVE",
"152.43 -76.726 CURVE SMOOTH",
"151.939 -32.13 OFFCURVE",
"212.565 -17.692 OFFCURVE",
"243.475 -3.984 CURVE SMOOTH",
"286.707 15.189 OFFCURVE",
"274.112 75.779 OFFCURVE",
"223.412 75.809 CURVE SMOOTH",
"198.864 75.823 LINE",
"197.854 177.091 OFFCURVE",
"196.359 438.278 OFFCURVE",
"196.755 687.56 CURVE",
"228.08 688.642 LINE SMOOTH",
"275.681 690.285 OFFCURVE",
"281.314 768.981 OFFCURVE",
"224.19 767.716 CURVE SMOOTH",
"83.31 764.595 LINE SMOOTH",
"30.03 763.415 OFFCURVE",
"33.298 684.666 OFFCURVE",
"85.322 685.232 CURVE SMOOTH",
"116.042 685.566 LINE",
"116.269 436.217 OFFCURVE",
"116.242 178.644 OFFCURVE",
"116.951 74.739 CURVE",
"71.645 73.154 LINE SMOOTH",
"20.533 71.366 OFFCURVE",
"21.667 -6 OFFCURVE",
"73.83 -5 CURVE SMOOTH",
"99.716 -4.504 OFFCURVE",
"123.4 -4.128 OFFCURVE",
"134.044 -3.983 CURVE",
"114.876 -13.378 OFFCURVE",
"73.141 -33.391 OFFCURVE",
"73.141 -86.143 CURVE SMOOTH",
"73.141 -176.258 OFFCURVE",
"168.816 -182 OFFCURVE",
"190.86 -181 CURVE SMOOTH"
);
}
);
width = 304;
}
);
leftKerningGroup = I;
rightKerningGroup = I;
unicode = 012E;
},
{
glyphname = Itilde;
lastChange = "2019-03-06 18:36:52 +0000";
layers = (
{
layerId = "4692E1D1-BCA0-47EF-98E6-2E6F4483D11B";
paths = (
{
closed = 1;
nodes = (
"116 -8 OFFCURVE",
"159 -8 OFFCURVE",
"209 -8 CURVE SMOOTH",
"233 -8 OFFCURVE",
"236 28 OFFCURVE",
"209 28 CURVE SMOOTH",
"159 29 LINE",
"159 259 OFFCURVE",
"157 495 OFFCURVE",
"154 738 CURVE",
"169 739 OFFCURVE",
"194 741 OFFCURVE",
"210 742 CURVE SMOOTH",
"237 744 OFFCURVE",
"234 784 OFFCURVE",
"208 782 CURVE SMOOTH",
"178 780 OFFCURVE",
"85 773 OFFCURVE",
"63 771 CURVE SMOOTH",
"35 768 OFFCURVE",
"40 728 OFFCURVE",
"68 731 CURVE SMOOTH",
"112 734 LINE",
"115 491 OFFCURVE",
"118 260 OFFCURVE",
"116 30 CURVE",
"67 29 LINE SMOOTH",
"39 29 OFFCURVE",
"41 -8 OFFCURVE",
"66 -8 CURVE SMOOTH"
);
},
{
closed = 1;
nodes = (
"246 880 OFFCURVE",
"259 927 OFFCURVE",
"264 951 CURVE SMOOTH",
"271 978 OFFCURVE",
"233 985 OFFCURVE",
"227 962 CURVE SMOOTH",
"221 941 OFFCURVE",
"218 917 OFFCURVE",
"190 913 CURVE SMOOTH",
"152 909 OFFCURVE",
"145 972 OFFCURVE",
"85 969 CURVE SMOOTH",
"43 967 OFFCURVE",
"21 934 OFFCURVE",
"14 897 CURVE SMOOTH",
"10 872 OFFCURVE",
"50 868 OFFCURVE",
"53 890 CURVE SMOOTH",
"56 910 OFFCURVE",
"68 933 OFFCURVE",
"89 933 CURVE SMOOTH",
"122 934 OFFCURVE",
"134 874 OFFCURVE",
"190 877 CURVE SMOOTH"
);
}
);
width = 279;
},
{
layerId = "7911D52E-6854-4A1B-8A16-F908BFF91E8F";
paths = (
{
closed = 1;
nodes = (
"135 -8 OFFCURVE",
"179 -8 OFFCURVE",
"228 -8 CURVE SMOOTH",
"278 -8 OFFCURVE",
"282 68 OFFCURVE",
"228 68 CURVE SMOOTH",
"198 69 LINE",
"198 292 OFFCURVE",
"196 461 OFFCURVE",
"193 697 CURVE",
"203 698 OFFCURVE",
"219 700 OFFCURVE",
"230 701 CURVE SMOOTH",
"283 707 OFFCURVE",
"278 787 OFFCURVE",
"226 782 CURVE SMOOTH",
"191 779 OFFCURVE",
"109 773 OFFCURVE",
"80 771 CURVE SMOOTH",
"26 767 OFFCURVE",
"35 686 OFFCURVE",
"86 690 CURVE SMOOTH",
"112 692 LINE",
"115 463 OFFCURVE",
"116 287 OFFCURVE",
"116 70 CURVE",
"86 69 LINE SMOOTH",
"32 69 OFFCURVE",
"34 -8 OFFCURVE",
"85 -8 CURVE SMOOTH"
);
},
{
closed = 1;
nodes = (
"278 864 OFFCURVE",
"296 922 OFFCURVE",
"302 946 CURVE SMOOTH",
"314 997 OFFCURVE",
"242 1012 OFFCURVE",
"232 964 CURVE SMOOTH",
"227 942 OFFCURVE",
"217 930 OFFCURVE",
"208 929 CURVE SMOOTH",
"184 927 OFFCURVE",
"180 990 OFFCURVE",
"114 987 CURVE SMOOTH",
"65 985 OFFCURVE",
"24 958 OFFCURVE",
"15 901 CURVE SMOOTH",
"6 850 OFFCURVE",
"82 838 OFFCURVE",
"91 887 CURVE SMOOTH",
"94 903 OFFCURVE",
"100 916 OFFCURVE",
"117 916 CURVE SMOOTH",
"138 916 OFFCURVE",
"151 854 OFFCURVE",
"211 859 CURVE SMOOTH"
);
}
);
width = 317;
}
);
leftKerningGroup = I;
rightKerningGroup = I;
unicode = 0128;
},
{
glyphname = J;
lastChange = "2026-01-28 15:35:04 +0000";
layers = (
{
anchors = (
{
name = top;
position = "{398, 785}";
}
);
background = {
paths = (
{
closed = 1;
nodes = (
"538.281 -161.687 OFFCURVE",
"511.136 174.013 OFFCURVE",
"508.064 403.187 CURVE SMOOTH",
"505.866 567.181 OFFCURVE",
"504.198 665.446 OFFCURVE",
"502.705 720.906 CURVE",
"510.472 720.672 OFFCURVE",
"522.951 721.882 OFFCURVE",
"537.152 723.859 CURVE SMOOTH",
"561.772 727.287 OFFCURVE",
"559.637 766.234 OFFCURVE",
"533.106 764.844 CURVE SMOOTH",
"431.221 759.506 OFFCURVE",
"306.44 763.452 OFFCURVE",
"220.064 770.156 CURVE SMOOTH",
"189.861 772.5 OFFCURVE",
"186.814 733.25 OFFCURVE",
"216.346 730.109 CURVE SMOOTH",
"295.831 721.655 OFFCURVE",
"407.27 720.656 OFFCURVE",
"458.877 721.031 CURVE",
"461.877 655.253 OFFCURVE",
"462.136 573.228 OFFCURVE",
"465.908 402.156 CURVE SMOOTH",
"470.762 182.034 OFFCURVE",
"491.674 -118 OFFCURVE",
"240.361 -107 CURVE SMOOTH",
"132.804 -102.292 OFFCURVE",
"78.466 -46 OFFCURVE",
"77.611 60 CURVE SMOOTH",
"77.377 89 OFFCURVE",
"34.471 89 OFFCURVE",
"34.033 61 CURVE SMOOTH",
"32.203 -55.999 OFFCURVE",
"101.877 -142 OFFCURVE",
"234.877 -148 CURVE SMOOTH"
);
}
);
};
layerId = "4692E1D1-BCA0-47EF-98E6-2E6F4483D11B";
paths = (
{
closed = 1;
nodes = (
"538.281 -191.687 OFFCURVE",
"511.136 144.013 OFFCURVE",
"508.064 403.187 CURVE SMOOTH",
"506.12 567.184 OFFCURVE",
"504.198 665.446 OFFCURVE",
"502.705 720.906 CURVE",
"510.472 720.672 OFFCURVE",
"522.951 721.882 OFFCURVE",
"537.152 723.859 CURVE SMOOTH",
"561.772 727.287 OFFCURVE",
"559.637 766.234 OFFCURVE",
"533.106 764.844 CURVE SMOOTH",
"431.221 759.506 OFFCURVE",
"306.44 763.452 OFFCURVE",
"220.064 770.156 CURVE SMOOTH",
"189.861 772.5 OFFCURVE",
"186.814 733.25 OFFCURVE",
"216.346 730.109 CURVE SMOOTH",
"295.831 721.655 OFFCURVE",
"407.27 720.656 OFFCURVE",
"458.877 721.031 CURVE",
"461.877 655.253 OFFCURVE",
"462.588 573.237 OFFCURVE",
"465.908 402.156 CURVE SMOOTH",
"470.762 152.034 OFFCURVE",
"491.674 -148 OFFCURVE",
"240.361 -137 CURVE SMOOTH",
"132.804 -132.292 OFFCURVE",
"78.466 -76 OFFCURVE",
"77.611 30 CURVE SMOOTH",
"77.377 59 OFFCURVE",
"34.471 59 OFFCURVE",
"34.033 31 CURVE SMOOTH",
"32.203 -86 OFFCURVE",
"101.877 -172 OFFCURVE",
"234.877 -178 CURVE SMOOTH"
);
}
);
width = 588;
},
{
anchors = (
{
name = top;
position = "{411, 785}";
}
);
layerId = "7911D52E-6854-4A1B-8A16-F908BFF91E8F";
paths = (
{
closed = 1;
nodes = (
"580.183 -192.697 OFFCURVE",
"552.552 164.927 OFFCURVE",
"548.064 403.25 CURVE SMOOTH",
"545.719 527.751 OFFCURVE",
"542.764 592.109 OFFCURVE",
"540.764 682.906 CURVE",
"549.805 683.09 OFFCURVE",
"557.745 683.459 OFFCURVE",
"566.369 684.5 CURVE SMOOTH",
"613.518 690.191 OFFCURVE",
"609.979 767.444 OFFCURVE",
"560.123 764.82 CURVE SMOOTH",
"458.972 759.496 OFFCURVE",
"327.457 763.418 OFFCURVE",
"241.615 770.096 CURVE SMOOTH",
"185.425 774.467 OFFCURVE",
"178.913 697.711 OFFCURVE",
"234.231 691.221 CURVE SMOOTH",
"293.771 684.236 OFFCURVE",
"399.508 681.298 OFFCURVE",
"461.907 681.031 CURVE",
"465.574 590.05 OFFCURVE",
"467.959 530.062 OFFCURVE",
"469.908 401.088 CURVE SMOOTH",
"473.458 166.154 OFFCURVE",
"489.869 -111.026 OFFCURVE",
"261.236 -101.019 CURVE SMOOTH",
"164.402 -96.781 OFFCURVE",
"117.356 -45.299 OFFCURVE",
"116.61 50.156 CURVE SMOOTH",
"116.181 105.083 OFFCURVE",
"34.884 105.558 OFFCURVE",
"34.035 51.313 CURVE SMOOTH",
"31.93 -83.192 OFFCURVE",
"117.036 -171.802 OFFCURVE",
"253.976 -177.98 CURVE SMOOTH"
);
}
);
width = 633;
}
);
leftKerningGroup = J;
rightKerningGroup = J;
unicode = 004A;
},
{
glyphname = Jcircumflex;
lastChange = "2020-02-26 18:06:13 +0000";
layers = (
{
layerId = "4692E1D1-BCA0-47EF-98E6-2E6F4483D11B";
paths = (
{
closed = 1;
nodes = (
"440.113 766.049 OFFCURVE",
"322.54 764.749 OFFCURVE",
"235.569 765.1 CURVE SMOOTH",
"205.287 765.222 OFFCURVE",
"207.941 723.828 OFFCURVE",
"237.646 724.114 CURVE SMOOTH",
"293.83 724.654 OFFCURVE",
"382.601 724.228 OFFCURVE",
"433.893 724.511 CURVE",
"438.295 633.436 OFFCURVE",
"444.063 534.486 OFFCURVE",
"449.786 410.437 CURVE SMOOTH",
"460.509 178 OFFCURVE",
"485.153 -118 OFFCURVE",
"239.63 -113 CURVE SMOOTH",
"132.027 -110.809 OFFCURVE",
"94.43 -31 OFFCURVE",
"76.04 6 CURVE SMOOTH",
"63.107 32.02 OFFCURVE",
"21.653 18 OFFCURVE",
"37.602 -17 CURVE SMOOTH",
"51.796 -48.148 OFFCURVE",
"102.002 -151 OFFCURVE",
"235.1 -154 CURVE SMOOTH",
"538.773 -160.845 OFFCURVE",
"501.69 174 OFFCURVE",
"492.857 413.479 CURVE SMOOTH",
"488.44 533.218 OFFCURVE",
"482.365 632.511 OFFCURVE",
"477.768 725.072 CURVE",
"473.183 725.408 OFFCURVE",
"480.627 726.026 OFFCURVE",
"517.185 727.491 CURVE SMOOTH",
"544.376 728.581 OFFCURVE",
"547.349 766.378 OFFCURVE",
"515.039 766.279 CURVE SMOOTH"
);
},
{
closed = 1;
nodes = (
"496.536 841.894 OFFCURVE",
"526.908 870.172 OFFCURVE",
"509.033 889.984 CURVE SMOOTH",
"475.728 926.898 OFFCURVE",
"453.268 951.313 OFFCURVE",
"412.408 1004.5 CURVE SMOOTH",
"399.517 1021.28 OFFCURVE",
"382.814 1021.44 OFFCURVE",
"368.408 1004.53 CURVE SMOOTH",
"336.346 966.91 OFFCURVE",
"317.658 946.67 OFFCURVE",
"274.471 899.969 CURVE SMOOTH",
"254.757 878.651 OFFCURVE",
"285.189 852.688 OFFCURVE",
"306.424 874.047 CURVE SMOOTH",
"325.565 893.299 OFFCURVE",
"364.56 937.795 OFFCURVE",
"388.627 966 CURVE",
"413.877 933.84 OFFCURVE",
"447.392 896.016 OFFCURVE",
"476.392 864.078 CURVE SMOOTH"
);
}
);
width = 572;
},
{
layerId = "7911D52E-6854-4A1B-8A16-F908BFF91E8F";
paths = (
{
closed = 1;
nodes = (
"470.482 766.049 OFFCURVE",
"342.916 764.749 OFFCURVE",
"256.08 765.099 CURVE SMOOTH",
"198.153 765.332 OFFCURVE",
"203.374 683.585 OFFCURVE",
"258.268 684.114 CURVE SMOOTH",
"316.268 684.672 OFFCURVE",
"399.256 685.182 OFFCURVE",
"436.138 685.399 CURVE",
"438.654 634.372 OFFCURVE",
"446.713 565.042 OFFCURVE",
"452.226 423.771 CURVE SMOOTH",
"461.319 190.778 OFFCURVE",
"483.792 -76.554 OFFCURVE",
"260.466 -72.006 CURVE SMOOTH",
"165.265 -70.067 OFFCURVE",
"132.866 -1.297 OFFCURVE",
"114.378 35.9 CURVE SMOOTH",
"90.884 83.168 OFFCURVE",
"12.129 56.496 OFFCURVE",
"39.831 -4.295 CURVE SMOOTH",
"54.165 -35.749 OFFCURVE",
"109.759 -149.721 OFFCURVE",
"255.078 -152.995 CURVE SMOOTH",
"581.584 -160.351 OFFCURVE",
"540.328 189.325 OFFCURVE",
"533.279 428.015 CURVE SMOOTH",
"529.259 564.154 OFFCURVE",
"521.651 634.43 OFFCURVE",
"519.031 686.817 CURVE",
"527.755 687.03 OFFCURVE",
"530.215 687.268 OFFCURVE",
"547.869 687.493 CURVE SMOOTH",
"599.637 688.151 OFFCURVE",
"605.6 766.463 OFFCURVE",
"545.408 766.279 CURVE SMOOTH"
);
},
{
closed = 1;
nodes = (
"504.519 829.282 OFFCURVE",
"560.447 880.154 OFFCURVE",
"525.882 920.382 CURVE SMOOTH",
"503.53 946.396 OFFCURVE",
"478.159 976.448 OFFCURVE",
"446.272 1016.679 CURVE SMOOTH",
"424.734 1043.852 OFFCURVE",
"399.773 1045.387 OFFCURVE",
"375.184 1017.5 CURVE SMOOTH",
"349.848 988.767 OFFCURVE",
"328.964 966.238 OFFCURVE",
"295.787 931.548 CURVE SMOOTH",
"257.632 891.653 OFFCURVE",
"313.371 842.099 OFFCURVE",
"353.607 880.946 CURVE SMOOTH",
"377.736 904.242 OFFCURVE",
"392.432 924.382 OFFCURVE",
"408.692 942.44 CURVE",
"432.201 913.883 OFFCURVE",
"448.268 893.783 OFFCURVE",
"467.585 871.633 CURVE SMOOTH"
);
}
);
width = 623;
}
);
leftKerningGroup = J;
rightKerningGroup = J;
unicode = 0134;
},
{
glyphname = K;
lastChange = "2020-03-04 17:25:46 +0000";
layers = (
{
layerId = "4692E1D1-BCA0-47EF-98E6-2E6F4483D11B";
paths = (
{
closed = 1;
nodes = (
"39 650 OFFCURVE",
"34 86 OFFCURVE",
"34 12 CURVE SMOOTH",
"34 -19 OFFCURVE",
"77 -18 OFFCURVE",
"77 12 CURVE SMOOTH",
"77 83 OFFCURVE",
"75 224 OFFCURVE",
"74 312 CURVE",
"487 -4 LINE SMOOTH",
"514 -25 OFFCURVE",
"540 11 OFFCURVE",
"512 33 CURVE SMOOTH",
"86 356 LINE",
"504 693 LINE SMOOTH",
"529 713 OFFCURVE",
"502 746 OFFCURVE",
"477 726 CURVE SMOOTH",
"79 405 LINE",
"80 532 OFFCURVE",
"82 650 OFFCURVE",
"82 749 CURVE SMOOTH",
"82 781 OFFCURVE",
"39 777 OFFCURVE",
"39 749 CURVE SMOOTH"
);
}
);
width = 558;
},
{
layerId = "7911D52E-6854-4A1B-8A16-F908BFF91E8F";
paths = (
{
closed = 1;
nodes = (
"42 630 OFFCURVE",
"36 144 OFFCURVE",
"34 33 CURVE SMOOTH",
"33 -25 OFFCURVE",
"118 -24 OFFCURVE",
"118 32 CURVE SMOOTH",
"118 104 OFFCURVE",
"117 218 OFFCURVE",
"117 279 CURVE",
"477 -2 LINE SMOOTH",
"525 -40 OFFCURVE",
"574 27 OFFCURVE",
"528 63 CURVE SMOOTH",
"144 361 LINE",
"530 671 LINE SMOOTH",
"578 710 OFFCURVE",
"523 770 OFFCURVE",
"478 734 CURVE SMOOTH",
"120 447 LINE",
"121 569 OFFCURVE",
"122 628 OFFCURVE",
"124 727 CURVE SMOOTH",
"125 787 OFFCURVE",
"39 787 OFFCURVE",
"40 727 CURVE SMOOTH"
);
}
);
width = 583;
}
);
leftKerningGroup = K;
rightKerningGroup = K;
unicode = 004B;
},
{
glyphname = Kcommaaccent;
lastChange = "2018-11-08 21:30:18 +0000";
layers = (
{
layerId = "4692E1D1-BCA0-47EF-98E6-2E6F4483D11B";
paths = (
{
closed = 1;
nodes = (
"483.915 -19.734 OFFCURVE",
"513.393 12.478 OFFCURVE",
"491.362 34.039 CURVE SMOOTH",
"394.135 129.189 OFFCURVE",
"217.019 293.461 OFFCURVE",
"110.533 390.836 CURVE",
"181.862 442.727 OFFCURVE",
"442.501 619.913 OFFCURVE",
"480.018 648.196 CURVE SMOOTH",
"508.235 669.467 OFFCURVE",
"476.015 698.911 OFFCURVE",
"453.252 681.43 CURVE SMOOTH",
"416.114 652.909 OFFCURVE",
"174.502 486.367 OFFCURVE",
"77.737 417.461 CURVE",
"78.161 494.704 OFFCURVE",
"78.87 638.087 OFFCURVE",
"79.268 748.914 CURVE SMOOTH",
"79.374 778.541 OFFCURVE",
"36.607 777.401 OFFCURVE",
"36.768 749.289 CURVE SMOOTH",
"37.639 597.454 OFFCURVE",
"34.725 75.817 OFFCURVE",
"34.002 13.586 CURVE SMOOTH",
"33.647 -17 OFFCURVE",
"76.297 -15 OFFCURVE",
"76.987 12.664 CURVE SMOOTH",
"78.142 58.969 OFFCURVE",
"78.442 239.502 OFFCURVE",
"78.346 362.774 CURVE SMOOTH",
"194.918 256.41 OFFCURVE",
"378.126 86.589 OFFCURVE",
"455.674 8.649 CURVE SMOOTH"
);
},
{
closed = 1;
nodes = (
"271.688 -188.956 OFFCURVE",
"288.113 -151.668 OFFCURVE",
"288.691 -122.441 CURVE SMOOTH",
"289.333 -89.951 OFFCURVE",
"270.393 -67.421 OFFCURVE",
"242.049 -69 CURVE SMOOTH",
"197.172 -71 OFFCURVE",
"187.718 -145 OFFCURVE",
"245.11 -140 CURVE",
"246.559 -149.03 OFFCURVE",
"236.53 -170.99 OFFCURVE",
"204.221 -198 CURVE SMOOTH",
"185.152 -215 OFFCURVE",
"210.47 -243 OFFCURVE",
"232.006 -224 CURVE SMOOTH"
);
}
);
width = 533;
},
{
layerId = "7911D52E-6854-4A1B-8A16-F908BFF91E8F";
paths = (
{
closed = 1;
nodes = (
"489.575 -32.364 OFFCURVE",
"546.086 31.296 OFFCURVE",
"505.46 70.227 CURVE SMOOTH",
"392.325 178.639 OFFCURVE",
"222.295 337.638 OFFCURVE",
"166.802 388.166 CURVE",
"251.893 446.174 OFFCURVE",
"422.813 566.255 OFFCURVE",
"486.059 614.226 CURVE SMOOTH",
"539.454 654.725 OFFCURVE",
"478.103 714.802 OFFCURVE",
"436.071 682.292 CURVE SMOOTH",
"402.977 656.695 OFFCURVE",
"228.74 533.595 OFFCURVE",
"118.944 457.26 CURVE",
"119.263 518.407 OFFCURVE",
"119.879 620.24 OFFCURVE",
"120.269 728.842 CURVE SMOOTH",
"120.471 785.325 OFFCURVE",
"36.46 783.127 OFFCURVE",
"36.769 729.174 CURVE SMOOTH",
"37.639 577.452 OFFCURVE",
"34.726 95.989 OFFCURVE",
"34.004 33.818 CURVE SMOOTH",
"33.331 -24.206 OFFCURVE",
"116.671 -20.367 OFFCURVE",
"117.982 32.165 CURVE SMOOTH",
"119.141 78.657 OFFCURVE",
"119.443 218.936 OFFCURVE",
"119.347 311.788 CURVE",
"233.686 205.751 OFFCURVE",
"327.026 119.713 OFFCURVE",
"440.365 13.676 CURVE SMOOTH"
);
},
{
closed = 1;
nodes = (
"297.394 -216.631 OFFCURVE",
"325.271 -163.205 OFFCURVE",
"328.373 -129.319 CURVE SMOOTH",
"332.689 -82.161 OFFCURVE",
"305.609 -47.159 OFFCURVE",
"260.937 -49.031 CURVE SMOOTH",
"193.317 -51.865 OFFCURVE",
"181.663 -142.651 OFFCURVE",
"241.183 -156.303 CURVE",
"233.774 -170.875 OFFCURVE",
"221.89 -184.814 OFFCURVE",
"204.394 -198.656 CURVE SMOOTH",
"168.633 -226.948 OFFCURVE",
"209.971 -283.168 OFFCURVE",
"252.239 -250.998 CURVE SMOOTH"
);
}
);
width = 553;
}
);
leftKerningGroup = K;
rightKerningGroup = K;
unicode = 0136;
},
{
glyphname = L;
lastChange = "2026-01-28 15:34:17 +0000";
layers = (
{
anchors = (
{
name = top;
position = "{303, 775}";
}
);
layerId = "4692E1D1-BCA0-47EF-98E6-2E6F4483D11B";
paths = (
{
closed = 1;
nodes = (
"37.525 463.255 OFFCURVE",
"30.244 256.13 OFFCURVE",
"35.861 72.406 CURVE SMOOTH",
"37.129 30.952 OFFCURVE",
"46.38 -2 OFFCURVE",
"89.793 -6 CURVE SMOOTH",
"178.8 -13 OFFCURVE",
"293.577 -14 OFFCURVE",
"424.171 -9 CURVE SMOOTH",
"451.249 -8 OFFCURVE",
"452.917 31.33 OFFCURVE",
"422.389 30.161 CURVE SMOOTH",
"293.04 25.209 OFFCURVE",
"178.902 25.104 OFFCURVE",
"108.017 31.474 CURVE SMOOTH",
"83.373 33.689 OFFCURVE",
"80.76 48.784 OFFCURVE",
"79.859 70.236 CURVE SMOOTH",
"72.243 251.639 OFFCURVE",
"79.981 462.071 OFFCURVE",
"99.209 747.721 CURVE SMOOTH",
"101.197 777.261 OFFCURVE",
"57.186 781.166 OFFCURVE",
"55.249 749.832 CURVE SMOOTH"
);
}
);
width = 479;
},
{
anchors = (
{
name = top;
position = "{303, 775}";
}
);
layerId = "7911D52E-6854-4A1B-8A16-F908BFF91E8F";
paths = (
{
closed = 1;
nodes = (
"38 445 OFFCURVE",
"30 277 OFFCURVE",
"36 93 CURVE",
"37 34 OFFCURVE",
"48 0 OFFCURVE",
"108 -5 CURVE",
"198 -12 OFFCURVE",
"314 -13 OFFCURVE",
"445 -8 CURVE",
"497 -6 OFFCURVE",
"500 73 OFFCURVE",
"442 71 CURVE",
"313 66 OFFCURVE",
"200 66 OFFCURVE",
"130 72 CURVE",
"121 73 OFFCURVE",
"121 72 OFFCURVE",
"120 92 CURVE",
"112 273 OFFCURVE",
"120 442 OFFCURVE",
"139 727 CURVE",
"143 783 OFFCURVE",
"59 790 OFFCURVE",
"55 732 CURVE"
);
}
);
width = 519;
}
);
leftKerningGroup = L;
rightKerningGroup = L;
unicode = 004C;
},
{
glyphname = Lacute;
lastChange = "2019-05-01 13:49:56 +0000";
layers = (
{
layerId = "4692E1D1-BCA0-47EF-98E6-2E6F4483D11B";
paths = (
{
closed = 1;
nodes = (
"224.701 -13 OFFCURVE",
"304.909 -3 OFFCURVE",
"446.185 0.341 CURVE SMOOTH",
"474.165 1.073 OFFCURVE",
"476.166 40.844 OFFCURVE",
"445.714 39.987 CURVE SMOOTH",
"306.377 36.068 OFFCURVE",
"224.016 23.851 OFFCURVE",
"109.667 25.283 CURVE SMOOTH",
"88.015 25.554 OFFCURVE",
"78.871 27.867 OFFCURVE",
"78.509 47.903 CURVE SMOOTH",
"74.984 242.763 OFFCURVE",
"86.737 588.143 OFFCURVE",
"102.164 752.038 CURVE SMOOTH",
"104.918 781.298 OFFCURVE",
"60.724 784.416 OFFCURVE",
"57.722 753.085 CURVE SMOOTH",
"42.111 590.152 OFFCURVE",
"32.551 243.349 OFFCURVE",
"34.18 40.794 CURVE SMOOTH",
"34.548 -5 OFFCURVE",
"61.626 -12 OFFCURVE",
"100.599 -12 CURVE SMOOTH"
);
},
{
closed = 1;
nodes = (
"308.032 870.835 OFFCURVE",
"338.677 914.969 OFFCURVE",
"362.961 950.781 CURVE SMOOTH",
"379.458 975.108 OFFCURVE",
"343.216 994.804 OFFCURVE",
"327.509 971.549 CURVE SMOOTH",
"301.858 933.571 OFFCURVE",
"275.291 897.579 OFFCURVE",
"243.703 856.362 CURVE SMOOTH",
"222.847 829.149 OFFCURVE",
"258.09 805.961 OFFCURVE",
"276.122 829.384 CURVE SMOOTH"
);
}
);
width = 502;
},
{
layerId = "7911D52E-6854-4A1B-8A16-F908BFF91E8F";
paths = (
{
closed = 1;
nodes = (
"245.862 -13.01 OFFCURVE",
"327.385 -2.971 OFFCURVE",
"466.657 0.347 CURVE SMOOTH",
"519.471 1.605 OFFCURVE",
"523.469 80.187 OFFCURVE",
"465.15 78.979 CURVE SMOOTH",
"322.621 76.027 OFFCURVE",
"256.665 65.135 OFFCURVE",
"142.916 65.281 CURVE SMOOTH",
"127.941 65.299 OFFCURVE",
"117.677 67.509 OFFCURVE",
"117.505 89.264 CURVE SMOOTH",
"115.967 283.637 OFFCURVE",
"125.704 565.865 OFFCURVE",
"142.075 730.164 CURVE SMOOTH",
"147.638 785.994 OFFCURVE",
"63.27 791.949 OFFCURVE",
"57.813 734.993 CURVE SMOOTH",
"42.137 571.383 OFFCURVE",
"32.548 263.544 OFFCURVE",
"34.18 60.633 CURVE SMOOTH",
"34.672 -0.519 OFFCURVE",
"79.082 -12 OFFCURVE",
"120.598 -12 CURVE SMOOTH"
);
},
{
closed = 1;
nodes = (
"342.179 860.024 OFFCURVE",
"369.167 896.653 OFFCURVE",
"391.513 928.556 CURVE SMOOTH",
"424.613 975.811 OFFCURVE",
"353.772 1015.218 OFFCURVE",
"321.934 971.743 CURVE SMOOTH",
"297.379 938.213 OFFCURVE",
"278.306 910.602 OFFCURVE",
"252.828 878.528 CURVE SMOOTH",
"214.266 829.983 OFFCURVE",
"283.854 784.047 OFFCURVE",
"316.969 827.184 CURVE SMOOTH"
);
}
);
width = 541;
}
);
leftKerningGroup = L;
rightKerningGroup = L;
unicode = 0139;
},
{
glyphname = Lcaron;
lastChange = "2019-04-22 14:57:17 +0000";
layers = (
{
layerId = "4692E1D1-BCA0-47EF-98E6-2E6F4483D11B";
paths = (
{
closed = 1;
nodes = (
"202.012 -9 OFFCURVE",
"316.893 -7.895 OFFCURVE",
"440.717 -3 CURVE SMOOTH",
"472.503 -1.743 OFFCURVE",
"469.74 38.188 OFFCURVE",
"439.773 36.927 CURVE SMOOTH",
"313.928 31.632 OFFCURVE",
"209.249 27.477 OFFCURVE",
"119.221 33.1 CURVE SMOOTH",
"79.352 35.591 OFFCURVE",
"74.705 55.18 OFFCURVE",
"75.498 85.308 CURVE SMOOTH",
"81.61 317.601 OFFCURVE",
"99.534 549.635 OFFCURVE",
"113.587 756.914 CURVE SMOOTH",
"115.476 784.768 OFFCURVE",
"72.475 788.845 OFFCURVE",
"70.655 759.831 CURVE SMOOTH",
"57.604 551.794 OFFCURVE",
"41.732 318.8 OFFCURVE",
"34.106 79.649 CURVE SMOOTH",
"32.317 23.539 OFFCURVE",
"52.93 -3 OFFCURVE",
"115.174 -6 CURVE SMOOTH"
);
},
{
closed = 1;
nodes = (
"284 682 OFFCURVE",
"313 724 OFFCURVE",
"331 760 CURVE SMOOTH",
"344 786 OFFCURVE",
"309 806 OFFCURVE",
"293 777 CURVE SMOOTH",
"274 742 OFFCURVE",
"249 707 OFFCURVE",
"231 687 CURVE SMOOTH",
"210 664 OFFCURVE",
"243 638 OFFCURVE",
"264 661 CURVE SMOOTH"
);
}
);
width = 498;
},
{
layerId = "7911D52E-6854-4A1B-8A16-F908BFF91E8F";
paths = (
{
closed = 1;
nodes = (
"221.644 -9 OFFCURVE",
"338.348 -7.968 OFFCURVE",
"461.651 -2.977 CURVE SMOOTH",
"520.577 -0.591 OFFCURVE",
"520.039 78.87 OFFCURVE",
"460.607 75.895 CURVE SMOOTH",
"334.115 69.562 OFFCURVE",
"251.746 68.597 OFFCURVE",
"162.445 71.061 CURVE SMOOTH",
"125.497 72.081 OFFCURVE",
"115.161 85.411 OFFCURVE",
"116.468 124.782 CURVE SMOOTH",
"124.097 354.629 OFFCURVE",
"137.459 528.188 OFFCURVE",
"151.518 735.561 CURVE SMOOTH",
"155.148 789.083 OFFCURVE",
"72.175 796.937 OFFCURVE",
"68.671 741.083 CURVE SMOOTH",
"55.624 533.1 OFFCURVE",
"41.731 339.799 OFFCURVE",
"34.093 100.286 CURVE SMOOTH",
"32.074 36.967 OFFCURVE",
"62.755 -2.534 OFFCURVE",
"134.188 -5.977 CURVE SMOOTH"
);
},
{
closed = 1;
nodes = (
"313 671 OFFCURVE",
"344 715 OFFCURVE",
"355 741 CURVE SMOOTH",
"377 793 OFFCURVE",
"313 825 OFFCURVE",
"283 776 CURVE SMOOTH",
"269 753 OFFCURVE",
"248 723 OFFCURVE",
"233 706 CURVE SMOOTH",
"194 662 OFFCURVE",
"253 611 OFFCURVE",
"295 653 CURVE SMOOTH"
);
}
);
width = 540;
}
);
leftKerningGroup = L;
rightKerningGroup = L;
unicode = 013D;
},
{
glyphname = Lcommaaccent;
lastChange = "2019-06-05 13:48:27 +0000";
layers = (
{
layerId = "4692E1D1-BCA0-47EF-98E6-2E6F4483D11B";
paths = (
{
closed = 1;
nodes = (
"198.073 -5 OFFCURVE",
"316.094 -6 OFFCURVE",
"438.993 1.435 CURVE SMOOTH",
"467.326 3.149 OFFCURVE",
"466.222 42.83 OFFCURVE",
"438.798 40.968 CURVE SMOOTH",
"317.202 32.711 OFFCURVE",
"200.327 32.591 OFFCURVE",
"105.268 37.939 CURVE SMOOTH",
"76.672 39.547 OFFCURVE",
"77 55 OFFCURVE",
"77.515 69.525 CURVE SMOOTH",
"81 222 OFFCURVE",
"87 539 OFFCURVE",
"88 748 CURVE SMOOTH",
"88 778 OFFCURVE",
"47 783 OFFCURVE",
"46 750 CURVE SMOOTH",
"41 541 OFFCURVE",
"39 223 OFFCURVE",
"34.105 58.094 CURVE SMOOTH",
"33 34 OFFCURVE",
"39.457 1.144 OFFCURVE",
"94.803 -1 CURVE SMOOTH"
);
},
{
closed = 1;
nodes = (
"282.748 -199 OFFCURVE",
"290.257 -158 OFFCURVE",
"290.537 -133 CURVE SMOOTH",
"290.882 -103 OFFCURVE",
"268.536 -85 OFFCURVE",
"243.392 -88 CURVE SMOOTH",
"197.19 -93 OFFCURVE",
"197.808 -160 OFFCURVE",
"248.712 -157 CURVE",
"250.581 -166.46 OFFCURVE",
"243.022 -186.29 OFFCURVE",
"215.887 -206 CURVE SMOOTH",
"192.489 -223 OFFCURVE",
"220.387 -246 OFFCURVE",
"239.048 -232 CURVE SMOOTH"
);
}
);
width = 494;
},
{
layerId = "7911D52E-6854-4A1B-8A16-F908BFF91E8F";
paths = (
{
closed = 1;
nodes = (
"217.563 -4.997 OFFCURVE",
"335.568 -5.869 OFFCURVE",
"459.163 1.471 CURVE SMOOTH",
"514.062 4.732 OFFCURVE",
"511.835 84.618 OFFCURVE",
"456.405 80.922 CURVE SMOOTH",
"335.465 72.859 OFFCURVE",
"238.841 71.592 OFFCURVE",
"144.353 76.907 CURVE SMOOTH",
"123.375 78.088 OFFCURVE",
"117 83 OFFCURVE",
"117.459 106.679 CURVE SMOOTH",
"121 259 OFFCURVE",
"123 517 OFFCURVE",
"125 726 CURVE SMOOTH",
"126 781 OFFCURVE",
"45 793 OFFCURVE",
"44 731 CURVE SMOOTH",
"41 522 OFFCURVE",
"38 244 OFFCURVE",
"34.088 79 CURVE SMOOTH",
"33 53 OFFCURVE",
"42.781 1.773 OFFCURVE",
"113.991 -0.985 CURVE"
);
},
{
closed = 1;
nodes = (
"312.723 -227.865 OFFCURVE",
"330.199 -165.927 OFFCURVE",
"330.498 -133.224 CURVE SMOOTH",
"330.879 -91.517 OFFCURVE",
"298.547 -64.574 OFFCURVE",
"260.985 -68.141 CURVE SMOOTH",
"192.526 -74.641 OFFCURVE",
"191.273 -165.228 OFFCURVE",
"246.18 -172.277 CURVE",
"236.309 -188.958 OFFCURVE",
"222.678 -200.823 OFFCURVE",
"208.095 -211.818 CURVE SMOOTH",
"170.281 -240.329 OFFCURVE",
"211.527 -292.037 OFFCURVE",
"251.012 -266.998 CURVE SMOOTH"
);
}
);
width = 533;
}
);
leftKerningGroup = L;
rightKerningGroup = L;
unicode = 013B;
},
{
glyphname = Ldot;
lastChange = "2026-01-22 15:03:47 +0000";
layers = (
{
layerId = "4692E1D1-BCA0-47EF-98E6-2E6F4483D11B";
paths = (
{
closed = 1;
nodes = (
"224.701 -13 OFFCURVE",
"304.918 -12.355 OFFCURVE",
"446.185 -8.659 CURVE SMOOTH",
"474.165 -7.927 OFFCURVE",
"476.166 29.844 OFFCURVE",
"445.714 28.987 CURVE SMOOTH",
"306.377 25.068 OFFCURVE",
"222.016 23.851 OFFCURVE",
"107.667 25.283 CURVE SMOOTH",
"86.015 25.554 OFFCURVE",
"76.769 27.865 OFFCURVE",
"76.509 47.903 CURVE SMOOTH",
"73.984 242.763 OFFCURVE",
"82.737 588.143 OFFCURVE",
"89.164 752.038 CURVE SMOOTH",
"90.316 781.405 OFFCURVE",
"48.805 784.541 OFFCURVE",
"47.722 753.085 CURVE SMOOTH",
"42.111 590.152 OFFCURVE",
"32.551 243.349 OFFCURVE",
"34.18 40.794 CURVE SMOOTH",
"34.548 -5 OFFCURVE",
"61.626 -12 OFFCURVE",
"100.599 -12 CURVE SMOOTH"
);
},
{
closed = 1;
nodes = (
"252 334 OFFCURVE",
"306 366 OFFCURVE",
"283 399 CURVE SMOOTH",
"261 430 OFFCURVE",
"212 402 OFFCURVE",
"232 368 CURVE SMOOTH"
);
}
);
width = 502;
},
{
layerId = "7911D52E-6854-4A1B-8A16-F908BFF91E8F";
paths = (
{
closed = 1;
nodes = (
"244.555 -12 OFFCURVE",
"325.11 -12.353 OFFCURVE",
"466.558 -8.652 CURVE SMOOTH",
"520.072 -7.252 OFFCURVE",
"521.791 68.189 OFFCURVE",
"465.001 66.979 CURVE SMOOTH",
"325.803 64.013 OFFCURVE",
"243.832 62.926 OFFCURVE",
"129.767 65.281 CURVE SMOOTH",
"117.457 65.535 OFFCURVE",
"114.413 79.858 OFFCURVE",
"114.357 84.162 CURVE SMOOTH",
"111.827 278.638 OFFCURVE",
"120.577 567.497 OFFCURVE",
"127.999 731.254 CURVE SMOOTH",
"130.521 786.898 OFFCURVE",
"49.579 791.727 OFFCURVE",
"47.584 733.773 CURVE SMOOTH",
"41.97 570.772 OFFCURVE",
"33.399 263.544 OFFCURVE",
"34.031 60.633 CURVE SMOOTH",
"34.189 9.796 OFFCURVE",
"61.528 -12 OFFCURVE",
"120.449 -12 CURVE SMOOTH"
);
},
{
closed = 1;
nodes = (
"279 301 OFFCURVE",
"368 354 OFFCURVE",
"329 410 CURVE SMOOTH",
"292 463 OFFCURVE",
"212 414 OFFCURVE",
"245 358 CURVE SMOOTH"
);
}
);
width = 541;
}
);
leftKerningGroup = L;
rightKerningGroup = L;
unicode = 013F;
},
{
glyphname = Lslash;
lastChange = "2019-04-24 17:42:25 +0000";
layers = (
{
layerId = "4692E1D1-BCA0-47EF-98E6-2E6F4483D11B";
paths = (
{
closed = 1;
nodes = (
"263 -5 OFFCURVE",
"430 -2 OFFCURVE",
"474 0 CURVE SMOOTH",
"499 1 OFFCURVE",
"502 39 OFFCURVE",
"473 38 CURVE SMOOTH",
"429 37 OFFCURVE",
"263 32 OFFCURVE",
"143 34 CURVE SMOOTH",
"121 35 OFFCURVE",
"120 48 OFFCURVE",
"120 65 CURVE SMOOTH",
"123 129 OFFCURVE",
"127 250 OFFCURVE",
"129 324 CURVE",
"313 416 LINE SMOOTH",
"344 431 OFFCURVE",
"325 467 OFFCURVE",
"297 453 CURVE SMOOTH",
"131 372 LINE",
"143 752 LINE SMOOTH",
"144 781 OFFCURVE",
"104 780 OFFCURVE",
"103 753 CURVE SMOOTH",
"89 353 LINE",
"17 315 LINE SMOOTH",
"-11 300 OFFCURVE",
"11 265 OFFCURVE",
"35 277 CURVE SMOOTH",
"87 304 LINE",
"86 241 OFFCURVE",
"82 132 OFFCURVE",
"79 64 CURVE SMOOTH",
"78 33 OFFCURVE",
"81 -4 OFFCURVE",
"132 -4 CURVE SMOOTH"
);
}
);
width = 528;
},
{
layerId = "7911D52E-6854-4A1B-8A16-F908BFF91E8F";
paths = (
{
closed = 1;
nodes = (
"284 -5 OFFCURVE",
"449 -2 OFFCURVE",
"494 0 CURVE SMOOTH",
"546 3 OFFCURVE",
"549 79 OFFCURVE",
"491 77 CURVE SMOOTH",
"446 75 OFFCURVE",
"292 73 OFFCURVE",
"174 74 CURVE SMOOTH",
"168 74 OFFCURVE",
"160 73 OFFCURVE",
"161 90 CURVE SMOOTH",
"163 164 OFFCURVE",
"168 272 OFFCURVE",
"169 312 CURVE",
"342 401 LINE",
"394 429 OFFCURVE",
"356 498 OFFCURVE",
"308 473 CURVE",
"173 405 LINE",
"183 731 LINE SMOOTH",
"185 788 OFFCURVE",
"104 785 OFFCURVE",
"102 733 CURVE SMOOTH",
"90 365 LINE",
"29 333 LINE",
"-25 305 OFFCURVE",
"19 236 OFFCURVE",
"65 259 CURVE",
"87 271 LINE",
"85 222 OFFCURVE",
"82 150 OFFCURVE",
"80 85 CURVE",
"78 52 OFFCURVE",
"83 -4 OFFCURVE",
"152 -4 CURVE"
);
}
);
width = 568;
}
);
leftKerningGroup = L;
rightKerningGroup = L;
unicode = 0141;
},
{
glyphname = M;
lastChange = "2026-01-28 15:27:57 +0000";
layers = (
{
anchors = (
{
name = top;
position = "{365, 735}";
}
);
layerId = "4692E1D1-BCA0-47EF-98E6-2E6F4483D11B";
paths = (
{
closed = 1;
nodes = (
"91 776 OFFCURVE",
"55 763 OFFCURVE",
"54 735 CURVE SMOOTH",
"44 467 OFFCURVE",
"41 239 OFFCURVE",
"34 16 CURVE SMOOTH",
"33 -15 OFFCURVE",
"77 -15 OFFCURVE",
"78 16 CURVE SMOOTH",
"85 238 OFFCURVE",
"88 468 OFFCURVE",
"95 691 CURVE",
"153 605 OFFCURVE",
"252 471 OFFCURVE",
"346 371 CURVE SMOOTH",
"361 355 OFFCURVE",
"380 356 OFFCURVE",
"392 370 CURVE SMOOTH",
"484 477 OFFCURVE",
"570 614 OFFCURVE",
"610 692 CURVE",
"616 598 OFFCURVE",
"628 280 OFFCURVE",
"628 17 CURVE SMOOTH",
"628 -15 OFFCURVE",
"674 -12 OFFCURVE",
"673 16 CURVE SMOOTH",
"664 280 OFFCURVE",
"657 594 OFFCURVE",
"650 728 CURVE SMOOTH",
"648 766 OFFCURVE",
"605 770 OFFCURVE",
"591 745 CURVE SMOOTH",
"529 629 OFFCURVE",
"444 500 OFFCURVE",
"375 418 CURVE SMOOTH",
"371 413 OFFCURVE",
"365 414 OFFCURVE",
"361 419 CURVE SMOOTH",
"293 499 OFFCURVE",
"186 626 OFFCURVE",
"110 746 CURVE SMOOTH"
);
}
);
width = 707;
},
{
anchors = (
{
name = top;
position = "{376, 735}";
}
);
layerId = "7911D52E-6854-4A1B-8A16-F908BFF91E8F";
paths = (
{
closed = 1;
nodes = (
"117 782 OFFCURVE",
"55 760 OFFCURVE",
"54 713 CURVE SMOOTH",
"46 445 OFFCURVE",
"39 237 OFFCURVE",
"34 35 CURVE SMOOTH",
"33 -22 OFFCURVE",
"117 -22 OFFCURVE",
"118 34 CURVE SMOOTH",
"123 237 OFFCURVE",
"127 404 OFFCURVE",
"133 608 CURVE",
"192 525 OFFCURVE",
"274 419 OFFCURVE",
"352 335 CURVE SMOOTH",
"378 306 OFFCURVE",
"403 306 OFFCURVE",
"427 335 CURVE SMOOTH",
"498 420 OFFCURVE",
"567 522 OFFCURVE",
"613 600 CURVE",
"619 465 OFFCURVE",
"624 252 OFFCURVE",
"628 36 CURVE SMOOTH",
"629 -24 OFFCURVE",
"714 -18 OFFCURVE",
"713 36 CURVE SMOOTH",
"709 278 OFFCURVE",
"698 573 OFFCURVE",
"690 708 CURVE SMOOTH",
"687 766 OFFCURVE",
"619 780 OFFCURVE",
"594 732 CURVE SMOOTH",
"536 620 OFFCURVE",
"455 513 OFFCURVE",
"398 432 CURVE SMOOTH",
"391 422 OFFCURVE",
"384 421 OFFCURVE",
"376 432 CURVE SMOOTH",
"310 516 OFFCURVE",
"227 618 OFFCURVE",
"147 735 CURVE"
);
}
);
width = 747;
}
);
leftKerningGroup = M;
rightKerningGroup = M;
unicode = 004D;
},
{
glyphname = N;
lastChange = "2020-03-04 17:27:38 +0000";
layers = (
{
layerId = "4692E1D1-BCA0-47EF-98E6-2E6F4483D11B";
paths = (
{
closed = 1;
nodes = (
"545 422 OFFCURVE",
"527 48 OFFCURVE",
"522 47 CURVE SMOOTH",
"517 47 OFFCURVE",
"294 299 OFFCURVE",
"83 743 CURVE SMOOTH",
"68 772 OFFCURVE",
"35 766 OFFCURVE",
"35 737 CURVE SMOOTH",
"36 544 OFFCURVE",
"38 141 OFFCURVE",
"34 15 CURVE SMOOTH",
"33 -16 OFFCURVE",
"75 -15 OFFCURVE",
"75 15 CURVE SMOOTH",
"75 144 OFFCURVE",
"80 547 OFFCURVE",
"76 659 CURVE",
"195 408 OFFCURVE",
"419 86 OFFCURVE",
"508 4 CURVE SMOOTH",
"527 -14 OFFCURVE",
"554 -6 OFFCURVE",
"558 13 CURVE SMOOTH",
"568 63 OFFCURVE",
"587 426 OFFCURVE",
"570 755 CURVE SMOOTH",
"568 783 OFFCURVE",
"526 782 OFFCURVE",
"528 755 CURVE SMOOTH"
);
}
);
width = 611;
},
{
layerId = "7911D52E-6854-4A1B-8A16-F908BFF91E8F";
paths = (
{
closed = 1;
nodes = (
"524 393 OFFCURVE",
"509 218 OFFCURVE",
"503 120 CURVE",
"461 173 OFFCURVE",
"347 305 OFFCURVE",
"124 729 CURVE SMOOTH",
"98 777 OFFCURVE",
"36 768 OFFCURVE",
"36 717 CURVE SMOOTH",
"37 524 OFFCURVE",
"36 161 OFFCURVE",
"34 36 CURVE SMOOTH",
"33 -22 OFFCURVE",
"118 -21 OFFCURVE",
"118 35 CURVE SMOOTH",
"118 138 OFFCURVE",
"122 380 OFFCURVE",
"123 548 CURVE",
"256 310 OFFCURVE",
"411 86 OFFCURVE",
"491 12 CURVE SMOOTH",
"524 -19 OFFCURVE",
"573 -3 OFFCURVE",
"579 32 CURVE SMOOTH",
"588 85 OFFCURVE",
"609 407 OFFCURVE",
"591 737 CURVE SMOOTH",
"588 791 OFFCURVE",
"506 789 OFFCURVE",
"508 735 CURVE SMOOTH"
);
}
);
width = 632;
}
);
leftKerningGroup = N;
rightKerningGroup = N;
unicode = 004E;
},
